STARTFONT 2.1
COMMENT
COMMENT Converted from OpenType font "SourceCodePro-Light.ttf" by "otf2bdf 3.0".
COMMENT
FONT -FreeType-Source Code Pro Light-Medium-R-Normal--25-180-100-100-P-109-ISO10646-1
SIZE 18 100 100
FONTBOUNDINGBOX 25 38 -5 -11
STARTPROPERTIES 19
FOUNDRY "FreeType"
FAMILY_NAME "Source Code Pro Light"
WEIGHT_NAME "Medium"
SLANT "R"
SETWIDTH_NAME "Normal"
ADD_STYLE_NAME ""
PIXEL_SIZE 25
POINT_SIZE 180
RESOLUTION_X 100
RESOLUTION_Y 100
SPACING "P"
AVERAGE_WIDTH 140
CHARSET_REGISTRY "ISO10646"
CHARSET_ENCODING "1"
FONT_ASCENT 24
FONT_DESCENT 6
COPYRIGHT "Copyright 2010, 2012 Adobe Systems Incorporated (http://www.adobe.com/), with Reserved Font Name Source."
_OTF_FONTFILE "SourceCodePro-Light.ttf"
_OTF_PSNAME "SourceCodePro-Light"
ENDPROPERTIES
CHARS 1326
STARTCHAR 0020
ENCODING 32
SWIDTH 600 0
DWIDTH 15 0
BBX 0 0 0 0
BITMAP
ENDCHAR
STARTCHAR 0021
ENCODING 33
SWIDTH 600 0
DWIDTH 15 0
BBX 3 17 6 0
BITMAP
40
40
40
40
40
40
40
40
40
40
40
40
00
00
40
E0
E0
ENDCHAR
STARTCHAR 0022
ENCODING 34
SWIDTH 600 0
DWIDTH 15 0
BBX 7 7 4 10
BITMAP
82
82
82
82
82
82
82
ENDCHAR
STARTCHAR 0023
ENCODING 35
SWIDTH 600 0
DWIDTH 15 0
BBX 11 16 2 0
BITMAP
0880
1080
1080
1080
1080
7FE0
1080
1100
1100
1100
FFC0
2100
2100
2100
2100
2200
ENDCHAR
STARTCHAR 0024
ENCODING 36
SWIDTH 600 0
DWIDTH 15 0
BBX 10 22 3 -3
BITMAP
0800
0800
0800
0800
3F00
4080
8000
8000
C000
7000
1C00
0300
0180
00C0
00C0
0080
C180
3F00
0800
0800
0800
0800
ENDCHAR
STARTCHAR 0025
ENCODING 37
SWIDTH 600 0
DWIDTH 15 0
BBX 13 16 1 0
BITMAP
3800
4418
8210
8220
8240
8280
4400
7C00
00E0
0110
1A08
1208
2208
4208
8110
01F0
ENDCHAR
STARTCHAR 0026
ENCODING 38
SWIDTH 600 0
DWIDTH 15 0
BBX 13 17 1 0
BITMAP
0600
1900
1080
1080
1100
1100
1200
1C00
1808
2C08
4410
4210
8120
C0A0
4040
60B0
3F18
ENDCHAR
STARTCHAR 0027
ENCODING 39
SWIDTH 600 0
DWIDTH 15 0
BBX 1 7 7 10
BITMAP
80
80
80
80
80
80
80
ENDCHAR
STARTCHAR 0028
ENCODING 40
SWIDTH 600 0
DWIDTH 15 0
BBX 6 22 6 -4
BITMAP
0C
18
30
20
40
40
80
80
80
80
80
80
80
80
80
80
40
40
20
30
18
0C
ENDCHAR
STARTCHAR 0029
ENCODING 41
SWIDTH 600 0
DWIDTH 15 0
BBX 6 22 3 -4
BITMAP
80
60
20
10
08
08
04
04
04
04
04
04
04
04
04
04
08
08
10
30
60
C0
ENDCHAR
STARTCHAR 002A
ENCODING 42
SWIDTH 600 0
DWIDTH 15 0
BBX 9 11 3 3
BITMAP
0800
0800
0800
0800
C980
3E00
1C00
1400
2200
4100
4100
ENDCHAR
STARTCHAR 002B
ENCODING 43
SWIDTH 600 0
DWIDTH 15 0
BBX 11 11 2 3
BITMAP
0400
0400
0400
0400
0400
FFE0
0400
0400
0400
0400
0400
ENDCHAR
STARTCHAR 002C
ENCODING 44
SWIDTH 600 0
DWIDTH 15 0
BBX 4 8 5 -5
BITMAP
30
70
70
10
10
30
20
C0
ENDCHAR
STARTCHAR 002D
ENCODING 45
SWIDTH 600 0
DWIDTH 15 0
BBX 11 1 2 8
BITMAP
FFE0
ENDCHAR
STARTCHAR 002E
ENCODING 46
SWIDTH 600 0
DWIDTH 15 0
BBX 3 3 6 0
BITMAP
E0
E0
E0
ENDCHAR
STARTCHAR 002F
ENCODING 47
SWIDTH 600 0
DWIDTH 15 0
BBX 9 22 3 -4
BITMAP
0080
0080
0100
0100
0300
0200
0200
0400
0400
0400
0800
0800
1800
1000
1000
2000
2000
2000
4000
4000
C000
8000
ENDCHAR
STARTCHAR 0030
ENCODING 48
SWIDTH 600 0
DWIDTH 15 0
BBX 11 16 2 0
BITMAP
1F00
2080
4040
4040
8060
8020
8420
8E20
8E20
8020
8020
8060
4040
4040
2080
1F00
ENDCHAR
STARTCHAR 0031
ENCODING 49
SWIDTH 600 0
DWIDTH 15 0
BBX 10 16 3 0
BITMAP
1C00
7C00
0C00
0C00
0C00
0C00
0C00
0C00
0C00
0C00
0C00
0C00
0C00
0C00
0C00
FFC0
ENDCHAR
STARTCHAR 0032
ENCODING 50
SWIDTH 600 0
DWIDTH 15 0
BBX 11 16 2 0
BITMAP
3F00
4080
80C0
0040
0040
0040
0080
0080
0100
0200
0600
0C00
1800
2000
4000
FFE0
ENDCHAR
STARTCHAR 0033
ENCODING 51
SWIDTH 600 0
DWIDTH 15 0
BBX 11 16 2 0
BITMAP
3F00
4080
0040
0040
0040
00C0
0180
1E00
0180
0040
0060
0020
0020
8040
C0C0
3F80
ENDCHAR
STARTCHAR 0034
ENCODING 52
SWIDTH 600 0
DWIDTH 15 0
BBX 12 16 1 0
BITMAP
00C0
00C0
0140
0240
0440
0C40
1840
1040
2040
4040
FFF0
0040
0040
0040
0040
0040
ENDCHAR
STARTCHAR 0035
ENCODING 53
SWIDTH 600 0
DWIDTH 15 0
BBX 11 16 2 0
BITMAP
7FC0
4000
4000
4000
4000
4000
5F00
60C0
0040
0060
0020
0020
0060
0040
C0C0
3F00
ENDCHAR
STARTCHAR 0036
ENCODING 54
SWIDTH 600 0
DWIDTH 15 0
BBX 11 16 2 0
BITMAP
0FC0
3060
2000
4000
4000
C000
8600
99C0
E040
C020
8020
C020
4020
4060
2040
1F80
ENDCHAR
STARTCHAR 0037
ENCODING 55
SWIDTH 600 0
DWIDTH 15 0
BBX 11 16 2 0
BITMAP
FFE0
0060
0040
0080
0100
0100
0200
0200
0400
0400
0400
0400
0C00
0800
0800
0800
ENDCHAR
STARTCHAR 0038
ENCODING 56
SWIDTH 600 0
DWIDTH 15 0
BBX 11 16 2 0
BITMAP
1F80
20C0
4040
4040
4040
2040
3080
1F00
2380
4040
8020
8020
8020
8020
4040
3F80
ENDCHAR
STARTCHAR 0039
ENCODING 57
SWIDTH 600 0
DWIDTH 15 0
BBX 11 16 2 0
BITMAP
3F00
6080
C040
8040
8060
8020
8020
40E0
7320
0C20
0060
0040
0040
0080
8180
7E00
ENDCHAR
STARTCHAR 003A
ENCODING 58
SWIDTH 600 0
DWIDTH 15 0
BBX 3 12 6 0
BITMAP
E0
E0
E0
00
00
00
00
00
00
E0
E0
E0
ENDCHAR
STARTCHAR 003B
ENCODING 59
SWIDTH 600 0
DWIDTH 15 0
BBX 4 17 5 -5
BITMAP
70
70
70
00
00
00
00
00
00
30
70
70
10
10
30
20
C0
ENDCHAR
STARTCHAR 003C
ENCODING 60
SWIDTH 600 0
DWIDTH 15 0
BBX 9 13 3 1
BITMAP
0080
0180
0600
0C00
1000
6000
8000
4000
3000
1800
0600
0300
0080
ENDCHAR
STARTCHAR 003D
ENCODING 61
SWIDTH 600 0
DWIDTH 15 0
BBX 11 7 2 5
BITMAP
FFE0
0000
0000
0000
0000
0000
FFE0
ENDCHAR
STARTCHAR 003E
ENCODING 62
SWIDTH 600 0
DWIDTH 15 0
BBX 9 13 3 1
BITMAP
8000
C000
3000
1800
0400
0300
0080
0180
0600
0C00
3000
6000
8000
ENDCHAR
STARTCHAR 003F
ENCODING 63
SWIDTH 600 0
DWIDTH 15 0
BBX 9 17 3 0
BITMAP
3E00
C300
0100
0080
0180
0100
0300
0600
0C00
0800
1000
1000
0000
0000
1800
1C00
1800
ENDCHAR
STARTCHAR 0040
ENCODING 64
SWIDTH 600 0
DWIDTH 15 0
BBX 12 20 2 -4
BITMAP
0700
18C0
2020
4020
C020
8010
8030
83D0
8410
8810
8810
8830
8C50
8390
8000
4000
4000
2000
18C0
0700
ENDCHAR
STARTCHAR 0041
ENCODING 65
SWIDTH 600 0
DWIDTH 15 0
BBX 13 16 1 0
BITMAP
0200
0500
0500
0500
0880
0880
18C0
1040
1040
3FE0
2020
2020
6030
4010
4010
8018
ENDCHAR
STARTCHAR 0042
ENCODING 66
SWIDTH 600 0
DWIDTH 15 0
BBX 10 16 3 0
BITMAP
FF00
8180
8080
8080
8080
8080
8300
FF00
8080
8040
8040
8040
8040
8040
8180
FE00
ENDCHAR
STARTCHAR 0043
ENCODING 67
SWIDTH 600 0
DWIDTH 15 0
BBX 11 17 2 0
BITMAP
0780
18C0
2020
4000
4000
8000
8000
8000
8000
8000
8000
8000
C000
4000
6000
3060
0FC0
ENDCHAR
STARTCHAR 0044
ENCODING 68
SWIDTH 600 0
DWIDTH 15 0
BBX 12 16 2 0
BITMAP
FF00
C0C0
C040
C020
C020
C020
C030
C030
C030
C030
C020
C020
C060
C0C0
C180
FE00
ENDCHAR
STARTCHAR 0045
ENCODING 69
SWIDTH 600 0
DWIDTH 15 0
BBX 10 16 3 0
BITMAP
FFC0
8000
8000
8000
8000
8000
8000
FF80
8000
8000
8000
8000
8000
8000
8000
FFC0
ENDCHAR
STARTCHAR 0046
ENCODING 70
SWIDTH 600 0
DWIDTH 15 0
BBX 9 16 4 0
BITMAP
FF80
8000
8000
8000
8000
8000
8000
FF00
8000
8000
8000
8000
8000
8000
8000
8000
ENDCHAR
STARTCHAR 0047
ENCODING 71
SWIDTH 600 0
DWIDTH 15 0
BBX 12 17 1 0
BITMAP
0380
0C60
3010
2000
6000
4000
4000
4000
C000
C1F0
4010
4010
4010
6010
2010
1830
0FE0
ENDCHAR
STARTCHAR 0048
ENCODING 72
SWIDTH 600 0
DWIDTH 15 0
BBX 11 16 2 0
BITMAP
8020
8020
8020
8020
8020
8020
8020
FFE0
8020
8020
8020
8020
8020
8020
8020
8020
ENDCHAR
STARTCHAR 0049
ENCODING 73
SWIDTH 600 0
DWIDTH 15 0
BBX 9 16 3 0
BITMAP
FF80
0800
0800
0800
0800
0800
0800
0800
0800
0800
0800
0800
0800
0800
0800
FF80
ENDCHAR
STARTCHAR 004A
ENCODING 74
SWIDTH 600 0
DWIDTH 15 0
BBX 10 17 2 0
BITMAP
3FC0
0040
0040
0040
0040
0040
0040
0040
0040
0040
0040
0040
0040
0040
C0C0
6080
3F00
ENDCHAR
STARTCHAR 004B
ENCODING 75
SWIDTH 600 0
DWIDTH 15 0
BBX 11 16 3 0
BITMAP
80C0
8180
8100
8200
8400
8800
9C00
B400
E200
C200
8100
8180
8080
8040
8040
8020
ENDCHAR
STARTCHAR 004C
ENCODING 76
SWIDTH 600 0
DWIDTH 15 0
BBX 9 16 4 0
BITMAP
8000
8000
8000
8000
8000
8000
8000
8000
8000
8000
8000
8000
8000
8000
8000
FF80
ENDCHAR
STARTCHAR 004D
ENCODING 77
SWIDTH 600 0
DWIDTH 15 0
BBX 11 16 2 0
BITMAP
C060
C060
A0A0
A0A0
A0A0
9120
9120
9B20
8A20
8A20
8420
8420
8020
8020
8020
8020
ENDCHAR
STARTCHAR 004E
ENCODING 78
SWIDTH 600 0
DWIDTH 15 0
BBX 11 16 2 0
BITMAP
C020
A020
A020
9020
9020
8820
8820
8420
8420
8220
8320
8120
80A0
80A0
8060
8060
ENDCHAR
STARTCHAR 004F
ENCODING 79
SWIDTH 600 0
DWIDTH 15 0
BBX 13 17 1 0
BITMAP
0700
18C0
3060
6030
4010
4010
C010
C018
C018
C018
C018
4010
4010
6030
2020
3040
0F80
ENDCHAR
STARTCHAR 0050
ENCODING 80
SWIDTH 600 0
DWIDTH 15 0
BBX 10 16 3 0
BITMAP
FF80
80C0
8040
8040
8040
8040
80C0
8180
FE00
8000
8000
8000
8000
8000
8000
8000
ENDCHAR
STARTCHAR 0051
ENCODING 81
SWIDTH 600 0
DWIDTH 15 0
BBX 13 21 1 -4
BITMAP
0700
18C0
3060
6020
4010
4010
4010
C018
C018
C018
4010
4010
4010
4030
2020
1040
0F80
0200
0300
0180
0070
ENDCHAR
STARTCHAR 0052
ENCODING 82
SWIDTH 600 0
DWIDTH 15 0
BBX 10 16 3 0
BITMAP
FF80
8080
8040
8040
8040
8040
8080
FF00
8400
8600
8200
8300
8100
8080
8080
8040
ENDCHAR
STARTCHAR 0053
ENCODING 83
SWIDTH 600 0
DWIDTH 15 0
BBX 11 17 2 0
BITMAP
0F00
31C0
6040
4000
4000
4000
2000
1800
0700
0180
0040
0020
0020
0020
8020
6040
3F80
ENDCHAR
STARTCHAR 0054
ENCODING 84
SWIDTH 600 0
DWIDTH 15 0
BBX 13 16 1 0
BITMAP
FFF8
0200
0200
0200
0200
0200
0200
0200
0200
0200
0200
0200
0200
0200
0200
0200
ENDCHAR
STARTCHAR 0055
ENCODING 85
SWIDTH 600 0
DWIDTH 15 0
BBX 11 16 2 0
BITMAP
8020
8020
8020
8020
8020
8020
8020
8020
8020
8020
8020
8020
4040
4040
60C0
3F00
ENDCHAR
STARTCHAR 0056
ENCODING 86
SWIDTH 600 0
DWIDTH 15 0
BBX 11 16 2 0
BITMAP
8020
8020
C060
4040
4040
60C0
2080
2080
3080
1100
1100
1100
0A00
0A00
0A00
0400
ENDCHAR
STARTCHAR 0057
ENCODING 87
SWIDTH 600 0
DWIDTH 15 0
BBX 15 17 0 0
BITMAP
C002
4006
4004
4004
4004
4104
4284
628C
2288
22C8
2448
2448
2448
2C28
1830
1830
1830
ENDCHAR
STARTCHAR 0058
ENCODING 88
SWIDTH 600 0
DWIDTH 15 0
BBX 11 16 2 0
BITMAP
4040
60C0
2080
1100
1100
0A00
0A00
0400
0A00
0A00
1100
3100
2080
60C0
4040
8020
ENDCHAR
STARTCHAR 0059
ENCODING 89
SWIDTH 600 0
DWIDTH 15 0
BBX 11 16 2 0
BITMAP
8020
C020
4040
60C0
2080
1100
1100
0A00
0A00
0400
0400
0400
0400
0400
0400
0400
ENDCHAR
STARTCHAR 005A
ENCODING 90
SWIDTH 600 0
DWIDTH 15 0
BBX 11 17 2 0
BITMAP
7FE0
0020
0040
00C0
0080
0100
0300
0200
0400
0C00
0800
1000
3000
2000
4000
8000
FFE0
ENDCHAR
STARTCHAR 005B
ENCODING 91
SWIDTH 600 0
DWIDTH 15 0
BBX 7 22 6 -4
BITMAP
FE
80
80
80
80
80
80
80
80
80
80
80
80
80
80
80
80
80
80
80
80
FE
ENDCHAR
STARTCHAR 005C
ENCODING 92
SWIDTH 600 0
DWIDTH 15 0
BBX 9 22 3 -4
BITMAP
8000
8000
4000
4000
6000
2000
2000
1000
1000
1000
0800
0800
0C00
0400
0400
0200
0200
0200
0100
0100
0180
0080
ENDCHAR
STARTCHAR 005D
ENCODING 93
SWIDTH 600 0
DWIDTH 15 0
BBX 7 22 2 -4
BITMAP
FE
02
02
02
02
02
02
02
02
02
02
02
02
02
02
02
02
02
02
02
02
FE
ENDCHAR
STARTCHAR 005E
ENCODING 94
SWIDTH 600 0
DWIDTH 15 0
BBX 9 10 3 7
BITMAP
0800
1400
1400
1400
2200
2200
4100
4100
4100
8080
ENDCHAR
STARTCHAR 005F
ENCODING 95
SWIDTH 600 0
DWIDTH 15 0
BBX 12 1 2 -3
BITMAP
FFF0
ENDCHAR
STARTCHAR 0060
ENCODING 96
SWIDTH 600 0
DWIDTH 15 0
BBX 3 4 5 14
BITMAP
80
C0
60
20
ENDCHAR
STARTCHAR 0061
ENCODING 97
SWIDTH 600 0
DWIDTH 15 0
BBX 11 12 2 0
BITMAP
1F80
60C0
0040
0060
0060
0FE0
3060
4060
8060
8060
40A0
3F20
ENDCHAR
STARTCHAR 0062
ENCODING 98
SWIDTH 600 0
DWIDTH 15 0
BBX 10 18 3 0
BITMAP
8000
8000
8000
8000
8000
8000
BF00
C080
80C0
8040
8040
8040
8040
8040
8040
8080
C180
BF00
ENDCHAR
STARTCHAR 0063
ENCODING 99
SWIDTH 600 0
DWIDTH 15 0
BBX 11 12 2 0
BITMAP
1FC0
3060
6000
4000
C000
8000
8000
8000
4000
4000
3020
1FC0
ENDCHAR
STARTCHAR 0064
ENCODING 100
SWIDTH 600 0
DWIDTH 15 0
BBX 10 18 2 0
BITMAP
0040
0040
0040
0040
0040
0040
3F40
60C0
4040
8040
8040
8040
8040
8040
8040
C040
60C0
3F40
ENDCHAR
STARTCHAR 0065
ENCODING 101
SWIDTH 600 0
DWIDTH 15 0
BBX 11 12 2 0
BITMAP
1F80
2040
4020
C020
8020
FFE0
8000
8000
C000
4000
2020
1FC0
ENDCHAR
STARTCHAR 0066
ENCODING 102
SWIDTH 600 0
DWIDTH 15 0
BBX 11 18 3 0
BITMAP
07E0
0C00
0800
0800
1800
1800
FFC0
1800
1800
1800
1800
1800
1800
1800
1800
1800
1800
1800
ENDCHAR
STARTCHAR 0067
ENCODING 103
SWIDTH 600 0
DWIDTH 15 0
BBX 12 18 2 -6
BITMAP
1FF0
2080
4080
4040
4040
40C0
2080
3F00
4000
4000
6000
3FE0
4030
8010
8010
C020
60C0
1F00
ENDCHAR
STARTCHAR 0068
ENCODING 104
SWIDTH 600 0
DWIDTH 15 0
BBX 10 18 3 0
BITMAP
8000
8000
8000
8000
8000
8000
9F00
A080
C0C0
8040
8040
8040
8040
8040
8040
8040
8040
8040
ENDCHAR
STARTCHAR 0069
ENCODING 105
SWIDTH 600 0
DWIDTH 15 0
BBX 8 17 2 0
BITMAP
07
07
00
00
00
FF
03
03
03
03
03
03
03
03
03
03
03
ENDCHAR
STARTCHAR 006A
ENCODING 106
SWIDTH 600 0
DWIDTH 15 0
BBX 8 23 2 -6
BITMAP
07
07
00
00
00
FF
03
03
03
03
03
03
03
03
03
03
03
03
03
02
02
84
78
ENDCHAR
STARTCHAR 006B
ENCODING 107
SWIDTH 600 0
DWIDTH 15 0
BBX 11 18 3 0
BITMAP
8000
8000
8000
8000
8000
8000
80C0
8180
8300
8600
8C00
9C00
A200
C300
8100
8080
8040
8020
ENDCHAR
STARTCHAR 006C
ENCODING 108
SWIDTH 600 0
DWIDTH 15 0
BBX 11 18 2 0
BITMAP
FC00
0400
0400
0400
0400
0400
0400
0400
0400
0400
0400
0400
0400
0400
0400
0400
0400
03E0
ENDCHAR
STARTCHAR 006D
ENCODING 109
SWIDTH 600 0
DWIDTH 15 0
BBX 12 12 2 0
BITMAP
B9E0
C620
8630
8410
8410
8410
8410
8410
8410
8410
8410
8410
ENDCHAR
STARTCHAR 006E
ENCODING 110
SWIDTH 600 0
DWIDTH 15 0
BBX 10 12 3 0
BITMAP
9F00
A080
C0C0
8040
8040
8040
8040
8040
8040
8040
8040
8040
ENDCHAR
STARTCHAR 006F
ENCODING 111
SWIDTH 600 0
DWIDTH 15 0
BBX 11 12 2 0
BITMAP
1F00
60C0
4040
8020
8020
8020
8020
8020
8020
4040
60C0
1F00
ENDCHAR
STARTCHAR 0070
ENCODING 112
SWIDTH 600 0
DWIDTH 15 0
BBX 10 17 3 -5
BITMAP
BF00
C080
80C0
8040
8040
8040
8040
8040
8040
8080
C180
BF00
8000
8000
8000
8000
8000
ENDCHAR
STARTCHAR 0071
ENCODING 113
SWIDTH 600 0
DWIDTH 15 0
BBX 10 17 2 -5
BITMAP
3F40
60C0
4040
8040
8040
8040
8040
8040
8040
C040
60C0
3F40
0040
0040
0040
0040
0040
ENDCHAR
STARTCHAR 0072
ENCODING 114
SWIDTH 600 0
DWIDTH 15 0
BBX 9 12 4 0
BITMAP
8F80
B000
A000
C000
8000
8000
8000
8000
8000
8000
8000
8000
ENDCHAR
STARTCHAR 0073
ENCODING 115
SWIDTH 600 0
DWIDTH 15 0
BBX 11 12 2 0
BITMAP
3F80
4040
4000
4000
6000
1E00
0180
0060
0020
0020
C040
3F80
ENDCHAR
STARTCHAR 0074
ENCODING 116
SWIDTH 600 0
DWIDTH 15 0
BBX 12 16 2 0
BITMAP
0800
0800
0800
0800
FFE0
0800
0800
0800
0800
0800
0800
0800
0800
0800
0C00
07F0
ENDCHAR
STARTCHAR 0075
ENCODING 117
SWIDTH 600 0
DWIDTH 15 0
BBX 10 12 2 0
BITMAP
8040
8040
8040
8040
8040
8040
8040
8040
8040
C0C0
4140
3E40
ENDCHAR
STARTCHAR 0076
ENCODING 118
SWIDTH 600 0
DWIDTH 15 0
BBX 11 12 2 0
BITMAP
8020
8020
4040
4040
2080
2080
3180
1100
1100
0A00
0A00
0400
ENDCHAR
STARTCHAR 0077
ENCODING 119
SWIDTH 600 0
DWIDTH 15 0
BBX 15 12 0 0
BITMAP
C106
4284
4284
4284
6284
2448
2448
2448
3448
1830
1830
1830
ENDCHAR
STARTCHAR 0078
ENCODING 120
SWIDTH 600 0
DWIDTH 15 0
BBX 11 12 2 0
BITMAP
4040
2080
3080
1100
0A00
0400
0E00
1A00
1100
2080
4040
C060
ENDCHAR
STARTCHAR 0079
ENCODING 121
SWIDTH 600 0
DWIDTH 15 0
BBX 11 17 2 -5
BITMAP
8020
8020
4040
4040
2040
2080
1080
1100
0900
0B00
0600
0600
0400
0400
0800
1800
F000
ENDCHAR
STARTCHAR 007A
ENCODING 122
SWIDTH 600 0
DWIDTH 15 0
BBX 11 12 2 0
BITMAP
7FE0
0040
0080
0100
0200
0400
0C00
1800
3000
6000
4000
FFE0
ENDCHAR
STARTCHAR 007B
ENCODING 123
SWIDTH 600 0
DWIDTH 15 0
BBX 9 22 4 -4
BITMAP
0780
1800
1000
1000
1000
1000
1000
1000
1000
1000
6000
E000
1000
1000
1000
1000
1000
1000
1000
1000
1800
0780
ENDCHAR
STARTCHAR 007C
ENCODING 124
SWIDTH 600 0
DWIDTH 15 0
BBX 1 25 7 -6
BITMAP
80
80
80
80
80
80
80
80
80
80
80
80
80
80
80
80
80
80
80
80
80
80
80
80
80
ENDCHAR
STARTCHAR 007D
ENCODING 125
SWIDTH 600 0
DWIDTH 15 0
BBX 9 22 2 -4
BITMAP
F000
0C00
0400
0400
0400
0400
0400
0400
0400
0400
0300
0380
0400
0400
0400
0400
0400
0400
0400
0400
0C00
F000
ENDCHAR
STARTCHAR 007E
ENCODING 126
SWIDTH 600 0
DWIDTH 15 0
BBX 11 3 2 7
BITMAP
3820
4C40
83C0
ENDCHAR
STARTCHAR 00A0
ENCODING 160
SWIDTH 600 0
DWIDTH 15 0
BBX 0 0 0 0
BITMAP
ENDCHAR
STARTCHAR 00A1
ENCODING 161
SWIDTH 600 0
DWIDTH 15 0
BBX 3 17 6 -5
BITMAP
E0
E0
40
00
00
40
40
40
40
40
40
40
40
40
40
40
40
ENDCHAR
STARTCHAR 00A2
ENCODING 162
SWIDTH 600 0
DWIDTH 15 0
BBX 9 17 3 -1
BITMAP
0400
0400
0400
3F80
6480
4400
8400
8400
8400
8400
C400
4400
2480
1F00
0400
0400
0400
ENDCHAR
STARTCHAR 00A3
ENCODING 163
SWIDTH 600 0
DWIDTH 15 0
BBX 11 16 2 0
BITMAP
0FC0
3060
2000
2000
2000
2000
2000
1000
FF80
1000
1000
1000
1000
3000
6000
FFE0
ENDCHAR
STARTCHAR 00A4
ENCODING 164
SWIDTH 600 0
DWIDTH 15 0
BBX 11 12 2 2
BITMAP
8020
5F40
3180
60C0
4040
4040
4040
4040
2080
7BC0
C460
8020
ENDCHAR
STARTCHAR 00A5
ENCODING 165
SWIDTH 600 0
DWIDTH 15 0
BBX 11 16 2 0
BITMAP
8020
C060
4040
2080
2080
1100
1100
0A00
FFE0
0400
0400
FFE0
0400
0400
0400
0400
ENDCHAR
STARTCHAR 00A6
ENCODING 166
SWIDTH 600 0
DWIDTH 15 0
BBX 1 25 7 -6
BITMAP
80
80
80
80
80
80
80
80
80
80
80
00
00
00
80
80
80
80
80
80
80
80
80
80
80
ENDCHAR
STARTCHAR 00A7
ENCODING 167
SWIDTH 600 0
DWIDTH 15 0
BBX 9 18 3 -1
BITMAP
1E00
6100
4000
4000
2000
7800
8600
8100
8080
8080
C080
3080
0F00
0200
0100
0100
8300
7E00
ENDCHAR
STARTCHAR 00A8
ENCODING 168
SWIDTH 600 0
DWIDTH 15 0
BBX 7 2 4 15
BITMAP
C6
C6
ENDCHAR
STARTCHAR 00A9
ENCODING 169
SWIDTH 600 0
DWIDTH 15 0
BBX 13 16 1 0
BITMAP
1FC0
2020
4010
4310
8C88
9008
9008
9008
9008
9008
9008
8888
4710
4010
2020
1FC0
ENDCHAR
STARTCHAR 00AA
ENCODING 170
SWIDTH 600 0
DWIDTH 15 0
BBX 7 8 4 10
BITMAP
7C
02
02
1E
62
82
C6
7A
ENDCHAR
STARTCHAR 00AB
ENCODING 171
SWIDTH 600 0
DWIDTH 15 0
BBX 10 9 2 2
BITMAP
1040
1040
2080
4100
8200
4100
6180
2080
1040
ENDCHAR
STARTCHAR 00AC
ENCODING 172
SWIDTH 600 0
DWIDTH 15 0
BBX 11 6 2 3
BITMAP
FFE0
0020
0020
0020
0020
0020
ENDCHAR
STARTCHAR 00AD
ENCODING 173
SWIDTH 600 0
DWIDTH 15 0
BBX 11 1 2 8
BITMAP
FFE0
ENDCHAR
STARTCHAR 00AE
ENCODING 174
SWIDTH 600 0
DWIDTH 15 0
BBX 9 10 3 8
BITMAP
1C00
6300
5900
9480
9480
9C80
9480
9300
4100
3E00
ENDCHAR
STARTCHAR 00AF
ENCODING 175
SWIDTH 600 0
DWIDTH 15 0
BBX 7 1 4 15
BITMAP
FE
ENDCHAR
STARTCHAR 00B0
ENCODING 176
SWIDTH 600 0
DWIDTH 15 0
BBX 5 6 5 11
BITMAP
70
88
88
88
88
70
ENDCHAR
STARTCHAR 00B1
ENCODING 177
SWIDTH 600 0
DWIDTH 15 0
BBX 11 14 2 0
BITMAP
0400
0400
0400
0400
0400
FFE0
0400
0400
0400
0400
0400
0000
0000
FFE0
ENDCHAR
STARTCHAR 00B2
ENCODING 178
SWIDTH 600 0
DWIDTH 15 0
BBX 7 10 4 10
BITMAP
38
CC
84
04
04
04
08
10
60
FE
ENDCHAR
STARTCHAR 00B3
ENCODING 179
SWIDTH 600 0
DWIDTH 15 0
BBX 7 11 4 9
BITMAP
38
C4
04
04
0C
38
06
02
82
C4
38
ENDCHAR
STARTCHAR 00B4
ENCODING 180
SWIDTH 600 0
DWIDTH 15 0
BBX 3 4 7 14
BITMAP
20
60
C0
80
ENDCHAR
STARTCHAR 00B5
ENCODING 181
SWIDTH 600 0
DWIDTH 15 0
BBX 11 17 2 -5
BITMAP
C040
C040
C040
C040
C040
C040
C040
C040
C040
C0C0
C140
BE60
8000
8000
8000
8000
8000
ENDCHAR
STARTCHAR 00B6
ENCODING 182
SWIDTH 600 0
DWIDTH 15 0
BBX 10 18 2 -2
BITMAP
3EC0
7EC0
7EC0
FEC0
FEC0
FEC0
FEC0
7EC0
3EC0
1EC0
00C0
00C0
00C0
00C0
00C0
00C0
00C0
00C0
ENDCHAR
STARTCHAR 00B7
ENCODING 183
SWIDTH 600 0
DWIDTH 15 0
BBX 3 3 6 7
BITMAP
E0
E0
E0
ENDCHAR
STARTCHAR 00B8
ENCODING 184
SWIDTH 600 0
DWIDTH 15 0
BBX 3 5 6 -5
BITMAP
40
80
60
20
E0
ENDCHAR
STARTCHAR 00B9
ENCODING 185
SWIDTH 600 0
DWIDTH 15 0
BBX 7 9 5 10
BITMAP
F0
10
10
10
10
10
10
10
FE
ENDCHAR
STARTCHAR 00BA
ENCODING 186
SWIDTH 600 0
DWIDTH 15 0
BBX 7 8 4 10
BITMAP
7C
C6
82
82
82
82
C6
7C
ENDCHAR
STARTCHAR 00BB
ENCODING 187
SWIDTH 600 0
DWIDTH 15 0
BBX 10 9 3 2
BITMAP
8200
8200
4100
2080
1040
30C0
6180
4100
8200
ENDCHAR
STARTCHAR 00BC
ENCODING 188
SWIDTH 600 0
DWIDTH 15 0
BBX 13 15 1 1
BITMAP
7018
1010
1020
1040
1080
1000
1000
0040
0040
1880
10A0
2120
43F8
8020
0020
ENDCHAR
STARTCHAR 00BD
ENCODING 189
SWIDTH 600 0
DWIDTH 15 0
BBX 13 15 1 1
BITMAP
7018
1010
1020
1040
1080
1000
1000
0070
0088
1808
1008
2010
4020
8040
00F8
ENDCHAR
STARTCHAR 00BE
ENCODING 190
SWIDTH 600 0
DWIDTH 15 0
BBX 13 16 2 0
BITMAP
7000
8818
0810
1020
3040
0880
0800
F800
0080
0080
1900
1140
2240
47F0
8040
0040
ENDCHAR
STARTCHAR 00BF
ENCODING 191
SWIDTH 600 0
DWIDTH 15 0
BBX 9 17 3 -5
BITMAP
0C00
1C00
0C00
0000
0000
0400
0400
0800
1800
3000
6000
4000
C000
8000
4000
6180
3E00
ENDCHAR
STARTCHAR 00C0
ENCODING 192
SWIDTH 600 0
DWIDTH 15 0
BBX 13 21 1 0
BITMAP
0800
0400
0200
0000
0000
0200
0500
0500
0500
0880
0880
18C0
1040
1040
3FE0
2020
2020
6030
4010
4010
8018
ENDCHAR
STARTCHAR 00C1
ENCODING 193
SWIDTH 600 0
DWIDTH 15 0
BBX 13 21 1 0
BITMAP
0080
0100
0200
0000
0000
0200
0500
0500
0500
0880
0880
18C0
1040
1040
3FE0
2020
2020
6030
4010
4010
8018
ENDCHAR
STARTCHAR 00C2
ENCODING 194
SWIDTH 600 0
DWIDTH 15 0
BBX 13 21 1 0
BITMAP
0700
0D80
18C0
0000
0000
0200
0500
0500
0500
0880
0880
18C0
1040
1040
3FE0
2020
2020
6030
4010
4010
8018
ENDCHAR
STARTCHAR 00C3
ENCODING 195
SWIDTH 600 0
DWIDTH 15 0
BBX 13 21 1 0
BITMAP
1C20
1240
21C0
0000
0000
0200
0500
0500
0500
0880
0880
18C0
1040
1040
3FE0
2020
2020
6030
4010
4010
8018
ENDCHAR
STARTCHAR 00C4
ENCODING 196
SWIDTH 600 0
DWIDTH 15 0
BBX 13 20 1 0
BITMAP
0880
0880
0000
0000
0200
0500
0500
0500
0880
0880
18C0
1040
1040
3FE0
2020
2020
6030
4010
4010
8018
ENDCHAR
STARTCHAR 00C5
ENCODING 197
SWIDTH 600 0
DWIDTH 15 0
BBX 13 22 1 0
BITMAP
0700
0880
0880
0500
0200
0000
0200
0500
0500
0500
0880
0880
18C0
1040
1040
3FE0
2020
2020
6030
4010
4010
8018
ENDCHAR
STARTCHAR 00C6
ENCODING 198
SWIDTH 600 0
DWIDTH 15 0
BBX 15 16 0 0
BITMAP
01FC
0380
0280
0280
0480
0480
0880
08F8
1080
1080
3F80
2080
2080
4080
4080
80FE
ENDCHAR
STARTCHAR 00C7
ENCODING 199
SWIDTH 600 0
DWIDTH 15 0
BBX 11 22 2 -5
BITMAP
0780
18C0
2020
4000
4000
8000
8000
8000
8000
8000
8000
8000
C000
4000
6000
3060
0FC0
0200
0400
0300
0100
0700
ENDCHAR
STARTCHAR 00C8
ENCODING 200
SWIDTH 600 0
DWIDTH 15 0
BBX 10 21 3 0
BITMAP
1000
0800
0400
0000
0000
FFC0
8000
8000
8000
8000
8000
8000
FF80
8000
8000
8000
8000
8000
8000
8000
FFC0
ENDCHAR
STARTCHAR 00C9
ENCODING 201
SWIDTH 600 0
DWIDTH 15 0
BBX 10 21 3 0
BITMAP
0100
0200
0400
0000
0000
FFC0
8000
8000
8000
8000
8000
8000
FF80
8000
8000
8000
8000
8000
8000
8000
FFC0
ENDCHAR
STARTCHAR 00CA
ENCODING 202
SWIDTH 600 0
DWIDTH 15 0
BBX 10 21 3 0
BITMAP
0E00
1B00
3180
0000
0000
FFC0
8000
8000
8000
8000
8000
8000
FF80
8000
8000
8000
8000
8000
8000
8000
FFC0
ENDCHAR
STARTCHAR 00CB
ENCODING 203
SWIDTH 600 0
DWIDTH 15 0
BBX 10 20 3 0
BITMAP
1100
1100
0000
0000
FFC0
8000
8000
8000
8000
8000
8000
FF80
8000
8000
8000
8000
8000
8000
8000
FFC0
ENDCHAR
STARTCHAR 00CC
ENCODING 204
SWIDTH 600 0
DWIDTH 15 0
BBX 9 21 3 0
BITMAP
2000
1000
0800
0000
0000
FF80
0800
0800
0800
0800
0800
0800
0800
0800
0800
0800
0800
0800
0800
0800
FF80
ENDCHAR
STARTCHAR 00CD
ENCODING 205
SWIDTH 600 0
DWIDTH 15 0
BBX 9 21 3 0
BITMAP
0200
0400
0800
0000
0000
FF80
0800
0800
0800
0800
0800
0800
0800
0800
0800
0800
0800
0800
0800
0800
FF80
ENDCHAR
STARTCHAR 00CE
ENCODING 206
SWIDTH 600 0
DWIDTH 15 0
BBX 9 21 3 0
BITMAP
1C00
3600
6300
0000
0000
FF80
0800
0800
0800
0800
0800
0800
0800
0800
0800
0800
0800
0800
0800
0800
FF80
ENDCHAR
STARTCHAR 00CF
ENCODING 207
SWIDTH 600 0
DWIDTH 15 0
BBX 9 20 3 0
BITMAP
2200
2200
0000
0000
FF80
0800
0800
0800
0800
0800
0800
0800
0800
0800
0800
0800
0800
0800
0800
FF80
ENDCHAR
STARTCHAR 00D0
ENCODING 208
SWIDTH 600 0
DWIDTH 15 0
BBX 14 16 0 0
BITMAP
3FC0
3030
3010
3008
3008
3008
300C
FF0C
300C
300C
3008
3008
3018
3030
3060
3F80
ENDCHAR
STARTCHAR 00D1
ENCODING 209
SWIDTH 600 0
DWIDTH 15 0
BBX 11 21 2 0
BITMAP
3840
2480
4380
0000
0000
C020
A020
A020
9020
9020
8820
8820
8420
8420
8220
8320
8120
80A0
80A0
8060
8060
ENDCHAR
STARTCHAR 00D2
ENCODING 210
SWIDTH 600 0
DWIDTH 15 0
BBX 13 21 1 0
BITMAP
0800
0400
0200
0000
0700
18C0
3060
6030
4010
4010
C010
C018
C018
C018
C018
4010
4010
6030
2020
3040
0F80
ENDCHAR
STARTCHAR 00D3
ENCODING 211
SWIDTH 600 0
DWIDTH 15 0
BBX 13 21 1 0
BITMAP
0080
0100
0200
0000
0700
18C0
3060
6030
4010
4010
C010
C018
C018
C018
C018
4010
4010
6030
2020
3040
0F80
ENDCHAR
STARTCHAR 00D4
ENCODING 212
SWIDTH 600 0
DWIDTH 15 0
BBX 13 21 1 0
BITMAP
0700
0D80
18C0
0000
0700
18C0
3060
6030
4010
4010
C010
C018
C018
C018
C018
4010
4010
6030
2020
3040
0F80
ENDCHAR
STARTCHAR 00D5
ENCODING 213
SWIDTH 600 0
DWIDTH 15 0
BBX 13 21 1 0
BITMAP
1C20
1240
21C0
0000
0700
18C0
3060
6030
4010
4010
C010
C018
C018
C018
C018
4010
4010
6030
2020
3040
0F80
ENDCHAR
STARTCHAR 00D6
ENCODING 214
SWIDTH 600 0
DWIDTH 15 0
BBX 13 20 1 0
BITMAP
0880
0880
0000
0700
18C0
3060
6030
4010
4010
C010
C018
C018
C018
C018
4010
4010
6030
2020
3040
0F80
ENDCHAR
STARTCHAR 00D7
ENCODING 215
SWIDTH 600 0
DWIDTH 15 0
BBX 9 10 3 3
BITMAP
8080
4100
2200
1400
0800
1400
2200
6300
C180
8080
ENDCHAR
STARTCHAR 00D8
ENCODING 216
SWIDTH 600 0
DWIDTH 15 0
BBX 13 17 1 -1
BITMAP
0718
19D0
3060
6070
4050
4090
C190
C118
C218
C618
C418
4810
5810
7030
2020
7040
4F80
ENDCHAR
STARTCHAR 00D9
ENCODING 217
SWIDTH 600 0
DWIDTH 15 0
BBX 11 21 2 0
BITMAP
1000
0800
0400
0000
0000
8020
8020
8020
8020
8020
8020
8020
8020
8020
8020
8020
8020
4040
4040
60C0
3F00
ENDCHAR
STARTCHAR 00DA
ENCODING 218
SWIDTH 600 0
DWIDTH 15 0
BBX 11 21 2 0
BITMAP
0100
0200
0400
0000
0000
8020
8020
8020
8020
8020
8020
8020
8020
8020
8020
8020
8020
4040
4040
60C0
3F00
ENDCHAR
STARTCHAR 00DB
ENCODING 219
SWIDTH 600 0
DWIDTH 15 0
BBX 11 21 2 0
BITMAP
0E00
1B00
3180
0000
0000
8020
8020
8020
8020
8020
8020
8020
8020
8020
8020
8020
8020
4040
4040
60C0
3F00
ENDCHAR
STARTCHAR 00DC
ENCODING 220
SWIDTH 600 0
DWIDTH 15 0
BBX 11 20 2 0
BITMAP
1100
1100
0000
0000
8020
8020
8020
8020
8020
8020
8020
8020
8020
8020
8020
8020
4040
4040
60C0
3F00
ENDCHAR
STARTCHAR 00DD
ENCODING 221
SWIDTH 600 0
DWIDTH 15 0
BBX 11 21 2 0
BITMAP
0100
0200
0400
0000
0000
8020
C020
4040
60C0
2080
1100
1100
0A00
0A00
0400
0400
0400
0400
0400
0400
0400
ENDCHAR
STARTCHAR 00DE
ENCODING 222
SWIDTH 600 0
DWIDTH 15 0
BBX 10 16 3 0
BITMAP
8000
8000
F800
8780
80C0
8040
8040
8040
8040
80C0
8180
FE00
8000
8000
8000
8000
ENDCHAR
STARTCHAR 00DF
ENCODING 223
SWIDTH 600 0
DWIDTH 15 0
BBX 11 18 3 0
BITMAP
3E00
4300
8100
8100
8100
8200
8400
8C00
8800
8C00
8600
8380
80C0
8060
8020
8020
8060
8FC0
ENDCHAR
STARTCHAR 00E0
ENCODING 224
SWIDTH 600 0
DWIDTH 15 0
BBX 11 19 2 0
BITMAP
0800
0C00
0600
0200
0000
0000
0000
1F80
60C0
0040
0060
0060
0FE0
3060
4060
8060
8060
40A0
3F20
ENDCHAR
STARTCHAR 00E1
ENCODING 225
SWIDTH 600 0
DWIDTH 15 0
BBX 11 19 2 0
BITMAP
0080
0180
0300
0200
0000
0000
0000
1F80
60C0
0040
0060
0060
0FE0
3060
4060
8060
8060
40A0
3F20
ENDCHAR
STARTCHAR 00E2
ENCODING 226
SWIDTH 600 0
DWIDTH 15 0
BBX 11 18 2 0
BITMAP
0700
0D80
0880
1040
0000
0000
1F80
60C0
0040
0060
0060
0FE0
3060
4060
8060
8060
40A0
3F20
ENDCHAR
STARTCHAR 00E3
ENCODING 227
SWIDTH 600 0
DWIDTH 15 0
BBX 11 18 2 0
BITMAP
0820
1240
2340
0080
0000
0000
1F80
60C0
0040
0060
0060
0FE0
3060
4060
8060
8060
40A0
3F20
ENDCHAR
STARTCHAR 00E4
ENCODING 228
SWIDTH 600 0
DWIDTH 15 0
BBX 11 17 2 0
BITMAP
18C0
18C0
0000
0000
0000
1F80
60C0
0040
0060
0060
0FE0
3060
4060
8060
8060
40A0
3F20
ENDCHAR
STARTCHAR 00E5
ENCODING 229
SWIDTH 600 0
DWIDTH 15 0
BBX 11 19 2 0
BITMAP
0700
0880
0880
0880
0700
0000
0000
1F80
60C0
0040
0060
0060
0FE0
3060
4060
8060
8060
40A0
3F20
ENDCHAR
STARTCHAR 00E6
ENCODING 230
SWIDTH 600 0
DWIDTH 15 0
BBX 15 12 0 0
BITMAP
3E78
4284
0182
0102
0102
1FFE
2100
4100
C100
C180
4280
7C7C
ENDCHAR
STARTCHAR 00E7
ENCODING 231
SWIDTH 600 0
DWIDTH 15 0
BBX 11 17 2 -5
BITMAP
1FC0
3060
6000
4000
C000
8000
8000
8000
4000
4000
3020
1FC0
0200
0400
0300
0100
0700
ENDCHAR
STARTCHAR 00E8
ENCODING 232
SWIDTH 600 0
DWIDTH 15 0
BBX 11 19 2 0
BITMAP
1000
1800
0C00
0400
0000
0000
0000
1F80
2040
4020
C020
8020
FFE0
8000
8000
C000
4000
2020
1FC0
ENDCHAR
STARTCHAR 00E9
ENCODING 233
SWIDTH 600 0
DWIDTH 15 0
BBX 11 19 2 0
BITMAP
0100
0300
0600
0400
0000
0000
0000
1F80
2040
4020
C020
8020
FFE0
8000
8000
C000
4000
2020
1FC0
ENDCHAR
STARTCHAR 00EA
ENCODING 234
SWIDTH 600 0
DWIDTH 15 0
BBX 11 18 2 0
BITMAP
0E00
1B00
1100
2080
0000
0000
1F80
2040
4020
C020
8020
FFE0
8000
8000
C000
4000
2020
1FC0
ENDCHAR
STARTCHAR 00EB
ENCODING 235
SWIDTH 600 0
DWIDTH 15 0
BBX 11 17 2 0
BITMAP
3180
3180
0000
0000
0000
1F80
2040
4020
C020
8020
FFE0
8000
8000
C000
4000
2020
1FC0
ENDCHAR
STARTCHAR 00EC
ENCODING 236
SWIDTH 600 0
DWIDTH 15 0
BBX 8 19 2 0
BITMAP
08
0C
06
02
00
00
00
FF
03
03
03
03
03
03
03
03
03
03
03
ENDCHAR
STARTCHAR 00ED
ENCODING 237
SWIDTH 600 0
DWIDTH 15 0
BBX 9 19 2 0
BITMAP
0080
0180
0300
0200
0000
0000
0000
FF00
0300
0300
0300
0300
0300
0300
0300
0300
0300
0300
0300
ENDCHAR
STARTCHAR 00EE
ENCODING 238
SWIDTH 600 0
DWIDTH 15 0
BBX 10 18 2 0
BITMAP
0700
0D80
0880
1040
0000
0000
FF00
0300
0300
0300
0300
0300
0300
0300
0300
0300
0300
0300
ENDCHAR
STARTCHAR 00EF
ENCODING 239
SWIDTH 600 0
DWIDTH 15 0
BBX 10 17 2 0
BITMAP
18C0
18C0
0000
0000
0000
FF00
0300
0300
0300
0300
0300
0300
0300
0300
0300
0300
0300
ENDCHAR
STARTCHAR 00F0
ENCODING 240
SWIDTH 600 0
DWIDTH 15 0
BBX 11 18 2 0
BITMAP
1000
0CC0
0300
0D00
3080
0040
0040
1F60
60A0
C060
8020
8020
8020
8020
8020
C040
60C0
3F00
ENDCHAR
STARTCHAR 00F1
ENCODING 241
SWIDTH 600 0
DWIDTH 15 0
BBX 10 18 3 0
BITMAP
2080
4900
8D00
0200
0000
0000
9F00
A080
C0C0
8040
8040
8040
8040
8040
8040
8040
8040
8040
ENDCHAR
STARTCHAR 00F2
ENCODING 242
SWIDTH 600 0
DWIDTH 15 0
BBX 11 19 2 0
BITMAP
1000
1800
0C00
0400
0000
0000
0000
1F00
60C0
4040
8020
8020
8020
8020
8020
8020
4040
60C0
1F00
ENDCHAR
STARTCHAR 00F3
ENCODING 243
SWIDTH 600 0
DWIDTH 15 0
BBX 11 19 2 0
BITMAP
0100
0300
0600
0400
0000
0000
0000
1F00
60C0
4040
8020
8020
8020
8020
8020
8020
4040
60C0
1F00
ENDCHAR
STARTCHAR 00F4
ENCODING 244
SWIDTH 600 0
DWIDTH 15 0
BBX 11 18 2 0
BITMAP
0E00
1B00
1100
2080
0000
0000
1F00
60C0
4040
8020
8020
8020
8020
8020
8020
4040
60C0
1F00
ENDCHAR
STARTCHAR 00F5
ENCODING 245
SWIDTH 600 0
DWIDTH 15 0
BBX 11 18 2 0
BITMAP
1040
2480
4680
0100
0000
0000
1F00
60C0
4040
8020
8020
8020
8020
8020
8020
4040
60C0
1F00
ENDCHAR
STARTCHAR 00F6
ENCODING 246
SWIDTH 600 0
DWIDTH 15 0
BBX 11 17 2 0
BITMAP
3180
3180
0000
0000
0000
1F00
60C0
4040
8020
8020
8020
8020
8020
8020
4040
60C0
1F00
ENDCHAR
STARTCHAR 00F7
ENCODING 247
SWIDTH 600 0
DWIDTH 15 0
BBX 11 11 2 3
BITMAP
0400
0400
0000
0000
0000
FFE0
0000
0000
0000
0400
0400
ENDCHAR
STARTCHAR 00F8
ENCODING 248
SWIDTH 600 0
DWIDTH 15 0
BBX 11 13 2 0
BITMAP
1F20
60C0
40C0
8120
8220
8620
8C20
8820
9020
6040
60C0
BF80
8000
ENDCHAR
STARTCHAR 00F9
ENCODING 249
SWIDTH 600 0
DWIDTH 15 0
BBX 10 19 2 0
BITMAP
1000
1800
0C00
0400
0000
0000
0000
8040
8040
8040
8040
8040
8040
8040
8040
8040
C0C0
4140
3E40
ENDCHAR
STARTCHAR 00FA
ENCODING 250
SWIDTH 600 0
DWIDTH 15 0
BBX 10 19 2 0
BITMAP
0100
0300
0600
0400
0000
0000
0000
8040
8040
8040
8040
8040
8040
8040
8040
8040
C0C0
4140
3E40
ENDCHAR
STARTCHAR 00FB
ENCODING 251
SWIDTH 600 0
DWIDTH 15 0
BBX 10 18 2 0
BITMAP
0E00
1B00
1100
2080
0000
0000
8040
8040
8040
8040
8040
8040
8040
8040
8040
C0C0
4140
3E40
ENDCHAR
STARTCHAR 00FC
ENCODING 252
SWIDTH 600 0
DWIDTH 15 0
BBX 10 17 2 0
BITMAP
3180
3180
0000
0000
0000
8040
8040
8040
8040
8040
8040
8040
8040
8040
C0C0
4140
3E40
ENDCHAR
STARTCHAR 00FD
ENCODING 253
SWIDTH 600 0
DWIDTH 15 0
BBX 11 24 2 -5
BITMAP
0100
0300
0600
0400
0000
0000
0000
8020
8020
4040
4040
2040
2080
1080
1100
0900
0B00
0600
0600
0400
0400
0800
1800
F000
ENDCHAR
STARTCHAR 00FE
ENCODING 254
SWIDTH 600 0
DWIDTH 15 0
BBX 10 23 3 -5
BITMAP
8000
8000
8000
8000
8000
8000
BF00
C080
80C0
8040
8040
8040
8040
8040
8040
8080
C180
BF00
8000
8000
8000
8000
8000
ENDCHAR
STARTCHAR 00FF
ENCODING 255
SWIDTH 600 0
DWIDTH 15 0
BBX 11 22 2 -5
BITMAP
3180
3180
0000
0000
0000
8020
8020
4040
4040
2040
2080
1080
1100
0900
0B00
0600
0600
0400
0400
0800
1800
F000
ENDCHAR
STARTCHAR 0100
ENCODING 256
SWIDTH 600 0
DWIDTH 15 0
BBX 13 19 1 0
BITMAP
0F80
0000
0000
0200
0500
0500
0500
0880
0880
18C0
1040
1040
3FE0
2020
2020
6030
4010
4010
8018
ENDCHAR
STARTCHAR 0101
ENCODING 257
SWIDTH 600 0
DWIDTH 15 0
BBX 11 16 2 0
BITMAP
1FC0
0000
0000
0000
1F80
60C0
0040
0060
0060
0FE0
3060
4060
8060
8060
40A0
3F20
ENDCHAR
STARTCHAR 0102
ENCODING 258
SWIDTH 600 0
DWIDTH 15 0
BBX 13 21 1 0
BITMAP
1040
1080
0F80
0000
0000
0200
0500
0500
0500
0880
0880
18C0
1040
1040
3FE0
2020
2020
6030
4010
4010
8018
ENDCHAR
STARTCHAR 0103
ENCODING 259
SWIDTH 600 0
DWIDTH 15 0
BBX 11 18 2 0
BITMAP
1040
1040
0880
0700
0000
0000
1F80
60C0
0040
0060
0060
0FE0
3060
4060
8060
8060
40A0
3F20
ENDCHAR
STARTCHAR 0104
ENCODING 260
SWIDTH 600 0
DWIDTH 15 0
BBX 14 22 1 -6
BITMAP
0200
0500
0500
0500
0880
0880
18C0
1040
1040
3FE0
2020
2020
6030
4010
4010
8018
0010
0020
0020
0020
0034
0018
ENDCHAR
STARTCHAR 0105
ENCODING 261
SWIDTH 600 0
DWIDTH 15 0
BBX 11 18 2 -6
BITMAP
1F80
60C0
0040
0060
0060
0FE0
3060
4060
8060
8060
40A0
3F20
0040
0080
0100
0100
0180
0060
ENDCHAR
STARTCHAR 0106
ENCODING 262
SWIDTH 600 0
DWIDTH 15 0
BBX 11 21 2 0
BITMAP
0080
0100
0200
0000
0780
18C0
2020
4000
4000
8000
8000
8000
8000
8000
8000
8000
C000
4000
6000
3060
0FC0
ENDCHAR
STARTCHAR 0107
ENCODING 263
SWIDTH 600 0
DWIDTH 15 0
BBX 11 19 2 0
BITMAP
0080
0180
0300
0200
0000
0000
0000
1FC0
3060
6000
4000
C000
8000
8000
8000
4000
4000
3020
1FC0
ENDCHAR
STARTCHAR 0108
ENCODING 264
SWIDTH 600 0
DWIDTH 15 0
BBX 11 21 2 0
BITMAP
0700
0D80
18C0
0000
0780
18C0
2020
4000
4000
8000
8000
8000
8000
8000
8000
8000
C000
4000
6000
3060
0FC0
ENDCHAR
STARTCHAR 0109
ENCODING 265
SWIDTH 600 0
DWIDTH 15 0
BBX 11 18 2 0
BITMAP
0700
0D80
0880
1040
0000
0000
1FC0
3060
6000
4000
C000
8000
8000
8000
4000
4000
3020
1FC0
ENDCHAR
STARTCHAR 010A
ENCODING 266
SWIDTH 600 0
DWIDTH 15 0
BBX 11 20 2 0
BITMAP
0200
0200
0000
0780
18C0
2020
4000
4000
8000
8000
8000
8000
8000
8000
8000
C000
4000
6000
3060
0FC0
ENDCHAR
STARTCHAR 010B
ENCODING 267
SWIDTH 600 0
DWIDTH 15 0
BBX 11 17 2 0
BITMAP
0700
0700
0000
0000
0000
1FC0
3060
6000
4000
C000
8000
8000
8000
4000
4000
3020
1FC0
ENDCHAR
STARTCHAR 010C
ENCODING 268
SWIDTH 600 0
DWIDTH 15 0
BBX 11 21 2 0
BITMAP
1040
0880
0700
0000
0780
18C0
2020
4000
4000
8000
8000
8000
8000
8000
8000
8000
C000
4000
6000
3060
0FC0
ENDCHAR
STARTCHAR 010D
ENCODING 269
SWIDTH 600 0
DWIDTH 15 0
BBX 11 18 2 0
BITMAP
1040
0880
0500
0200
0000
0000
1FC0
3060
6000
4000
C000
8000
8000
8000
4000
4000
3020
1FC0
ENDCHAR
STARTCHAR 010E
ENCODING 270
SWIDTH 600 0
DWIDTH 15 0
BBX 12 21 2 0
BITMAP
2080
1100
0E00
0000
0000
FF00
C0C0
C040
C020
C020
C020
C030
C030
C030
C030
C020
C020
C060
C0C0
C180
FE00
ENDCHAR
STARTCHAR 010F
ENCODING 271
SWIDTH 600 0
DWIDTH 15 0
BBX 13 20 2 0
BITMAP
0008
0008
0048
0048
0048
0048
0040
0040
3F40
60C0
4040
8040
8040
8040
8040
8040
8040
C040
61C0
3E40
ENDCHAR
STARTCHAR 0110
ENCODING 272
SWIDTH 600 0
DWIDTH 15 0
BBX 14 16 0 0
BITMAP
3FC0
3030
3010
3008
3008
3008
300C
FF0C
300C
300C
3008
3008
3018
3030
3060
3F80
ENDCHAR
STARTCHAR 0111
ENCODING 273
SWIDTH 600 0
DWIDTH 15 0
BBX 12 18 2 0
BITMAP
0040
0040
0040
07F0
0040
0040
0E40
31C0
4040
C040
8040
8040
8040
8040
8040
C040
60C0
3F40
ENDCHAR
STARTCHAR 0112
ENCODING 274
SWIDTH 600 0
DWIDTH 15 0
BBX 10 19 3 0
BITMAP
1F00
0000
0000
FFC0
8000
8000
8000
8000
8000
8000
FF80
8000
8000
8000
8000
8000
8000
8000
FFC0
ENDCHAR
STARTCHAR 0113
ENCODING 275
SWIDTH 600 0
DWIDTH 15 0
BBX 11 16 2 0
BITMAP
3F80
0000
0000
0000
1F80
2040
4020
C020
8020
FFE0
8000
8000
C000
4000
2020
1FC0
ENDCHAR
STARTCHAR 0114
ENCODING 276
SWIDTH 600 0
DWIDTH 15 0
BBX 10 21 3 0
BITMAP
2080
2100
1F00
0000
0000
FFC0
8000
8000
8000
8000
8000
8000
FF80
8000
8000
8000
8000
8000
8000
8000
FFC0
ENDCHAR
STARTCHAR 0115
ENCODING 277
SWIDTH 600 0
DWIDTH 15 0
BBX 11 18 2 0
BITMAP
2080
2080
1100
0E00
0000
0000
1F80
2040
4020
C020
8020
FFE0
8000
8000
C000
4000
2020
1FC0
ENDCHAR
STARTCHAR 0116
ENCODING 278
SWIDTH 600 0
DWIDTH 15 0
BBX 10 20 3 0
BITMAP
0400
0400
0000
0000
FFC0
8000
8000
8000
8000
8000
8000
FF80
8000
8000
8000
8000
8000
8000
8000
FFC0
ENDCHAR
STARTCHAR 0117
ENCODING 279
SWIDTH 600 0
DWIDTH 15 0
BBX 11 17 2 0
BITMAP
0E00
0E00
0000
0000
0000
1F80
2040
4020
C020
8020
FFE0
8000
8000
C000
4000
2020
1FC0
ENDCHAR
STARTCHAR 0118
ENCODING 280
SWIDTH 600 0
DWIDTH 15 0
BBX 11 22 3 -6
BITMAP
FFC0
8000
8000
8000
8000
8000
8000
FF80
8000
8000
8000
8000
8000
8000
8000
FFC0
0080
0100
0200
0200
0120
00C0
ENDCHAR
STARTCHAR 0119
ENCODING 281
SWIDTH 600 0
DWIDTH 15 0
BBX 11 18 2 -6
BITMAP
1F80
2040
4020
C020
8020
FFE0
8000
8000
C000
4000
2020
1FC0
0080
0100
0200
0200
0120
00C0
ENDCHAR
STARTCHAR 011A
ENCODING 282
SWIDTH 600 0
DWIDTH 15 0
BBX 10 21 3 0
BITMAP
2080
1100
0E00
0000
0000
FFC0
8000
8000
8000
8000
8000
8000
FF80
8000
8000
8000
8000
8000
8000
8000
FFC0
ENDCHAR
STARTCHAR 011B
ENCODING 283
SWIDTH 600 0
DWIDTH 15 0
BBX 11 18 2 0
BITMAP
2080
1100
0A00
0400
0000
0000
1F80
2040
4020
C020
8020
FFE0
8000
8000
C000
4000
2020
1FC0
ENDCHAR
STARTCHAR 011C
ENCODING 284
SWIDTH 600 0
DWIDTH 15 0
BBX 12 21 1 0
BITMAP
0380
06C0
0C60
0000
0380
0C60
3010
2000
6000
4000
4000
4000
C000
C1F0
4010
4010
4010
6010
2010
1830
0FE0
ENDCHAR
STARTCHAR 011D
ENCODING 285
SWIDTH 600 0
DWIDTH 15 0
BBX 12 24 2 -6
BITMAP
0E00
1B00
1100
2080
0000
0000
1FF0
2080
4080
4040
4040
40C0
2080
3F00
4000
4000
6000
3FE0
4030
8010
8010
C020
60C0
1F00
ENDCHAR
STARTCHAR 011E
ENCODING 286
SWIDTH 600 0
DWIDTH 15 0
BBX 12 21 1 0
BITMAP
0820
0840
07C0
0000
0380
0C60
3010
2000
6000
4000
4000
4000
C000
C1F0
4010
4010
4010
6010
2010
1830
0FE0
ENDCHAR
STARTCHAR 011F
ENCODING 287
SWIDTH 600 0
DWIDTH 15 0
BBX 12 24 2 -6
BITMAP
2080
2080
1100
0E00
0000
0000
1FF0
2080
4080
4040
4040
40C0
2080
3F00
4000
4000
6000
3FE0
4030
8010
8010
C020
60C0
1F00
ENDCHAR
STARTCHAR 0120
ENCODING 288
SWIDTH 600 0
DWIDTH 15 0
BBX 12 20 1 0
BITMAP
0100
0100
0000
0380
0C60
3010
2000
6000
4000
4000
4000
C000
C1F0
4010
4010
4010
6010
2010
1830
0FE0
ENDCHAR
STARTCHAR 0121
ENCODING 289
SWIDTH 600 0
DWIDTH 15 0
BBX 12 23 2 -6
BITMAP
0E00
0E00
0000
0000
0000
1FF0
2080
4080
4040
4040
40C0
2080
3F00
4000
4000
6000
3FE0
4030
8010
8010
C020
60C0
1F00
ENDCHAR
STARTCHAR 0122
ENCODING 290
SWIDTH 600 0
DWIDTH 15 0
BBX 12 22 1 -5
BITMAP
0380
0C60
3010
2000
6000
4000
4000
4000
C000
C1F0
4010
4010
4010
6010
2010
1830
0FE0
0000
0000
0180
0080
0380
ENDCHAR
STARTCHAR 0123
ENCODING 291
SWIDTH 600 0
DWIDTH 15 0
BBX 12 24 2 -6
BITMAP
0E00
0800
0800
0400
0000
0000
1FF0
2080
4080
4040
4040
40C0
2080
3F00
4000
4000
6000
3FE0
4030
8010
8010
C020
60C0
1F00
ENDCHAR
STARTCHAR 0124
ENCODING 292
SWIDTH 600 0
DWIDTH 15 0
BBX 11 21 2 0
BITMAP
0E00
1B00
3180
0000
0000
8020
8020
8020
8020
8020
8020
8020
FFE0
8020
8020
8020
8020
8020
8020
8020
8020
ENDCHAR
STARTCHAR 0125
ENCODING 293
SWIDTH 600 0
DWIDTH 15 0
BBX 13 23 0 0
BITMAP
3800
6C00
C600
0000
0000
1000
1000
1000
1000
1000
1000
13E0
1410
1818
1008
1008
1008
1008
1008
1008
1008
1008
1008
ENDCHAR
STARTCHAR 0126
ENCODING 294
SWIDTH 600 0
DWIDTH 15 0
BBX 15 16 0 0
BITMAP
2008
2008
2008
FFFE
2008
2008
2008
3FF8
2008
2008
2008
2008
2008
2008
2008
2008
ENDCHAR
STARTCHAR 0127
ENCODING 295
SWIDTH 600 0
DWIDTH 15 0
BBX 12 18 1 0
BITMAP
2000
2000
2000
FF00
2000
2000
2380
2C60
3020
2010
2010
2010
2010
2010
2010
2010
2010
2010
ENDCHAR
STARTCHAR 0128
ENCODING 296
SWIDTH 600 0
DWIDTH 15 0
BBX 9 21 3 0
BITMAP
7080
4900
8700
0000
0000
FF80
0800
0800
0800
0800
0800
0800
0800
0800
0800
0800
0800
0800
0800
0800
FF80
ENDCHAR
STARTCHAR 0129
ENCODING 297
SWIDTH 600 0
DWIDTH 15 0
BBX 11 18 2 0
BITMAP
0820
1240
2340
0080
0000
0000
FF00
0300
0300
0300
0300
0300
0300
0300
0300
0300
0300
0300
ENDCHAR
STARTCHAR 012A
ENCODING 298
SWIDTH 600 0
DWIDTH 15 0
BBX 9 19 3 0
BITMAP
3E00
0000
0000
FF80
0800
0800
0800
0800
0800
0800
0800
0800
0800
0800
0800
0800
0800
0800
FF80
ENDCHAR
STARTCHAR 012B
ENCODING 299
SWIDTH 600 0
DWIDTH 15 0
BBX 10 16 2 0
BITMAP
1FC0
0000
0000
0000
FF00
0300
0300
0300
0300
0300
0300
0300
0300
0300
0300
0300
ENDCHAR
STARTCHAR 012C
ENCODING 300
SWIDTH 600 0
DWIDTH 15 0
BBX 9 21 3 0
BITMAP
4100
4200
3E00
0000
0000
FF80
0800
0800
0800
0800
0800
0800
0800
0800
0800
0800
0800
0800
0800
0800
FF80
ENDCHAR
STARTCHAR 012D
ENCODING 301
SWIDTH 600 0
DWIDTH 15 0
BBX 10 18 2 0
BITMAP
1040
1040
0880
0700
0000
0000
FF00
0300
0300
0300
0300
0300
0300
0300
0300
0300
0300
0300
ENDCHAR
STARTCHAR 012E
ENCODING 302
SWIDTH 600 0
DWIDTH 15 0
BBX 9 22 3 -6
BITMAP
FF80
0800
0800
0800
0800
0800
0800
0800
0800
0800
0800
0800
0800
0800
0800
FF80
0800
1000
1000
2000
1200
0C00
ENDCHAR
STARTCHAR 012F
ENCODING 303
SWIDTH 600 0
DWIDTH 15 0
BBX 9 23 2 -6
BITMAP
0700
0700
0000
0000
0000
FF00
0300
0300
0300
0300
0300
0300
0300
0300
0300
0300
0300
0200
0400
0400
0800
0480
0300
ENDCHAR
STARTCHAR 0130
ENCODING 304
SWIDTH 600 0
DWIDTH 15 0
BBX 9 20 3 0
BITMAP
0800
0800
0000
0000
FF80
0800
0800
0800
0800
0800
0800
0800
0800
0800
0800
0800
0800
0800
0800
FF80
ENDCHAR
STARTCHAR 0131
ENCODING 305
SWIDTH 600 0
DWIDTH 15 0
BBX 8 12 2 0
BITMAP
FF
03
03
03
03
03
03
03
03
03
03
03
ENDCHAR
STARTCHAR 0132
ENCODING 306
SWIDTH 600 0
DWIDTH 15 0
BBX 9 20 3 -4
BITMAP
C180
C180
C180
C180
C180
C180
C180
C180
C180
C180
C180
C180
C180
C180
C180
C180
0180
0180
0100
0E00
ENDCHAR
STARTCHAR 0133
ENCODING 307
SWIDTH 600 0
DWIDTH 15 0
BBX 10 23 3 -6
BITMAP
C0C0
C0C0
0000
0000
0000
8080
8080
8080
8080
8080
8080
8080
8080
8080
8080
8080
8080
0080
0080
0080
0080
0180
0700
ENDCHAR
STARTCHAR 0134
ENCODING 308
SWIDTH 600 0
DWIDTH 15 0
BBX 10 21 2 0
BITMAP
0700
0D80
18C0
0000
3FC0
0040
0040
0040
0040
0040
0040
0040
0040
0040
0040
0040
0040
0040
C0C0
6080
3F00
ENDCHAR
STARTCHAR 0135
ENCODING 309
SWIDTH 600 0
DWIDTH 15 0
BBX 10 24 2 -6
BITMAP
0700
0D80
0880
1040
0000
0000
FF00
0300
0300
0300
0300
0300
0300
0300
0300
0300
0300
0300
0300
0300
0200
0200
8400
7800
ENDCHAR
STARTCHAR 0136
ENCODING 310
SWIDTH 600 0
DWIDTH 15 0
BBX 11 21 3 -5
BITMAP
80C0
8180
8100
8200
8400
8800
9C00
B400
E200
C200
8100
8180
8080
8040
8040
8020
0000
0000
0600
0200
0E00
ENDCHAR
STARTCHAR 0137
ENCODING 311
SWIDTH 600 0
DWIDTH 15 0
BBX 11 23 3 -5
BITMAP
8000
8000
8000
8000
8000
8000
80C0
8180
8300
8600
8C00
9C00
A200
C300
8100
8080
8040
8020
0000
0000
0600
0200
0E00
ENDCHAR
STARTCHAR 0138
ENCODING 312
SWIDTH 600 0
DWIDTH 15 0
BBX 11 12 3 0
BITMAP
80C0
8180
8300
8600
8C00
9C00
A200
C300
8100
8080
8040
8020
ENDCHAR
STARTCHAR 0139
ENCODING 313
SWIDTH 600 0
DWIDTH 15 0
BBX 9 21 4 0
BITMAP
2000
4000
8000
0000
0000
8000
8000
8000
8000
8000
8000
8000
8000
8000
8000
8000
8000
8000
8000
8000
FF80
ENDCHAR
STARTCHAR 013A
ENCODING 314
SWIDTH 600 0
DWIDTH 15 0
BBX 11 23 2 0
BITMAP
0100
0200
0400
0000
0000
FC00
0400
0400
0400
0400
0400
0400
0400
0400
0400
0400
0400
0400
0400
0400
0400
0400
03E0
ENDCHAR
STARTCHAR 013B
ENCODING 315
SWIDTH 600 0
DWIDTH 15 0
BBX 9 21 4 -5
BITMAP
8000
8000
8000
8000
8000
8000
8000
8000
8000
8000
8000
8000
8000
8000
8000
FF80
0000
0000
0C00
0400
1C00
ENDCHAR
STARTCHAR 013C
ENCODING 316
SWIDTH 600 0
DWIDTH 15 0
BBX 11 23 2 -5
BITMAP
FC00
0400
0400
0400
0400
0400
0400
0400
0400
0400
0400
0400
0400
0400
0400
0400
0400
03E0
0000
0000
0180
0080
0380
ENDCHAR
STARTCHAR 013D
ENCODING 317
SWIDTH 600 0
DWIDTH 15 0
BBX 9 19 4 0
BITMAP
0200
0200
0200
8200
8200
8200
8000
8000
8000
8000
8000
8000
8000
8000
8000
8000
8000
8000
FF80
ENDCHAR
STARTCHAR 013E
ENCODING 318
SWIDTH 600 0
DWIDTH 15 0
BBX 11 20 2 0
BITMAP
0080
0080
FC80
0480
0480
0480
0400
0400
0400
0400
0400
0400
0400
0400
0400
0400
0400
0400
0400
03E0
ENDCHAR
STARTCHAR 013F
ENCODING 319
SWIDTH 600 0
DWIDTH 15 0
BBX 9 16 4 0
BITMAP
8000
8000
8000
8000
8000
8000
8380
8380
8000
8000
8000
8000
8000
8000
8000
FF80
ENDCHAR
STARTCHAR 0140
ENCODING 320
SWIDTH 600 0
DWIDTH 15 0
BBX 15 18 1 0
BITMAP
FC00
0400
0400
0400
0400
0400
0400
0400
040E
040E
0400
0400
0400
0400
0400
0400
0400
03E0
ENDCHAR
STARTCHAR 0141
ENCODING 321
SWIDTH 600 0
DWIDTH 15 0
BBX 12 16 1 0
BITMAP
1000
1000
1000
1000
1000
1040
1180
1600
1800
7000
9000
1000
1000
1000
1000
1FF0
ENDCHAR
STARTCHAR 0142
ENCODING 322
SWIDTH 600 0
DWIDTH 15 0
BBX 11 18 2 0
BITMAP
FC00
0400
0400
0400
0400
0440
0580
0600
0C00
3400
0400
0400
0400
0400
0400
0400
0400
03E0
ENDCHAR
STARTCHAR 0143
ENCODING 323
SWIDTH 600 0
DWIDTH 15 0
BBX 11 21 2 0
BITMAP
0100
0200
0400
0000
0000
C020
A020
A020
9020
9020
8820
8820
8420
8420
8220
8320
8120
80A0
80A0
8060
8060
ENDCHAR
STARTCHAR 0144
ENCODING 324
SWIDTH 600 0
DWIDTH 15 0
BBX 10 19 3 0
BITMAP
0200
0600
0C00
0800
0000
0000
0000
9F00
A080
C0C0
8040
8040
8040
8040
8040
8040
8040
8040
8040
ENDCHAR
STARTCHAR 0145
ENCODING 325
SWIDTH 600 0
DWIDTH 15 0
BBX 11 21 2 -5
BITMAP
C020
A020
A020
9020
9020
8820
8820
8420
8420
8220
8320
8120
80A0
80A0
8060
8060
0000
0000
0600
0200
0E00
ENDCHAR
STARTCHAR 0146
ENCODING 326
SWIDTH 600 0
DWIDTH 15 0
BBX 10 17 3 -5
BITMAP
9F00
A080
C0C0
8040
8040
8040
8040
8040
8040
8040
8040
8040
0000
0000
0C00
0400
1C00
ENDCHAR
STARTCHAR 0147
ENCODING 327
SWIDTH 600 0
DWIDTH 15 0
BBX 11 21 2 0
BITMAP
2080
1100
0E00
0000
0000
C020
A020
A020
9020
9020
8820
8820
8420
8420
8220
8320
8120
80A0
80A0
8060
8060
ENDCHAR
STARTCHAR 0148
ENCODING 328
SWIDTH 600 0
DWIDTH 15 0
BBX 10 18 3 0
BITMAP
4100
2200
1400
0800
0000
0000
9F00
A080
C0C0
8040
8040
8040
8040
8040
8040
8040
8040
8040
ENDCHAR
STARTCHAR 0149
ENCODING 329
SWIDTH 600 0
DWIDTH 15 0
BBX 14 17 0 1
BITMAP
E000
E000
6000
2000
2000
44F8
C70C
0404
0404
0404
0404
0404
0404
0404
0404
0404
0404
ENDCHAR
STARTCHAR 014A
ENCODING 330
SWIDTH 600 0
DWIDTH 15 0
BBX 12 17 2 0
BITMAP
0600
D980
E040
C020
C020
C020
C030
C030
C030
C030
C030
C020
C020
C020
C020
C040
C3C0
ENDCHAR
STARTCHAR 014B
ENCODING 331
SWIDTH 600 0
DWIDTH 15 0
BBX 10 17 3 -5
BITMAP
9F00
A080
C0C0
8040
8040
8040
8040
8040
8040
8040
8040
8040
0040
0040
00C0
0580
0200
ENDCHAR
STARTCHAR 014C
ENCODING 332
SWIDTH 600 0
DWIDTH 15 0
BBX 13 19 1 0
BITMAP
0F80
0000
0700
18C0
3060
6030
4010
4010
C010
C018
C018
C018
C018
4010
4010
6030
2020
3040
0F80
ENDCHAR
STARTCHAR 014D
ENCODING 333
SWIDTH 600 0
DWIDTH 15 0
BBX 11 16 2 0
BITMAP
3F80
0000
0000
0000
1F00
60C0
4040
8020
8020
8020
8020
8020
8020
4040
60C0
1F00
ENDCHAR
STARTCHAR 014E
ENCODING 334
SWIDTH 600 0
DWIDTH 15 0
BBX 13 21 1 0
BITMAP
1040
1080
0F80
0000
0700
18C0
3060
6030
4010
4010
C010
C018
C018
C018
C018
4010
4010
6030
2020
3040
0F80
ENDCHAR
STARTCHAR 014F
ENCODING 335
SWIDTH 600 0
DWIDTH 15 0
BBX 11 18 2 0
BITMAP
2080
2080
1100
0E00
0000
0000
1F00
60C0
4040
8020
8020
8020
8020
8020
8020
4040
60C0
1F00
ENDCHAR
STARTCHAR 0150
ENCODING 336
SWIDTH 600 0
DWIDTH 15 0
BBX 13 22 1 0
BITMAP
0200
0640
0480
0880
0000
0700
18C0
3060
6030
4010
4010
C010
C018
C018
C018
C018
4010
4010
6030
2020
3040
0F80
ENDCHAR
STARTCHAR 0151
ENCODING 337
SWIDTH 600 0
DWIDTH 15 0
BBX 11 19 2 0
BITMAP
0400
0480
0880
0900
1100
0000
0000
1F00
60C0
4040
8020
8020
8020
8020
8020
8020
4040
60C0
1F00
ENDCHAR
STARTCHAR 0152
ENCODING 338
SWIDTH 600 0
DWIDTH 15 0
BBX 14 17 1 0
BITMAP
01F8
1F00
2100
4100
4100
C100
8100
8100
81F0
8100
8100
8100
4100
4100
6100
3100
0FFC
ENDCHAR
STARTCHAR 0153
ENCODING 339
SWIDTH 600 0
DWIDTH 15 0
BBX 15 12 0 0
BITMAP
3C78
6244
4182
4182
8182
81FE
8100
8100
4180
4180
6240
3C7C
ENDCHAR
STARTCHAR 0154
ENCODING 340
SWIDTH 600 0
DWIDTH 15 0
BBX 10 21 3 0
BITMAP
0200
0400
0800
0000
0000
FF80
8080
8040
8040
8040
8040
8080
FF00
8400
8600
8200
8300
8100
8080
8080
8040
ENDCHAR
STARTCHAR 0155
ENCODING 341
SWIDTH 600 0
DWIDTH 15 0
BBX 9 19 4 0
BITMAP
0200
0600
0C00
0800
0000
0000
0000
8F80
B000
A000
C000
8000
8000
8000
8000
8000
8000
8000
8000
ENDCHAR
STARTCHAR 0156
ENCODING 342
SWIDTH 600 0
DWIDTH 15 0
BBX 10 21 3 -5
BITMAP
FF80
8080
8040
8040
8040
8040
8080
FF00
8400
8600
8200
8300
8100
8080
8080
8040
0000
0000
0600
0200
0E00
ENDCHAR
STARTCHAR 0157
ENCODING 343
SWIDTH 600 0
DWIDTH 15 0
BBX 10 17 3 -5
BITMAP
47C0
5800
5000
6000
4000
4000
4000
4000
4000
4000
4000
4000
0000
0000
6000
2000
E000
ENDCHAR
STARTCHAR 0158
ENCODING 344
SWIDTH 600 0
DWIDTH 15 0
BBX 10 21 3 0
BITMAP
4100
2200
1C00
0000
0000
FF80
8080
8040
8040
8040
8040
8080
FF00
8400
8600
8200
8300
8100
8080
8080
8040
ENDCHAR
STARTCHAR 0159
ENCODING 345
SWIDTH 600 0
DWIDTH 15 0
BBX 9 18 4 0
BITMAP
4100
2200
1400
0800
0000
0000
8F80
B000
A000
C000
8000
8000
8000
8000
8000
8000
8000
8000
ENDCHAR
STARTCHAR 015A
ENCODING 346
SWIDTH 600 0
DWIDTH 15 0
BBX 11 21 2 0
BITMAP
0100
0200
0400
0000
0F00
31C0
6040
4000
4000
4000
2000
1800
0700
0180
0040
0020
0020
0020
8020
6040
3F80
ENDCHAR
STARTCHAR 015B
ENCODING 347
SWIDTH 600 0
DWIDTH 15 0
BBX 11 19 2 0
BITMAP
0100
0300
0600
0400
0000
0000
0000
3F80
4040
4000
4000
6000
1E00
0180
0060
0020
0020
C040
3F80
ENDCHAR
STARTCHAR 015C
ENCODING 348
SWIDTH 600 0
DWIDTH 15 0
BBX 11 21 2 0
BITMAP
0E00
1B00
3180
0000
0F00
31C0
6040
4000
4000
4000
2000
1800
0700
0180
0040
0020
0020
0020
8020
6040
3F80
ENDCHAR
STARTCHAR 015D
ENCODING 349
SWIDTH 600 0
DWIDTH 15 0
BBX 11 18 2 0
BITMAP
0E00
1B00
1100
2080
0000
0000
3F80
4040
4000
4000
6000
1E00
0180
0060
0020
0020
C040
3F80
ENDCHAR
STARTCHAR 015E
ENCODING 350
SWIDTH 600 0
DWIDTH 15 0
BBX 11 22 2 -5
BITMAP
0F00
31C0
6040
4000
4000
4000
2000
1800
0700
0180
0040
0020
0020
0020
8020
6040
3F80
0200
0400
0300
0100
0700
ENDCHAR
STARTCHAR 015F
ENCODING 351
SWIDTH 600 0
DWIDTH 15 0
BBX 11 17 2 -5
BITMAP
3F80
4040
4000
4000
6000
1E00
0180
0060
0020
0020
C040
3F80
0400
0800
0600
0200
0E00
ENDCHAR
STARTCHAR 0160
ENCODING 352
SWIDTH 600 0
DWIDTH 15 0
BBX 11 21 2 0
BITMAP
2080
1100
0E00
0000
0F00
31C0
6040
4000
4000
4000
2000
1800
0700
0180
0040
0020
0020
0020
8020
6040
3F80
ENDCHAR
STARTCHAR 0161
ENCODING 353
SWIDTH 600 0
DWIDTH 15 0
BBX 11 18 2 0
BITMAP
2080
1100
0A00
0400
0000
0000
3F80
4040
4000
4000
6000
1E00
0180
0060
0020
0020
C040
3F80
ENDCHAR
STARTCHAR 0162
ENCODING 354
SWIDTH 600 0
DWIDTH 15 0
BBX 13 21 1 -5
BITMAP
FFF8
0200
0200
0200
0200
0200
0200
0200
0200
0200
0200
0200
0200
0200
0200
0200
0200
0400
0300
0100
0700
ENDCHAR
STARTCHAR 0163
ENCODING 355
SWIDTH 600 0
DWIDTH 15 0
BBX 12 21 2 -5
BITMAP
0800
0800
0800
0800
FFE0
0800
0800
0800
0800
0800
0800
0800
0800
0800
0C00
07F0
0100
0200
0180
0080
0380
ENDCHAR
STARTCHAR 0164
ENCODING 356
SWIDTH 600 0
DWIDTH 15 0
BBX 13 21 1 0
BITMAP
1040
0880
0700
0000
0000
FFF8
0200
0200
0200
0200
0200
0200
0200
0200
0200
0200
0200
0200
0200
0200
0200
ENDCHAR
STARTCHAR 0165
ENCODING 357
SWIDTH 600 0
DWIDTH 15 0
BBX 12 20 2 0
BITMAP
0040
0040
0040
0040
0840
0840
0800
0800
FFE0
0800
0800
0800
0800
0800
0800
0800
0800
0800
0C00
07F0
ENDCHAR
STARTCHAR 0166
ENCODING 358
SWIDTH 600 0
DWIDTH 15 0
BBX 13 16 1 0
BITMAP
FFF8
0200
0200
0200
0200
0200
0200
3FE0
0200
0200
0200
0200
0200
0200
0200
0200
ENDCHAR
STARTCHAR 0167
ENCODING 359
SWIDTH 600 0
DWIDTH 15 0
BBX 12 16 2 0
BITMAP
0800
0800
0800
0800
FFE0
0800
0800
0800
0800
FFE0
0800
0800
0800
0800
0C00
07F0
ENDCHAR
STARTCHAR 0168
ENCODING 360
SWIDTH 600 0
DWIDTH 15 0
BBX 11 21 2 0
BITMAP
3840
2480
4380
0000
0000
8020
8020
8020
8020
8020
8020
8020
8020
8020
8020
8020
8020
4040
4040
60C0
3F00
ENDCHAR
STARTCHAR 0169
ENCODING 361
SWIDTH 600 0
DWIDTH 15 0
BBX 10 18 2 0
BITMAP
1040
2480
4680
0100
0000
0000
8040
8040
8040
8040
8040
8040
8040
8040
8040
C0C0
4140
3E40
ENDCHAR
STARTCHAR 016A
ENCODING 362
SWIDTH 600 0
DWIDTH 15 0
BBX 11 19 2 0
BITMAP
1F00
0000
0000
8020
8020
8020
8020
8020
8020
8020
8020
8020
8020
8020
8020
4040
4040
60C0
3F00
ENDCHAR
STARTCHAR 016B
ENCODING 363
SWIDTH 600 0
DWIDTH 15 0
BBX 10 16 2 0
BITMAP
3F80
0000
0000
0000
8040
8040
8040
8040
8040
8040
8040
8040
8040
C0C0
4140
3E40
ENDCHAR
STARTCHAR 016C
ENCODING 364
SWIDTH 600 0
DWIDTH 15 0
BBX 11 21 2 0
BITMAP
2080
2100
1F00
0000
0000
8020
8020
8020
8020
8020
8020
8020
8020
8020
8020
8020
8020
4040
4040
60C0
3F00
ENDCHAR
STARTCHAR 016D
ENCODING 365
SWIDTH 600 0
DWIDTH 15 0
BBX 10 18 2 0
BITMAP
2080
2080
1100
0E00
0000
0000
8040
8040
8040
8040
8040
8040
8040
8040
8040
C0C0
4140
3E40
ENDCHAR
STARTCHAR 016E
ENCODING 366
SWIDTH 600 0
DWIDTH 15 0
BBX 11 22 2 0
BITMAP
0E00
1100
1100
0A00
0400
0000
8020
8020
8020
8020
8020
8020
8020
8020
8020
8020
8020
8020
4040
4040
60C0
3F00
ENDCHAR
STARTCHAR 016F
ENCODING 367
SWIDTH 600 0
DWIDTH 15 0
BBX 10 19 2 0
BITMAP
0E00
1100
1100
1100
0E00
0000
0000
8040
8040
8040
8040
8040
8040
8040
8040
8040
C0C0
4140
3E40
ENDCHAR
STARTCHAR 0170
ENCODING 368
SWIDTH 600 0
DWIDTH 15 0
BBX 11 22 2 0
BITMAP
0400
0C80
0900
1100
0000
0000
8020
8020
8020
8020
8020
8020
8020
8020
8020
8020
8020
8020
4040
4040
60C0
3F00
ENDCHAR
STARTCHAR 0171
ENCODING 369
SWIDTH 600 0
DWIDTH 15 0
BBX 10 19 2 0
BITMAP
0400
0480
0880
0900
1100
0000
0000
8040
8040
8040
8040
8040
8040
8040
8040
8040
C0C0
4140
3E40
ENDCHAR
STARTCHAR 0172
ENCODING 370
SWIDTH 600 0
DWIDTH 15 0
BBX 11 22 2 -6
BITMAP
8020
8020
8020
8020
8020
8020
8020
8020
8020
8020
8020
8020
4040
4040
60C0
1F00
0400
0800
0800
1000
0900
0600
ENDCHAR
STARTCHAR 0173
ENCODING 371
SWIDTH 600 0
DWIDTH 15 0
BBX 11 18 2 -6
BITMAP
8040
8040
8040
8040
8040
8040
8040
8040
8040
C0C0
4140
3E40
0040
0080
0100
0100
01A0
0040
ENDCHAR
STARTCHAR 0174
ENCODING 372
SWIDTH 600 0
DWIDTH 15 0
BBX 15 21 0 0
BITMAP
0380
06C0
0C60
0000
C002
4006
4004
4004
4004
4104
4284
628C
2288
22C8
2448
2448
2448
2C28
1830
1830
1830
ENDCHAR
STARTCHAR 0175
ENCODING 373
SWIDTH 600 0
DWIDTH 15 0
BBX 15 18 0 0
BITMAP
0380
06C0
0440
0820
0000
0000
C106
4284
4284
4284
6284
2448
2448
2448
3448
1830
1830
1830
ENDCHAR
STARTCHAR 0176
ENCODING 374
SWIDTH 600 0
DWIDTH 15 0
BBX 11 21 2 0
BITMAP
0E00
1B00
3180
0000
0000
8020
C020
4040
60C0
2080
1100
1100
0A00
0A00
0400
0400
0400
0400
0400
0400
0400
ENDCHAR
STARTCHAR 0177
ENCODING 375
SWIDTH 600 0
DWIDTH 15 0
BBX 11 23 2 -5
BITMAP
0E00
1B00
1100
2080
0000
0000
8020
8020
4040
4040
2040
2080
1080
1100
0900
0B00
0600
0600
0400
0400
0800
1800
F000
ENDCHAR
STARTCHAR 0178
ENCODING 376
SWIDTH 600 0
DWIDTH 15 0
BBX 11 20 2 0
BITMAP
1100
1100
0000
0000
8020
C020
4040
60C0
2080
1100
1100
0A00
0A00
0400
0400
0400
0400
0400
0400
0400
ENDCHAR
STARTCHAR 0179
ENCODING 377
SWIDTH 600 0
DWIDTH 15 0
BBX 11 21 2 0
BITMAP
0100
0200
0400
0000
7FE0
0020
0040
00C0
0080
0100
0300
0200
0400
0C00
0800
1000
3000
2000
4000
8000
FFE0
ENDCHAR
STARTCHAR 017A
ENCODING 378
SWIDTH 600 0
DWIDTH 15 0
BBX 11 19 2 0
BITMAP
0100
0300
0600
0400
0000
0000
0000
7FE0
0040
0080
0100
0200
0400
0C00
1800
3000
6000
4000
FFE0
ENDCHAR
STARTCHAR 017B
ENCODING 379
SWIDTH 600 0
DWIDTH 15 0
BBX 11 20 2 0
BITMAP
0400
0400
0000
7FE0
0020
0040
00C0
0080
0100
0300
0200
0400
0C00
0800
1000
3000
2000
4000
8000
FFE0
ENDCHAR
STARTCHAR 017C
ENCODING 380
SWIDTH 600 0
DWIDTH 15 0
BBX 11 17 2 0
BITMAP
0E00
0E00
0000
0000
0000
7FE0
0040
0080
0100
0200
0400
0C00
1800
3000
6000
4000
FFE0
ENDCHAR
STARTCHAR 017D
ENCODING 381
SWIDTH 600 0
DWIDTH 15 0
BBX 11 21 2 0
BITMAP
2080
1100
0E00
0000
7FE0
0020
0040
00C0
0080
0100
0300
0200
0400
0C00
0800
1000
3000
2000
4000
8000
FFE0
ENDCHAR
STARTCHAR 017E
ENCODING 382
SWIDTH 600 0
DWIDTH 15 0
BBX 11 18 2 0
BITMAP
2080
1100
0A00
0400
0000
0000
7FE0
0040
0080
0100
0200
0400
0C00
1800
3000
6000
4000
FFE0
ENDCHAR
STARTCHAR 017F
ENCODING 383
SWIDTH 600 0
DWIDTH 15 0
BBX 11 18 3 0
BITMAP
07E0
0C00
0800
0800
1800
1800
F800
1800
1800
1800
1800
1800
1800
1800
1800
1800
1800
1800
ENDCHAR
STARTCHAR 0180
ENCODING 384
SWIDTH 600 0
DWIDTH 15 0
BBX 12 18 1 0
BITMAP
2000
2000
2000
FF00
2000
2000
2380
2C60
3020
2010
2010
2010
2010
2010
2010
2020
3060
2FC0
ENDCHAR
STARTCHAR 018A
ENCODING 394
SWIDTH 600 0
DWIDTH 15 0
BBX 13 17 1 0
BITMAP
0F00
34C0
4420
8410
8410
8418
8408
8408
4408
6408
0408
0418
0410
0410
0420
0460
0780
ENDCHAR
STARTCHAR 018F
ENCODING 399
SWIDTH 600 0
DWIDTH 15 0
BBX 12 17 2 0
BITMAP
0E00
3180
0040
0060
0020
0020
0020
0030
0030
FFF0
8020
8020
8020
C020
4040
2080
1F00
ENDCHAR
STARTCHAR 0192
ENCODING 402
SWIDTH 600 0
DWIDTH 15 0
BBX 12 19 1 -2
BITMAP
0070
0190
0100
0300
0200
0200
0200
1FE0
0200
0200
0200
0600
0400
0400
0400
0400
0400
0800
F800
ENDCHAR
STARTCHAR 0193
ENCODING 403
SWIDTH 600 0
DWIDTH 15 0
BBX 13 20 1 0
BITMAP
0018
0020
0020
03A0
0C60
3010
2000
6000
4000
4000
4000
C000
C1F0
4010
4010
4010
6010
2010
1830
0FE0
ENDCHAR
STARTCHAR 01A0
ENCODING 416
SWIDTH 600 0
DWIDTH 15 0
BBX 13 20 1 0
BITMAP
0010
0018
0010
0730
18C0
3060
6030
4010
4010
C010
C018
C018
C018
C018
4010
4010
6030
2020
3040
0F80
ENDCHAR
STARTCHAR 01A1
ENCODING 417
SWIDTH 600 0
DWIDTH 15 0
BBX 11 16 2 0
BITMAP
0020
0020
0020
0020
1FC0
60C0
4040
8020
8020
8020
8020
8020
8020
4040
60C0
1F00
ENDCHAR
STARTCHAR 01AF
ENCODING 431
SWIDTH 600 0
DWIDTH 15 0
BBX 13 20 2 1
BITMAP
0008
0008
0008
0030
8020
8020
8020
8020
8020
8020
8020
8020
8020
8020
8020
8020
4040
4040
60C0
3F00
ENDCHAR
STARTCHAR 01B0
ENCODING 432
SWIDTH 600 0
DWIDTH 15 0
BBX 13 16 2 0
BITMAP
0010
0018
0010
0010
8060
8040
8040
8040
8040
8040
8040
8040
8040
C0C0
4140
3E40
ENDCHAR
STARTCHAR 01C2
ENCODING 450
SWIDTH 600 0
DWIDTH 15 0
BBX 11 23 2 -5
BITMAP
0400
0400
0400
0400
0400
0400
0400
0400
0400
FFE0
0400
0400
0400
FFE0
0400
0400
0400
0400
0400
0400
0400
0400
0400
ENDCHAR
STARTCHAR 01CD
ENCODING 461
SWIDTH 600 0
DWIDTH 15 0
BBX 13 21 1 0
BITMAP
1040
0880
0700
0000
0000
0200
0500
0500
0500
0880
0880
18C0
1040
1040
3FE0
2020
2020
6030
4010
4010
8018
ENDCHAR
STARTCHAR 01CE
ENCODING 462
SWIDTH 600 0
DWIDTH 15 0
BBX 11 18 2 0
BITMAP
1040
0880
0500
0200
0000
0000
1F80
60C0
0040
0060
0060
0FE0
3060
4060
8060
8060
40A0
3F20
ENDCHAR
STARTCHAR 01CF
ENCODING 463
SWIDTH 600 0
DWIDTH 15 0
BBX 9 21 3 0
BITMAP
4100
2200
1C00
0000
0000
FF80
0800
0800
0800
0800
0800
0800
0800
0800
0800
0800
0800
0800
0800
0800
FF80
ENDCHAR
STARTCHAR 01D0
ENCODING 464
SWIDTH 600 0
DWIDTH 15 0
BBX 10 18 2 0
BITMAP
1040
0880
0500
0200
0000
0000
FF00
0300
0300
0300
0300
0300
0300
0300
0300
0300
0300
0300
ENDCHAR
STARTCHAR 01D1
ENCODING 465
SWIDTH 600 0
DWIDTH 15 0
BBX 13 21 1 0
BITMAP
1040
0880
0700
0000
0700
18C0
3060
6030
4010
4010
C010
C018
C018
C018
C018
4010
4010
6030
2020
3040
0F80
ENDCHAR
STARTCHAR 01D2
ENCODING 466
SWIDTH 600 0
DWIDTH 15 0
BBX 11 18 2 0
BITMAP
2080
1100
0A00
0400
0000
0000
1F00
60C0
4040
8020
8020
8020
8020
8020
8020
4040
60C0
1F00
ENDCHAR
STARTCHAR 01D3
ENCODING 467
SWIDTH 600 0
DWIDTH 15 0
BBX 11 21 2 0
BITMAP
2080
1100
0E00
0000
0000
8020
8020
8020
8020
8020
8020
8020
8020
8020
8020
8020
8020
4040
4040
60C0
3F00
ENDCHAR
STARTCHAR 01D4
ENCODING 468
SWIDTH 600 0
DWIDTH 15 0
BBX 10 18 2 0
BITMAP
2080
1100
0A00
0400
0000
0000
8040
8040
8040
8040
8040
8040
8040
8040
8040
C0C0
4140
3E40
ENDCHAR
STARTCHAR 01D5
ENCODING 469
SWIDTH 600 0
DWIDTH 15 0
BBX 11 22 2 0
BITMAP
3F80
0000
3180
3180
0000
0000
8020
8020
8020
8020
8020
8020
8020
8020
8020
8020
8020
8020
4040
4040
60C0
3F00
ENDCHAR
STARTCHAR 01D6
ENCODING 470
SWIDTH 600 0
DWIDTH 15 0
BBX 10 20 2 0
BITMAP
3F80
0000
0000
1100
3180
0000
0000
0000
8040
8040
8040
8040
8040
8040
8040
8040
8040
C0C0
4140
3E40
ENDCHAR
STARTCHAR 01D7
ENCODING 471
SWIDTH 600 0
DWIDTH 15 0
BBX 11 23 2 1
BITMAP
0200
0400
0000
3180
3180
0000
0000
8020
8020
8020
8020
8020
8020
8020
8020
8020
8020
8020
8020
4040
4040
60C0
3F00
ENDCHAR
STARTCHAR 01D8
ENCODING 472
SWIDTH 600 0
DWIDTH 15 0
BBX 10 20 2 1
BITMAP
0200
0400
0000
1100
3180
0000
0000
0000
8040
8040
8040
8040
8040
8040
8040
8040
8040
C0C0
4140
3E40
ENDCHAR
STARTCHAR 01D9
ENCODING 473
SWIDTH 600 0
DWIDTH 15 0
BBX 11 23 2 1
BITMAP
1100
0E00
0000
3180
3180
0000
0000
8020
8020
8020
8020
8020
8020
8020
8020
8020
8020
8020
8020
4040
4040
60C0
3F00
ENDCHAR
STARTCHAR 01DA
ENCODING 474
SWIDTH 600 0
DWIDTH 15 0
BBX 10 20 2 1
BITMAP
1100
0E00
0000
1100
3180
0000
0000
0000
8040
8040
8040
8040
8040
8040
8040
8040
8040
C0C0
4140
3E40
ENDCHAR
STARTCHAR 01DB
ENCODING 475
SWIDTH 600 0
DWIDTH 15 0
BBX 11 23 2 1
BITMAP
0800
0400
0000
3180
3180
0000
0000
8020
8020
8020
8020
8020
8020
8020
8020
8020
8020
8020
8020
4040
4040
60C0
3F00
ENDCHAR
STARTCHAR 01DC
ENCODING 476
SWIDTH 600 0
DWIDTH 15 0
BBX 10 20 2 1
BITMAP
0800
0400
0000
1100
3180
0000
0000
0000
8040
8040
8040
8040
8040
8040
8040
8040
8040
C0C0
4140
3E40
ENDCHAR
STARTCHAR 01E2
ENCODING 482
SWIDTH 600 0
DWIDTH 15 0
BBX 15 19 0 0
BITMAP
00F8
0000
0000
01FC
0380
0280
0280
0480
0480
0880
08F8
1080
1080
3F80
2080
2080
4080
4080
80FE
ENDCHAR
STARTCHAR 01E3
ENCODING 483
SWIDTH 600 0
DWIDTH 15 0
BBX 15 16 0 0
BITMAP
0FE0
0000
0000
0000
3E78
4284
0182
0102
0102
1FFE
2100
4100
C100
C180
4280
7C7C
ENDCHAR
STARTCHAR 01E6
ENCODING 486
SWIDTH 600 0
DWIDTH 15 0
BBX 12 21 1 0
BITMAP
0820
0440
0380
0000
0380
0C60
3010
2000
6000
4000
4000
4000
C000
C1F0
4010
4010
4010
6010
2010
1830
0FE0
ENDCHAR
STARTCHAR 01E7
ENCODING 487
SWIDTH 600 0
DWIDTH 15 0
BBX 12 24 2 -6
BITMAP
2080
1100
0A00
0400
0000
0000
1FF0
2080
4080
4040
4040
40C0
2080
3F00
4000
4000
6000
3FE0
4030
8010
8010
C020
60C0
1F00
ENDCHAR
STARTCHAR 01EA
ENCODING 490
SWIDTH 600 0
DWIDTH 15 0
BBX 13 23 1 -6
BITMAP
0700
18C0
3060
6030
4010
4010
C010
C018
C018
C018
C018
4010
4010
6030
2020
3040
0F80
0200
0400
0400
0800
0480
0300
ENDCHAR
STARTCHAR 01EB
ENCODING 491
SWIDTH 600 0
DWIDTH 15 0
BBX 11 18 2 -6
BITMAP
1F00
60C0
4040
8020
8020
8020
8020
8020
8020
4040
60C0
1F00
0400
0800
0800
0800
0D00
0600
ENDCHAR
STARTCHAR 01F4
ENCODING 500
SWIDTH 600 0
DWIDTH 15 0
BBX 12 21 1 0
BITMAP
0040
0080
0100
0000
0380
0C60
3010
2000
6000
4000
4000
4000
C000
C1F0
4010
4010
4010
6010
2010
1830
0FE0
ENDCHAR
STARTCHAR 01F5
ENCODING 501
SWIDTH 600 0
DWIDTH 15 0
BBX 12 25 2 -6
BITMAP
0100
0300
0600
0400
0000
0000
0000
1FF0
2080
4080
4040
4040
40C0
2080
3F00
4000
4000
6000
3FE0
4030
8010
8010
C020
60C0
1F00
ENDCHAR
STARTCHAR 01F8
ENCODING 504
SWIDTH 600 0
DWIDTH 15 0
BBX 11 21 2 0
BITMAP
1000
0800
0400
0000
0000
C020
A020
A020
9020
9020
8820
8820
8420
8420
8220
8320
8120
80A0
80A0
8060
8060
ENDCHAR
STARTCHAR 01F9
ENCODING 505
SWIDTH 600 0
DWIDTH 15 0
BBX 10 19 3 0
BITMAP
2000
3000
1800
0800
0000
0000
0000
9F00
A080
C0C0
8040
8040
8040
8040
8040
8040
8040
8040
8040
ENDCHAR
STARTCHAR 01FA
ENCODING 506
SWIDTH 600 0
DWIDTH 15 0
BBX 13 23 1 1
BITMAP
0100
0700
0880
0880
0500
0200
0000
0200
0500
0500
0500
0880
0880
18C0
1040
1040
3FE0
2020
2020
6030
4010
4010
8018
ENDCHAR
STARTCHAR 01FB
ENCODING 507
SWIDTH 600 0
DWIDTH 15 0
BBX 11 20 2 1
BITMAP
0300
0600
0900
1100
0900
0600
0000
0000
1F80
60C0
0040
0060
0060
0FE0
3060
4060
8060
8060
40A0
3F20
ENDCHAR
STARTCHAR 01FC
ENCODING 508
SWIDTH 600 0
DWIDTH 15 0
BBX 15 21 0 0
BITMAP
0008
0010
0020
0000
0000
01FC
0380
0280
0280
0480
0480
0880
08F8
1080
1080
3F80
2080
2080
4080
4080
80FE
ENDCHAR
STARTCHAR 01FD
ENCODING 509
SWIDTH 600 0
DWIDTH 15 0
BBX 15 19 0 0
BITMAP
0040
00C0
0180
0100
0000
0000
0000
3E78
4284
0182
0102
0102
1FFE
2100
4100
C100
C180
4280
7C7C
ENDCHAR
STARTCHAR 01FE
ENCODING 510
SWIDTH 600 0
DWIDTH 15 0
BBX 13 21 1 -1
BITMAP
0080
0100
0200
0000
0718
19D0
3060
6070
4050
4090
C190
C118
C218
C618
C418
4810
5810
7030
2020
7040
4F80
ENDCHAR
STARTCHAR 01FF
ENCODING 511
SWIDTH 600 0
DWIDTH 15 0
BBX 11 20 2 -1
BITMAP
0100
0300
0600
0400
0000
0000
0000
1F20
60C0
40C0
8120
8220
8620
8C20
8820
9020
6040
60C0
BF80
8000
ENDCHAR
STARTCHAR 0218
ENCODING 536
SWIDTH 600 0
DWIDTH 15 0
BBX 11 22 2 -5
BITMAP
0F00
31C0
6040
4000
4000
4000
2000
1800
0700
0180
0040
0020
0020
0020
8020
6040
3F80
0000
0000
0600
0200
0E00
ENDCHAR
STARTCHAR 0219
ENCODING 537
SWIDTH 600 0
DWIDTH 15 0
BBX 11 17 2 -5
BITMAP
3F80
4040
4000
4000
6000
1E00
0180
0060
0020
0020
C040
3F80
0000
0000
0600
0200
0E00
ENDCHAR
STARTCHAR 021A
ENCODING 538
SWIDTH 600 0
DWIDTH 15 0
BBX 13 21 1 -5
BITMAP
FFF8
0200
0200
0200
0200
0200
0200
0200
0200
0200
0200
0200
0200
0200
0200
0200
0000
0000
0300
0100
0700
ENDCHAR
STARTCHAR 021B
ENCODING 539
SWIDTH 600 0
DWIDTH 15 0
BBX 12 21 2 -5
BITMAP
0800
0800
0800
0800
FFE0
0800
0800
0800
0800
0800
0800
0800
0800
0800
0C00
07F0
0000
0000
0180
0080
0380
ENDCHAR
STARTCHAR 0237
ENCODING 567
SWIDTH 600 0
DWIDTH 15 0
BBX 8 18 2 -6
BITMAP
FF
03
03
03
03
03
03
03
03
03
03
03
03
03
02
02
84
78
ENDCHAR
STARTCHAR 0243
ENCODING 579
SWIDTH 600 0
DWIDTH 15 0
BBX 12 16 1 0
BITMAP
3FC0
2020
2020
2020
2020
2020
20C0
3FC0
2020
2010
2010
FE10
2010
2010
2060
3FC0
ENDCHAR
STARTCHAR 0250
ENCODING 592
SWIDTH 600 0
DWIDTH 15 0
BBX 10 12 3 0
BITMAP
9F80
E0C0
8040
8040
80C0
8180
BE00
C000
8000
8000
C080
7F00
ENDCHAR
STARTCHAR 0251
ENCODING 593
SWIDTH 600 0
DWIDTH 15 0
BBX 10 12 2 0
BITMAP
3F40
60C0
4040
8040
8040
8040
8040
8040
8040
C040
60C0
3F40
ENDCHAR
STARTCHAR 0252
ENCODING 594
SWIDTH 600 0
DWIDTH 15 0
BBX 10 12 3 0
BITMAP
BF00
C080
80C0
8040
8040
8040
8040
8040
8040
8080
C180
BF00
ENDCHAR
STARTCHAR 0253
ENCODING 595
SWIDTH 600 0
DWIDTH 15 0
BBX 10 18 3 0
BITMAP
7C00
C000
8000
8000
8000
8000
9F00
E080
80C0
8040
8040
8040
8040
8040
8040
8080
C180
BF00
ENDCHAR
STARTCHAR 0254
ENCODING 596
SWIDTH 600 0
DWIDTH 15 0
BBX 11 12 2 0
BITMAP
7F00
C180
00C0
0040
0060
0020
0020
0060
0040
0040
8180
7F00
ENDCHAR
STARTCHAR 0255
ENCODING 597
SWIDTH 600 0
DWIDTH 15 0
BBX 11 15 2 -3
BITMAP
1FC0
3060
6000
4000
C000
8000
8000
8000
43E0
6420
3820
1FC0
2000
2000
2000
ENDCHAR
STARTCHAR 0256
ENCODING 598
SWIDTH 600 0
DWIDTH 15 0
BBX 13 22 2 -4
BITMAP
0040
0040
0040
0040
0040
0040
3F40
60C0
4040
8040
8040
8040
8040
8040
8040
C040
60C0
3F40
0040
0040
0040
0038
ENDCHAR
STARTCHAR 0257
ENCODING 599
SWIDTH 600 0
DWIDTH 15 0
BBX 13 18 2 0
BITMAP
0038
0060
0040
0040
0040
0040
3F40
60C0
4040
8040
8040
8040
8040
8040
8040
C040
60C0
3F40
ENDCHAR
STARTCHAR 0258
ENCODING 600
SWIDTH 600 0
DWIDTH 15 0
BBX 11 12 2 0
BITMAP
3F00
6080
C040
8060
8020
FFE0
0020
0020
0060
0040
8080
7F00
ENDCHAR
STARTCHAR 0259
ENCODING 601
SWIDTH 600 0
DWIDTH 15 0
BBX 11 12 2 0
BITMAP
3F00
40C0
0040
0020
0020
0020
FFE0
8020
8020
4040
60C0
3F80
ENDCHAR
STARTCHAR 025A
ENCODING 602
SWIDTH 600 0
DWIDTH 15 0
BBX 14 12 1 0
BITMAP
7E00
4100
0080
00F0
0190
0ECC
30C0
C080
8080
8080
4100
3E00
ENDCHAR
STARTCHAR 025B
ENCODING 603
SWIDTH 600 0
DWIDTH 15 0
BBX 10 12 3 0
BITMAP
3F80
40C0
8000
8000
4000
3E00
6000
8000
8000
8000
C040
7F80
ENDCHAR
STARTCHAR 025C
ENCODING 604
SWIDTH 600 0
DWIDTH 15 0
BBX 10 12 2 0
BITMAP
7F00
C080
0040
00C0
0080
1F00
0180
0040
0040
0040
80C0
7F80
ENDCHAR
STARTCHAR 025E
ENCODING 606
SWIDTH 600 0
DWIDTH 15 0
BBX 11 12 2 0
BITMAP
1F80
6040
4060
8060
8040
8780
80C0
8020
8020
4020
6060
1FC0
ENDCHAR
STARTCHAR 025F
ENCODING 607
SWIDTH 600 0
DWIDTH 15 0
BBX 12 18 2 -6
BITMAP
FF00
0300
0300
0300
0300
7FF0
0300
0300
0300
0300
0300
0300
0300
0300
0200
0200
8400
7800
ENDCHAR
STARTCHAR 0260
ENCODING 608
SWIDTH 600 0
DWIDTH 15 0
BBX 13 21 2 -6
BITMAP
0038
0060
0040
3F40
60C0
4040
8040
8040
8040
8040
8040
8040
4040
61C0
1E40
0040
0040
0040
00C0
6180
1E00
ENDCHAR
STARTCHAR 0261
ENCODING 609
SWIDTH 600 0
DWIDTH 15 0
BBX 10 18 2 -6
BITMAP
3F40
60C0
4040
8040
8040
8040
8040
8040
8040
4040
61C0
1E40
0040
0040
0040
00C0
6180
1E00
ENDCHAR
STARTCHAR 0262
ENCODING 610
SWIDTH 600 0
DWIDTH 15 0
BBX 11 12 2 0
BITMAP
1FC0
3060
4000
4000
8000
8000
83E0
8020
4020
4020
3060
1FC0
ENDCHAR
STARTCHAR 0263
ENCODING 611
SWIDTH 600 0
DWIDTH 15 0
BBX 11 18 2 -6
BITMAP
8020
8020
4040
4040
2080
2080
1100
1100
0A00
0A00
0E00
0400
0A00
0A00
1100
1100
0B00
0E00
ENDCHAR
STARTCHAR 0264
ENCODING 612
SWIDTH 600 0
DWIDTH 15 0
BBX 11 12 2 0
BITMAP
F1E0
1B00
0400
0A00
1100
2080
60C0
4040
4040
4040
2080
1F00
ENDCHAR
STARTCHAR 0265
ENCODING 613
SWIDTH 600 0
DWIDTH 15 0
BBX 10 17 2 -5
BITMAP
8040
8040
8040
8040
8040
8040
8040
8040
8040
C0C0
4140
3E40
0040
0040
0040
0040
0040
ENDCHAR
STARTCHAR 0266
ENCODING 614
SWIDTH 600 0
DWIDTH 15 0
BBX 10 18 3 0
BITMAP
7C00
C000
8000
8000
8000
8000
9F00
A080
C0C0
8040
8040
8040
8040
8040
8040
8040
8040
8040
ENDCHAR
STARTCHAR 0267
ENCODING 615
SWIDTH 600 0
DWIDTH 15 0
BBX 10 23 3 -5
BITMAP
7C00
C000
8000
8000
8000
8000
9F00
A080
C0C0
8040
8040
8040
8040
8040
8040
8040
8040
8040
0040
0040
00C0
0580
0200
ENDCHAR
STARTCHAR 0268
ENCODING 616
SWIDTH 600 0
DWIDTH 15 0
BBX 12 17 2 0
BITMAP
0700
0700
0000
0000
0000
FF00
0300
0300
0300
0300
3FF0
0300
0300
0300
0300
0300
0300
ENDCHAR
STARTCHAR 026A
ENCODING 618
SWIDTH 600 0
DWIDTH 15 0
BBX 11 12 2 0
BITMAP
FFE0
0400
0400
0400
0400
0400
0400
0400
0400
0400
0400
FFE0
ENDCHAR
STARTCHAR 026B
ENCODING 619
SWIDTH 600 0
DWIDTH 15 0
BBX 11 18 2 0
BITMAP
FC00
0400
0400
0400
0400
0400
1440
2C40
4680
0500
0400
0400
0400
0400
0400
0400
0400
03E0
ENDCHAR
STARTCHAR 026C
ENCODING 620
SWIDTH 600 0
DWIDTH 15 0
BBX 11 18 2 0
BITMAP
FC00
0400
0400
0400
0400
0400
7400
4C00
4400
3FC0
0400
0400
0400
0400
0400
0400
0400
03E0
ENDCHAR
STARTCHAR 026D
ENCODING 621
SWIDTH 600 0
DWIDTH 15 0
BBX 11 23 2 -5
BITMAP
FC00
0400
0400
0400
0400
0400
0400
0400
0400
0400
0400
0400
0400
0400
0400
0400
0400
0400
0400
0400
0400
0360
0080
ENDCHAR
STARTCHAR 026E
ENCODING 622
SWIDTH 600 0
DWIDTH 15 0
BBX 11 24 3 -6
BITMAP
8000
8000
8000
8000
8000
8000
FFC0
80C0
8080
8100
8200
8600
8400
8800
8F80
8040
8060
8020
0020
0020
0040
4040
3180
0E00
ENDCHAR
STARTCHAR 026F
ENCODING 623
SWIDTH 600 0
DWIDTH 15 0
BBX 12 12 1 0
BITMAP
8210
8210
8210
8210
8210
8210
8210
8210
8210
8610
4630
7BD0
ENDCHAR
STARTCHAR 0270
ENCODING 624
SWIDTH 600 0
DWIDTH 15 0
BBX 12 17 1 -5
BITMAP
8210
8210
8210
8210
8210
8210
8210
8210
8210
8610
4630
7BD0
0010
0010
0010
0010
0010
ENDCHAR
STARTCHAR 0271
ENCODING 625
SWIDTH 600 0
DWIDTH 15 0
BBX 12 16 2 -5
BITMAP
B9E0
C620
8630
8410
8410
8410
8410
8410
8410
8410
8410
8410
0010
0010
0030
00E0
ENDCHAR
STARTCHAR 0272
ENCODING 626
SWIDTH 600 0
DWIDTH 15 0
BBX 13 17 0 -5
BITMAP
13E0
1410
1818
1008
1008
1008
1008
1008
1008
1008
1008
1008
1000
1000
3000
E000
4000
ENDCHAR
STARTCHAR 0273
ENCODING 627
SWIDTH 600 0
DWIDTH 15 0
BBX 12 17 3 -5
BITMAP
9F00
A080
C0C0
8040
8040
8040
8040
8040
8040
8040
8040
8040
0040
0040
0040
0060
0010
ENDCHAR
STARTCHAR 0274
ENCODING 628
SWIDTH 600 0
DWIDTH 15 0
BBX 9 12 3 0
BITMAP
8080
C080
E080
A080
9080
8880
8880
8480
8280
8280
8180
8080
ENDCHAR
STARTCHAR 0275
ENCODING 629
SWIDTH 600 0
DWIDTH 15 0
BBX 11 12 2 0
BITMAP
3F80
60C0
C040
8020
8020
FFE0
8020
8020
8020
C060
60C0
3F80
ENDCHAR
STARTCHAR 0276
ENCODING 630
SWIDTH 600 0
DWIDTH 15 0
BBX 14 12 1 0
BITMAP
3FF8
6100
4100
C100
8100
81F0
8100
8100
C100
4100
6100
3FFC
ENDCHAR
STARTCHAR 0278
ENCODING 632
SWIDTH 600 0
DWIDTH 15 0
BBX 13 23 1 -5
BITMAP
0200
0200
0200
0200
0200
0200
1FC0
2220
4230
4210
C218
C218
C218
C218
4210
4230
2260
1FC0
0200
0200
0200
0200
0200
ENDCHAR
STARTCHAR 0279
ENCODING 633
SWIDTH 600 0
DWIDTH 15 0
BBX 9 12 2 0
BITMAP
0080
0080
0080
0080
0080
0080
0080
0080
0180
0280
0680
F880
ENDCHAR
STARTCHAR 027A
ENCODING 634
SWIDTH 600 0
DWIDTH 15 0
BBX 9 18 2 0
BITMAP
0080
0080
0080
0080
0080
0080
0080
0080
0080
0080
0080
0080
0080
0080
0180
0280
0680
F880
ENDCHAR
STARTCHAR 027B
ENCODING 635
SWIDTH 600 0
DWIDTH 15 0
BBX 10 17 2 -5
BITMAP
0600
0600
0600
0600
0600
0600
0600
0600
0600
0600
0A00
F200
0200
0200
0200
0340
0080
ENDCHAR
STARTCHAR 027D
ENCODING 637
SWIDTH 600 0
DWIDTH 15 0
BBX 9 17 4 -5
BITMAP
8F80
B000
A000
C000
8000
8000
8000
8000
8000
8000
8000
8000
8000
8000
4000
7700
0800
ENDCHAR
STARTCHAR 027E
ENCODING 638
SWIDTH 600 0
DWIDTH 15 0
BBX 9 12 4 0
BITMAP
1F80
2000
4000
C000
8000
8000
8000
8000
8000
8000
8000
8000
ENDCHAR
STARTCHAR 0280
ENCODING 640
SWIDTH 600 0
DWIDTH 15 0
BBX 10 12 3 0
BITMAP
FF00
8080
8040
8040
8040
8180
FF00
8200
8300
8100
8080
8040
ENDCHAR
STARTCHAR 0281
ENCODING 641
SWIDTH 600 0
DWIDTH 15 0
BBX 10 12 2 0
BITMAP
8040
4040
2040
3040
1040
3FC0
6040
8040
8040
8040
C040
3FC0
ENDCHAR
STARTCHAR 0282
ENCODING 642
SWIDTH 600 0
DWIDTH 15 0
BBX 11 17 2 -5
BITMAP
3F80
4040
4000
4000
6000
1E00
0180
0060
0020
0020
C040
BF80
8000
8000
8000
5000
2000
ENDCHAR
STARTCHAR 0283
ENCODING 643
SWIDTH 600 0
DWIDTH 15 0
BBX 11 24 2 -6
BITMAP
03E0
0600
0400
0400
0400
0400
0400
0400
0400
0400
0400
0400
0400
0400
0400
0400
0400
0400
0400
0400
0400
0400
8800
7000
ENDCHAR
STARTCHAR 0284
ENCODING 644
SWIDTH 600 0
DWIDTH 15 0
BBX 11 24 2 -6
BITMAP
03E0
0600
0400
0400
0400
0400
0400
0400
0400
0400
0400
FFE0
0400
0400
0400
0400
0400
0400
0400
0400
0400
0400
8800
7000
ENDCHAR
STARTCHAR 0287
ENCODING 647
SWIDTH 600 0
DWIDTH 15 0
BBX 12 16 1 -4
BITMAP
FE00
0300
0100
0100
0100
0100
0100
0100
0100
0100
0100
7FF0
0100
0100
0100
0100
ENDCHAR
STARTCHAR 0288
ENCODING 648
SWIDTH 600 0
DWIDTH 15 0
BBX 11 21 2 -5
BITMAP
0800
0800
0800
0800
FFE0
0800
0800
0800
0800
0800
0800
0800
0800
0800
0800
0800
0800
0800
0800
0760
0080
ENDCHAR
STARTCHAR 0289
ENCODING 649
SWIDTH 600 0
DWIDTH 15 0
BBX 14 12 0 0
BITMAP
1010
1010
1010
1010
1010
FFFC
1010
1010
1010
1030
1850
0F90
ENDCHAR
STARTCHAR 028A
ENCODING 650
SWIDTH 600 0
DWIDTH 15 0
BBX 13 12 1 0
BITMAP
F8F8
1040
2020
6030
4010
4010
4010
4010
4010
6030
3060
1FC0
ENDCHAR
STARTCHAR 028B
ENCODING 651
SWIDTH 600 0
DWIDTH 15 0
BBX 11 12 2 0
BITMAP
83C0
8060
8020
8020
8020
8020
8020
8020
8060
4040
60C0
3F00
ENDCHAR
STARTCHAR 028C
ENCODING 652
SWIDTH 600 0
DWIDTH 15 0
BBX 11 12 2 0
BITMAP
0400
0A00
0A00
1100
1100
3180
2080
2080
4040
4040
8020
8020
ENDCHAR
STARTCHAR 028D
ENCODING 653
SWIDTH 600 0
DWIDTH 15 0
BBX 15 12 0 0
BITMAP
1830
1830
1850
2458
2448
2448
2488
428C
4284
4284
4304
C106
ENDCHAR
STARTCHAR 028E
ENCODING 654
SWIDTH 600 0
DWIDTH 15 0
BBX 11 18 2 0
BITMAP
00E0
0100
0200
0200
0400
0400
0C00
0C00
1200
1200
1100
2100
2080
4080
4040
4040
8020
8020
ENDCHAR
STARTCHAR 028F
ENCODING 655
SWIDTH 600 0
DWIDTH 15 0
BBX 11 12 2 0
BITMAP
8020
4040
60C0
2080
1100
0B00
0A00
0400
0400
0400
0400
0400
ENDCHAR
STARTCHAR 0290
ENCODING 656
SWIDTH 600 0
DWIDTH 15 0
BBX 13 16 2 -5
BITMAP
7FE0
00C0
0080
0100
0200
0400
0800
1800
3000
6000
4000
FFE0
0020
0020
0020
0038
ENDCHAR
STARTCHAR 0291
ENCODING 657
SWIDTH 600 0
DWIDTH 15 0
BBX 12 15 2 -3
BITMAP
7FE0
0040
0080
0100
0200
0400
0800
1860
3090
6110
4110
FFE0
0200
0200
0200
ENDCHAR
STARTCHAR 0292
ENCODING 658
SWIDTH 600 0
DWIDTH 15 0
BBX 11 18 2 -6
BITMAP
7FE0
00C0
0180
0300
0600
0C00
0800
1E00
3180
0040
0020
0020
0020
0020
0060
8040
6180
1E00
ENDCHAR
STARTCHAR 0294
ENCODING 660
SWIDTH 600 0
DWIDTH 15 0
BBX 10 18 2 0
BITMAP
3F00
4080
8040
0040
0040
0040
0040
00C0
0180
0300
0C00
0C00
0C00
0C00
0C00
0C00
0C00
0C00
ENDCHAR
STARTCHAR 0295
ENCODING 661
SWIDTH 600 0
DWIDTH 15 0
BBX 10 18 3 0
BITMAP
3F00
C080
8040
8000
8000
8000
8000
C000
6000
3000
0C00
0C00
0C00
0C00
0C00
0C00
0C00
0C00
ENDCHAR
STARTCHAR 0298
ENCODING 664
SWIDTH 600 0
DWIDTH 15 0
BBX 11 18 2 0
BITMAP
1F00
2080
4040
4040
8020
8020
8020
8420
8E20
8E20
8020
8020
8020
8020
C060
4040
2080
1F00
ENDCHAR
STARTCHAR 0299
ENCODING 665
SWIDTH 600 0
DWIDTH 15 0
BBX 10 12 3 0
BITMAP
FF00
8080
8040
8040
8080
FF00
8180
8040
8040
8040
80C0
FF00
ENDCHAR
STARTCHAR 029C
ENCODING 668
SWIDTH 600 0
DWIDTH 15 0
BBX 9 12 3 0
BITMAP
8080
8080
8080
8080
8080
FF80
8080
8080
8080
8080
8080
8080
ENDCHAR
STARTCHAR 029D
ENCODING 669
SWIDTH 600 0
DWIDTH 15 0
BBX 9 24 2 -7
BITMAP
0700
0700
0000
0000
0000
FF00
0300
0300
0300
0300
0300
0300
0300
0300
0300
0300
0300
0300
0300
FE00
8200
CD00
3080
0080
ENDCHAR
STARTCHAR 029E
ENCODING 670
SWIDTH 600 0
DWIDTH 15 0
BBX 11 17 1 -5
BITMAP
4020
2020
3020
1020
0860
0DA0
0720
0620
0820
1020
2020
C020
0020
0020
0020
0020
0020
ENDCHAR
STARTCHAR 029F
ENCODING 671
SWIDTH 600 0
DWIDTH 15 0
BBX 9 12 4 0
BITMAP
8000
8000
8000
8000
8000
8000
8000
8000
8000
8000
8000
FF80
ENDCHAR
STARTCHAR 02A1
ENCODING 673
SWIDTH 600 0
DWIDTH 15 0
BBX 11 18 2 0
BITMAP
3F00
4080
8040
0040
0040
0040
0040
00C0
0180
0200
FFE0
0C00
0C00
0C00
0C00
0C00
0C00
0C00
ENDCHAR
STARTCHAR 02A2
ENCODING 674
SWIDTH 600 0
DWIDTH 15 0
BBX 11 18 2 0
BITMAP
1F80
2040
4020
4000
4000
4000
4000
6000
3000
0800
FFE0
0600
0600
0600
0600
0600
0600
0600
ENDCHAR
STARTCHAR 02A4
ENCODING 676
SWIDTH 600 0
DWIDTH 15 0
BBX 15 24 0 -6
BITMAP
0100
0100
0100
0100
0100
0100
3DFE
6304
4104
C108
8118
8110
8120
8120
C13C
4106
4302
3D02
0002
0002
0002
0082
00C4
0038
ENDCHAR
STARTCHAR 02A6
ENCODING 678
SWIDTH 600 0
DWIDTH 15 0
BBX 13 16 1 0
BITMAP
2000
2000
2000
2000
FFF0
2100
2100
2100
2080
2060
2010
2008
2008
2008
3018
1FE0
ENDCHAR
STARTCHAR 02A7
ENCODING 679
SWIDTH 600 0
DWIDTH 15 0
BBX 12 24 2 -6
BITMAP
0070
00C0
2080
2080
2080
2080
FF80
2080
2080
2080
2080
2080
2080
2080
2080
2080
2080
3C80
0080
0080
0080
0080
0180
0700
ENDCHAR
STARTCHAR 02B0
ENCODING 688
SWIDTH 600 0
DWIDTH 15 0
BBX 6 12 5 10
BITMAP
80
80
80
80
FC
84
84
84
84
84
84
84
ENDCHAR
STARTCHAR 02B2
ENCODING 690
SWIDTH 600 0
DWIDTH 15 0
BBX 5 16 4 6
BITMAP
08
18
00
00
F8
08
08
08
08
08
08
08
08
08
90
60
ENDCHAR
STARTCHAR 02B3
ENCODING 691
SWIDTH 600 0
DWIDTH 15 0
BBX 5 8 7 10
BITMAP
B8
C0
80
80
80
80
80
80
ENDCHAR
STARTCHAR 02B7
ENCODING 695
SWIDTH 600 0
DWIDTH 15 0
BBX 10 8 2 10
BITMAP
8C40
8C40
8C40
9480
5280
5280
6300
2100
ENDCHAR
STARTCHAR 02B8
ENCODING 696
SWIDTH 600 0
DWIDTH 15 0
BBX 7 11 4 7
BITMAP
82
82
44
44
24
28
18
10
10
10
E0
ENDCHAR
STARTCHAR 02B9
ENCODING 697
SWIDTH 600 0
DWIDTH 15 0
BBX 1 5 7 12
BITMAP
80
80
80
80
80
ENDCHAR
STARTCHAR 02BB
ENCODING 699
SWIDTH 600 0
DWIDTH 15 0
BBX 3 7 6 11
BITMAP
60
40
80
80
C0
E0
E0
ENDCHAR
STARTCHAR 02BC
ENCODING 700
SWIDTH 600 0
DWIDTH 15 0
BBX 3 7 6 11
BITMAP
E0
E0
60
20
20
40
80
ENDCHAR
STARTCHAR 02BE
ENCODING 702
SWIDTH 600 0
DWIDTH 15 0
BBX 4 8 6 13
BITMAP
80
60
10
10
10
10
60
80
ENDCHAR
STARTCHAR 02BF
ENCODING 703
SWIDTH 600 0
DWIDTH 15 0
BBX 4 8 5 13
BITMAP
10
60
80
80
80
80
60
10
ENDCHAR
STARTCHAR 02C1
ENCODING 705
SWIDTH 600 0
DWIDTH 15 0
BBX 7 10 4 11
BITMAP
18
66
80
80
80
40
20
10
10
10
ENDCHAR
STARTCHAR 02C6
ENCODING 710
SWIDTH 600 0
DWIDTH 15 0
BBX 7 4 4 14
BITMAP
38
6C
44
82
ENDCHAR
STARTCHAR 02C7
ENCODING 711
SWIDTH 600 0
DWIDTH 15 0
BBX 7 4 4 14
BITMAP
82
44
28
10
ENDCHAR
STARTCHAR 02C8
ENCODING 712
SWIDTH 600 0
DWIDTH 15 0
BBX 1 8 7 10
BITMAP
80
80
80
80
80
80
80
80
ENDCHAR
STARTCHAR 02C9
ENCODING 713
SWIDTH 600 0
DWIDTH 15 0
BBX 7 1 4 15
BITMAP
FE
ENDCHAR
STARTCHAR 02CA
ENCODING 714
SWIDTH 600 0
DWIDTH 15 0
BBX 3 4 7 14
BITMAP
20
60
C0
80
ENDCHAR
STARTCHAR 02CB
ENCODING 715
SWIDTH 600 0
DWIDTH 15 0
BBX 3 4 5 14
BITMAP
80
C0
60
20
ENDCHAR
STARTCHAR 02CC
ENCODING 716
SWIDTH 600 0
DWIDTH 15 0
BBX 1 7 7 -6
BITMAP
80
80
80
80
80
80
80
ENDCHAR
STARTCHAR 02D0
ENCODING 720
SWIDTH 600 0
DWIDTH 15 0
BBX 3 12 6 0
BITMAP
E0
40
40
00
00
00
00
00
00
40
E0
E0
ENDCHAR
STARTCHAR 02D1
ENCODING 721
SWIDTH 600 0
DWIDTH 15 0
BBX 3 3 6 9
BITMAP
E0
40
40
ENDCHAR
STARTCHAR 02D8
ENCODING 728
SWIDTH 600 0
DWIDTH 15 0
BBX 7 4 4 14
BITMAP
82
82
44
38
ENDCHAR
STARTCHAR 02D9
ENCODING 729
SWIDTH 600 0
DWIDTH 15 0
BBX 3 2 6 15
BITMAP
E0
E0
ENDCHAR
STARTCHAR 02DA
ENCODING 730
SWIDTH 600 0
DWIDTH 15 0
BBX 5 5 5 14
BITMAP
70
88
88
88
70
ENDCHAR
STARTCHAR 02DB
ENCODING 731
SWIDTH 600 0
DWIDTH 15 0
BBX 5 6 5 -6
BITMAP
20
40
40
80
48
30
ENDCHAR
STARTCHAR 02DC
ENCODING 732
SWIDTH 600 0
DWIDTH 15 0
BBX 9 4 3 14
BITMAP
2080
4900
8D00
0200
ENDCHAR
STARTCHAR 02DD
ENCODING 733
SWIDTH 600 0
DWIDTH 15 0
BBX 6 5 5 14
BITMAP
20
24
44
48
88
ENDCHAR
STARTCHAR 02DE
ENCODING 734
SWIDTH 600 0
DWIDTH 15 0
BBX 6 3 4 6
BITMAP
E0
20
1C
ENDCHAR
STARTCHAR 02E0
ENCODING 736
SWIDTH 600 0
DWIDTH 15 0
BBX 7 12 4 6
BITMAP
82
44
44
44
28
28
30
10
28
28
28
10
ENDCHAR
STARTCHAR 02E1
ENCODING 737
SWIDTH 600 0
DWIDTH 15 0
BBX 6 12 5 10
BITMAP
E0
20
20
20
20
20
20
20
20
20
20
1C
ENDCHAR
STARTCHAR 02E2
ENCODING 738
SWIDTH 600 0
DWIDTH 15 0
BBX 6 8 5 10
BITMAP
FC
80
80
70
0C
04
04
F8
ENDCHAR
STARTCHAR 02E3
ENCODING 739
SWIDTH 600 0
DWIDTH 15 0
BBX 6 8 5 10
BITMAP
84
48
70
30
30
48
88
84
ENDCHAR
STARTCHAR 02E4
ENCODING 740
SWIDTH 600 0
DWIDTH 15 0
BBX 7 12 4 10
BITMAP
3C
42
80
80
C0
40
30
10
10
10
10
10
ENDCHAR
STARTCHAR 0300
ENCODING 768
SWIDTH 600 0
DWIDTH 15 0
BBX 3 4 5 14
BITMAP
80
C0
60
20
ENDCHAR
STARTCHAR 0301
ENCODING 769
SWIDTH 600 0
DWIDTH 15 0
BBX 3 4 7 14
BITMAP
20
60
C0
80
ENDCHAR
STARTCHAR 0302
ENCODING 770
SWIDTH 600 0
DWIDTH 15 0
BBX 7 4 4 14
BITMAP
38
6C
44
82
ENDCHAR
STARTCHAR 0303
ENCODING 771
SWIDTH 600 0
DWIDTH 15 0
BBX 9 4 3 14
BITMAP
2080
4900
8D00
0200
ENDCHAR
STARTCHAR 0304
ENCODING 772
SWIDTH 600 0
DWIDTH 15 0
BBX 7 1 4 15
BITMAP
FE
ENDCHAR
STARTCHAR 0305
ENCODING 773
SWIDTH 600 0
DWIDTH 15 0
BBX 7 1 4 15
BITMAP
FE
ENDCHAR
STARTCHAR 0306
ENCODING 774
SWIDTH 600 0
DWIDTH 15 0
BBX 7 4 4 14
BITMAP
82
82
44
38
ENDCHAR
STARTCHAR 0307
ENCODING 775
SWIDTH 600 0
DWIDTH 15 0
BBX 3 2 6 15
BITMAP
E0
E0
ENDCHAR
STARTCHAR 0308
ENCODING 776
SWIDTH 600 0
DWIDTH 15 0
BBX 7 2 4 15
BITMAP
C6
C6
ENDCHAR
STARTCHAR 0309
ENCODING 777
SWIDTH 600 0
DWIDTH 15 0
BBX 3 5 6 14
BITMAP
80
60
20
20
40
ENDCHAR
STARTCHAR 030A
ENCODING 778
SWIDTH 600 0
DWIDTH 15 0
BBX 5 5 5 14
BITMAP
70
88
88
88
70
ENDCHAR
STARTCHAR 030B
ENCODING 779
SWIDTH 600 0
DWIDTH 15 0
BBX 6 5 5 14
BITMAP
20
24
44
48
88
ENDCHAR
STARTCHAR 030C
ENCODING 780
SWIDTH 600 0
DWIDTH 15 0
BBX 7 4 4 14
BITMAP
82
44
28
10
ENDCHAR
STARTCHAR 030F
ENCODING 783
SWIDTH 600 0
DWIDTH 15 0
BBX 6 5 4 14
BITMAP
10
90
88
48
44
ENDCHAR
STARTCHAR 0310
ENCODING 784
SWIDTH 600 0
DWIDTH 15 0
BBX 7 6 4 14
BITMAP
10
38
92
82
44
38
ENDCHAR
STARTCHAR 0311
ENCODING 785
SWIDTH 600 0
DWIDTH 15 0
BBX 7 4 4 14
BITMAP
38
C4
82
82
ENDCHAR
STARTCHAR 0312
ENCODING 786
SWIDTH 600 0
DWIDTH 15 0
BBX 3 4 6 14
BITMAP
60
40
80
40
ENDCHAR
STARTCHAR 0313
ENCODING 787
SWIDTH 600 0
DWIDTH 15 0
BBX 2 4 7 14
BITMAP
80
C0
80
80
ENDCHAR
STARTCHAR 0318
ENCODING 792
SWIDTH 600 0
DWIDTH 15 0
BBX 3 4 6 -6
BITMAP
20
E0
20
20
ENDCHAR
STARTCHAR 0319
ENCODING 793
SWIDTH 600 0
DWIDTH 15 0
BBX 3 4 6 -6
BITMAP
80
E0
80
80
ENDCHAR
STARTCHAR 031A
ENCODING 794
SWIDTH 600 0
DWIDTH 15 0
BBX 3 3 6 14
BITMAP
E0
20
20
ENDCHAR
STARTCHAR 031B
ENCODING 795
SWIDTH 600 0
DWIDTH 15 0
BBX 4 4 7 12
BITMAP
10
10
20
C0
ENDCHAR
STARTCHAR 031C
ENCODING 796
SWIDTH 600 0
DWIDTH 15 0
BBX 3 4 6 -6
BITMAP
60
80
80
C0
ENDCHAR
STARTCHAR 031D
ENCODING 797
SWIDTH 600 0
DWIDTH 15 0
BBX 5 3 5 -5
BITMAP
20
20
F8
ENDCHAR
STARTCHAR 031E
ENCODING 798
SWIDTH 600 0
DWIDTH 15 0
BBX 5 3 5 -6
BITMAP
F8
20
20
ENDCHAR
STARTCHAR 031F
ENCODING 799
SWIDTH 600 0
DWIDTH 15 0
BBX 5 4 5 -6
BITMAP
20
F8
20
20
ENDCHAR
STARTCHAR 0320
ENCODING 800
SWIDTH 600 0
DWIDTH 15 0
BBX 5 1 5 -4
BITMAP
F8
ENDCHAR
STARTCHAR 0323
ENCODING 803
SWIDTH 600 0
DWIDTH 15 0
BBX 3 2 6 -5
BITMAP
E0
E0
ENDCHAR
STARTCHAR 0324
ENCODING 804
SWIDTH 600 0
DWIDTH 15 0
BBX 7 2 4 -5
BITMAP
C6
C6
ENDCHAR
STARTCHAR 0325
ENCODING 805
SWIDTH 600 0
DWIDTH 15 0
BBX 5 5 5 -6
BITMAP
70
88
88
88
70
ENDCHAR
STARTCHAR 0326
ENCODING 806
SWIDTH 600 0
DWIDTH 15 0
BBX 3 3 6 -5
BITMAP
60
20
E0
ENDCHAR
STARTCHAR 0327
ENCODING 807
SWIDTH 600 0
DWIDTH 15 0
BBX 3 5 6 -5
BITMAP
40
80
60
20
E0
ENDCHAR
STARTCHAR 0328
ENCODING 808
SWIDTH 600 0
DWIDTH 15 0
BBX 5 6 5 -6
BITMAP
20
40
40
80
48
30
ENDCHAR
STARTCHAR 0329
ENCODING 809
SWIDTH 600 0
DWIDTH 15 0
BBX 1 5 7 -7
BITMAP
80
80
80
80
80
ENDCHAR
STARTCHAR 032A
ENCODING 810
SWIDTH 600 0
DWIDTH 15 0
BBX 5 3 5 -6
BITMAP
F8
88
88
ENDCHAR
STARTCHAR 032C
ENCODING 812
SWIDTH 600 0
DWIDTH 15 0
BBX 7 4 4 -6
BITMAP
82
44
28
10
ENDCHAR
STARTCHAR 032E
ENCODING 814
SWIDTH 600 0
DWIDTH 15 0
BBX 7 4 4 -6
BITMAP
82
82
44
38
ENDCHAR
STARTCHAR 032F
ENCODING 815
SWIDTH 600 0
DWIDTH 15 0
BBX 7 4 4 -6
BITMAP
38
C4
82
82
ENDCHAR
STARTCHAR 0330
ENCODING 816
SWIDTH 600 0
DWIDTH 15 0
BBX 9 4 3 -6
BITMAP
2080
4900
8D00
0200
ENDCHAR
STARTCHAR 0331
ENCODING 817
SWIDTH 600 0
DWIDTH 15 0
BBX 7 1 4 -4
BITMAP
FE
ENDCHAR
STARTCHAR 0334
ENCODING 820
SWIDTH 600 0
DWIDTH 15 0
BBX 9 4 3 4
BITMAP
2080
5880
8D00
0200
ENDCHAR
STARTCHAR 0339
ENCODING 825
SWIDTH 600 0
DWIDTH 15 0
BBX 3 4 6 -6
BITMAP
C0
20
20
60
ENDCHAR
STARTCHAR 033A
ENCODING 826
SWIDTH 600 0
DWIDTH 15 0
BBX 5 3 5 -5
BITMAP
88
88
F8
ENDCHAR
STARTCHAR 033B
ENCODING 827
SWIDTH 600 0
DWIDTH 15 0
BBX 5 4 5 -6
BITMAP
F8
88
88
F8
ENDCHAR
STARTCHAR 033C
ENCODING 828
SWIDTH 600 0
DWIDTH 15 0
BBX 7 4 4 -6
BITMAP
6C
B2
92
10
ENDCHAR
STARTCHAR 033D
ENCODING 829
SWIDTH 600 0
DWIDTH 15 0
BBX 5 3 5 14
BITMAP
D8
20
50
ENDCHAR
STARTCHAR 0342
ENCODING 834
SWIDTH 600 0
DWIDTH 15 0
BBX 9 4 3 14
BITMAP
2080
4900
8D00
0200
ENDCHAR
STARTCHAR 0345
ENCODING 837
SWIDTH 600 0
DWIDTH 15 0
BBX 2 3 7 -5
BITMAP
80
80
40
ENDCHAR
STARTCHAR 035F
ENCODING 863
SWIDTH 600 0
DWIDTH 15 0
BBX 25 1 -5 -4
BITMAP
FFFFFF80
ENDCHAR
STARTCHAR 0361
ENCODING 865
SWIDTH 600 0
DWIDTH 15 0
BBX 23 4 -4 15
BITMAP
03FF80
1C0070
60000C
800002
ENDCHAR
STARTCHAR 0374
ENCODING 884
SWIDTH 600 0
DWIDTH 15 0
BBX 1 5 7 12
BITMAP
80
80
80
80
80
ENDCHAR
STARTCHAR 0375
ENCODING 885
SWIDTH 600 0
DWIDTH 15 0
BBX 1 5 7 0
BITMAP
80
80
80
80
80
ENDCHAR
STARTCHAR 037A
ENCODING 890
SWIDTH 600 0
DWIDTH 15 0
BBX 2 3 7 -5
BITMAP
80
80
40
ENDCHAR
STARTCHAR 037E
ENCODING 894
SWIDTH 600 0
DWIDTH 15 0
BBX 4 17 5 -5
BITMAP
70
70
70
00
00
00
00
00
00
30
70
70
10
10
30
20
C0
ENDCHAR
STARTCHAR 0384
ENCODING 900
SWIDTH 600 0
DWIDTH 15 0
BBX 2 5 7 15
BITMAP
40
40
C0
80
80
ENDCHAR
STARTCHAR 0385
ENCODING 901
SWIDTH 600 0
DWIDTH 15 0
BBX 7 5 4 15
BITMAP
08
18
D6
D6
20
ENDCHAR
STARTCHAR 0386
ENCODING 902
SWIDTH 600 0
DWIDTH 15 0
BBX 13 17 1 0
BITMAP
4000
4300
4500
4500
4580
8880
8880
08C0
1040
1040
1FE0
2020
2020
6030
4010
4010
C018
ENDCHAR
STARTCHAR 0387
ENCODING 903
SWIDTH 600 0
DWIDTH 15 0
BBX 3 3 6 10
BITMAP
E0
E0
E0
ENDCHAR
STARTCHAR 0388
ENCODING 904
SWIDTH 600 0
DWIDTH 15 0
BBX 12 17 1 0
BITMAP
4000
4FF0
C800
8800
8800
8800
8800
0800
0FE0
0800
0800
0800
0800
0800
0800
0800
0FF0
ENDCHAR
STARTCHAR 0389
ENCODING 905
SWIDTH 600 0
DWIDTH 15 0
BBX 12 17 1 0
BITMAP
4000
4810
C810
8810
8810
8810
8810
0810
0FF0
0810
0810
0810
0810
0810
0810
0810
0810
ENDCHAR
STARTCHAR 038A
ENCODING 906
SWIDTH 600 0
DWIDTH 15 0
BBX 11 17 1 0
BITMAP
4000
5FE0
C100
8100
8100
8100
8100
0100
0100
0100
0100
0100
0100
0100
0100
0100
1FE0
ENDCHAR
STARTCHAR 038C
ENCODING 908
SWIDTH 600 0
DWIDTH 15 0
BBX 13 17 1 0
BITMAP
4380
46E0
C820
9810
9010
9010
9018
1018
1018
1018
1018
1010
1010
1010
0830
0C60
07C0
ENDCHAR
STARTCHAR 038E
ENCODING 910
SWIDTH 600 0
DWIDTH 15 0
BBX 13 17 1 0
BITMAP
4000
4808
4808
4410
4410
4230
8220
0120
0140
0140
0080
0080
0080
0080
0080
0080
0080
ENDCHAR
STARTCHAR 038F
ENCODING 911
SWIDTH 600 0
DWIDTH 15 0
BBX 13 17 1 0
BITMAP
4380
4640
C820
9810
9010
9010
9010
1018
1018
1010
1010
1010
1010
0830
0820
0440
3C78
ENDCHAR
STARTCHAR 0390
ENCODING 912
SWIDTH 600 0
DWIDTH 15 0
BBX 11 19 2 1
BITMAP
0200
0600
3580
3580
0800
0000
0000
FC00
0400
0400
0400
0400
0400
0400
0400
0400
0400
0400
03E0
ENDCHAR
STARTCHAR 0391
ENCODING 913
SWIDTH 600 0
DWIDTH 15 0
BBX 13 16 1 0
BITMAP
0200
0500
0500
0500
0880
0880
18C0
1040
1040
3FE0
2020
2020
6030
4010
4010
8018
ENDCHAR
STARTCHAR 0392
ENCODING 914
SWIDTH 600 0
DWIDTH 15 0
BBX 10 16 3 0
BITMAP
FF00
8180
8080
8080
8080
8080
8300
FF00
8080
8040
8040
8040
8040
8040
8180
FE00
ENDCHAR
STARTCHAR 0393
ENCODING 915
SWIDTH 600 0
DWIDTH 15 0
BBX 9 16 4 0
BITMAP
FF80
8000
8000
8000
8000
8000
8000
8000
8000
8000
8000
8000
8000
8000
8000
8000
ENDCHAR
STARTCHAR 0394
ENCODING 916
SWIDTH 600 0
DWIDTH 15 0
BBX 13 16 1 0
BITMAP
0200
0500
0500
0D00
0880
0880
18C0
1040
1040
2020
2020
2020
4010
4010
4010
FFF8
ENDCHAR
STARTCHAR 0395
ENCODING 917
SWIDTH 600 0
DWIDTH 15 0
BBX 10 16 3 0
BITMAP
FFC0
8000
8000
8000
8000
8000
8000
FF80
8000
8000
8000
8000
8000
8000
8000
FFC0
ENDCHAR
STARTCHAR 0396
ENCODING 918
SWIDTH 600 0
DWIDTH 15 0
BBX 11 17 2 0
BITMAP
7FE0
0020
0040
00C0
0080
0100
0300
0200
0400
0C00
0800
1000
3000
2000
4000
8000
FFE0
ENDCHAR
STARTCHAR 0397
ENCODING 919
SWIDTH 600 0
DWIDTH 15 0
BBX 11 16 2 0
BITMAP
8020
8020
8020
8020
8020
8020
8020
FFE0
8020
8020
8020
8020
8020
8020
8020
8020
ENDCHAR
STARTCHAR 0398
ENCODING 920
SWIDTH 600 0
DWIDTH 15 0
BBX 13 17 1 0
BITMAP
0700
18C0
3060
6030
4010
4010
C010
C018
CF98
C018
C018
4010
4010
6030
2020
1040
0F80
ENDCHAR
STARTCHAR 0399
ENCODING 921
SWIDTH 600 0
DWIDTH 15 0
BBX 9 16 3 0
BITMAP
FF80
0800
0800
0800
0800
0800
0800
0800
0800
0800
0800
0800
0800
0800
0800
FF80
ENDCHAR
STARTCHAR 039A
ENCODING 922
SWIDTH 600 0
DWIDTH 15 0
BBX 11 16 3 0
BITMAP
80C0
8180
8100
8200
8400
8800
9C00
B400
E200
C200
8100
8180
8080
8040
8040
8020
ENDCHAR
STARTCHAR 039B
ENCODING 923
SWIDTH 600 0
DWIDTH 15 0
BBX 11 16 2 0
BITMAP
0400
0A00
0A00
0A00
1100
1100
1100
2080
2080
2080
4040
4040
4040
8020
8020
8020
ENDCHAR
STARTCHAR 039C
ENCODING 924
SWIDTH 600 0
DWIDTH 15 0
BBX 11 16 2 0
BITMAP
C060
C060
A0A0
A0A0
A0A0
9120
9120
9B20
8A20
8A20
8420
8420
8020
8020
8020
8020
ENDCHAR
STARTCHAR 039D
ENCODING 925
SWIDTH 600 0
DWIDTH 15 0
BBX 11 16 2 0
BITMAP
C020
A020
A020
9020
9020
8820
8820
8420
8420
8220
8320
8120
80A0
80A0
8060
8060
ENDCHAR
STARTCHAR 039E
ENCODING 926
SWIDTH 600 0
DWIDTH 15 0
BBX 11 16 2 0
BITMAP
FFE0
0000
0000
0000
0000
0000
0000
3F80
0000
0000
0000
0000
0000
0000
0000
FFE0
ENDCHAR
STARTCHAR 039F
ENCODING 927
SWIDTH 600 0
DWIDTH 15 0
BBX 13 17 1 0
BITMAP
0700
18C0
3060
6030
4010
4010
C010
C018
C018
C018
C018
4010
4010
6030
2020
3040
0F80
ENDCHAR
STARTCHAR 03A0
ENCODING 928
SWIDTH 600 0
DWIDTH 15 0
BBX 11 16 2 0
BITMAP
FFE0
8020
8020
8020
8020
8020
8020
8020
8020
8020
8020
8020
8020
8020
8020
8020
ENDCHAR
STARTCHAR 03A1
ENCODING 929
SWIDTH 600 0
DWIDTH 15 0
BBX 10 16 3 0
BITMAP
FF80
80C0
8040
8040
8040
8040
80C0
8180
FE00
8000
8000
8000
8000
8000
8000
8000
ENDCHAR
STARTCHAR 03A3
ENCODING 931
SWIDTH 600 0
DWIDTH 15 0
BBX 11 16 2 0
BITMAP
FFC0
4000
2000
1000
0800
0C00
0400
0200
0600
0400
0800
1000
3000
6000
4000
FFE0
ENDCHAR
STARTCHAR 03A4
ENCODING 932
SWIDTH 600 0
DWIDTH 15 0
BBX 13 16 1 0
BITMAP
FFF8
0200
0200
0200
0200
0200
0200
0200
0200
0200
0200
0200
0200
0200
0200
0200
ENDCHAR
STARTCHAR 03A5
ENCODING 933
SWIDTH 600 0
DWIDTH 15 0
BBX 11 16 2 0
BITMAP
8020
C020
4040
60C0
2080
1100
1100
0A00
0A00
0400
0400
0400
0400
0400
0400
0400
ENDCHAR
STARTCHAR 03A6
ENCODING 934
SWIDTH 600 0
DWIDTH 15 0
BBX 13 18 1 -1
BITMAP
0200
0200
0F80
3260
6230
C210
8208
8208
8208
8208
8208
C218
4210
2220
1FC0
0200
0200
0200
ENDCHAR
STARTCHAR 03A7
ENCODING 935
SWIDTH 600 0
DWIDTH 15 0
BBX 11 16 2 0
BITMAP
4040
60C0
2080
1100
1100
0A00
0A00
0400
0A00
0A00
1100
3100
2080
60C0
4040
8020
ENDCHAR
STARTCHAR 03A8
ENCODING 936
SWIDTH 600 0
DWIDTH 15 0
BBX 13 16 1 0
BITMAP
C218
C218
C218
C218
C218
4210
4210
6230
3AE0
0700
0200
0200
0200
0200
0200
0200
ENDCHAR
STARTCHAR 03A9
ENCODING 937
SWIDTH 600 0
DWIDTH 15 0
BBX 13 17 1 0
BITMAP
0700
18C0
2020
6030
4010
4010
C018
C018
C018
C018
4010
4010
4010
2020
2020
1040
F8F8
ENDCHAR
STARTCHAR 03AA
ENCODING 938
SWIDTH 600 0
DWIDTH 15 0
BBX 9 20 3 0
BITMAP
2200
2200
0000
0000
FF80
0800
0800
0800
0800
0800
0800
0800
0800
0800
0800
0800
0800
0800
0800
FF80
ENDCHAR
STARTCHAR 03AB
ENCODING 939
SWIDTH 600 0
DWIDTH 15 0
BBX 11 20 2 0
BITMAP
1100
1100
0000
0000
8020
C020
4040
60C0
2080
1100
1100
0A00
0A00
0400
0400
0400
0400
0400
0400
0400
ENDCHAR
STARTCHAR 03AC
ENCODING 940
SWIDTH 600 0
DWIDTH 15 0
BBX 12 19 2 1
BITMAP
0100
0100
0300
0200
0200
0000
0000
3F20
60A0
40A0
8060
8040
8040
8040
8040
8040
C0C0
4140
3E70
ENDCHAR
STARTCHAR 03AD
ENCODING 941
SWIDTH 600 0
DWIDTH 15 0
BBX 10 19 3 1
BITMAP
0200
0200
0600
0400
0400
0000
0000
3F00
40C0
8000
8000
4000
3E00
6000
8000
8000
8000
C0C0
7F80
ENDCHAR
STARTCHAR 03AE
ENCODING 942
SWIDTH 600 0
DWIDTH 15 0
BBX 10 23 3 -3
BITMAP
0200
0200
0600
0400
0400
0000
0000
9F00
A080
C080
80C0
8040
8040
8040
8040
8040
8040
8040
8040
0040
00C0
00C0
00C0
ENDCHAR
STARTCHAR 03AF
ENCODING 943
SWIDTH 600 0
DWIDTH 15 0
BBX 11 19 2 1
BITMAP
0200
0200
0600
0400
0400
0000
0000
FC00
0400
0400
0400
0400
0400
0400
0400
0400
0400
0400
03E0
ENDCHAR
STARTCHAR 03B0
ENCODING 944
SWIDTH 600 0
DWIDTH 15 0
BBX 11 19 2 1
BITMAP
0200
0600
3580
3580
0800
0000
0000
8040
8040
8020
8020
8020
8020
8020
8020
8060
4040
6080
3F00
ENDCHAR
STARTCHAR 03B1
ENCODING 945
SWIDTH 600 0
DWIDTH 15 0
BBX 12 12 2 0
BITMAP
3F20
60A0
40A0
8060
8040
8040
8040
8040
8040
C0C0
4140
3E70
ENDCHAR
STARTCHAR 03B2
ENCODING 946
SWIDTH 600 0
DWIDTH 15 0
BBX 10 22 3 -4
BITMAP
3E00
4100
8180
8080
8080
8180
8100
8200
9C00
8380
80C0
8040
8040
8040
8040
8040
C080
BF00
8000
8000
8000
8000
ENDCHAR
STARTCHAR 03B3
ENCODING 947
SWIDTH 600 0
DWIDTH 15 0
BBX 11 16 2 -4
BITMAP
8020
4020
6060
2040
3040
1080
1080
0900
0900
0A00
0600
0400
0400
0400
0400
0400
ENDCHAR
STARTCHAR 03B4
ENCODING 948
SWIDTH 600 0
DWIDTH 15 0
BBX 11 18 2 0
BITMAP
3FC0
6020
4000
6000
3000
1800
0600
1F00
2080
4040
8020
8020
8020
8020
8020
C060
60C0
1F80
ENDCHAR
STARTCHAR 03B5
ENCODING 949
SWIDTH 600 0
DWIDTH 15 0
BBX 10 12 3 0
BITMAP
3F00
40C0
8000
8000
4000
3E00
6000
8000
8000
8000
C0C0
7F80
ENDCHAR
STARTCHAR 03B6
ENCODING 950
SWIDTH 600 0
DWIDTH 15 0
BBX 10 23 3 -5
BITMAP
7FC0
0080
0300
0600
0C00
1800
1000
2000
6000
4000
4000
C000
C000
C000
4000
4000
3000
1E00
01C0
0040
0040
0080
0080
ENDCHAR
STARTCHAR 03B7
ENCODING 951
SWIDTH 600 0
DWIDTH 15 0
BBX 10 16 3 -4
BITMAP
9F00
A080
C080
80C0
8040
8040
8040
8040
8040
8040
8040
8040
0040
00C0
00C0
00C0
ENDCHAR
STARTCHAR 03B8
ENCODING 952
SWIDTH 600 0
DWIDTH 15 0
BBX 11 18 2 0
BITMAP
1F00
2080
60C0
4040
4040
8020
8020
8020
FFE0
8020
8020
8020
8020
C060
4040
4040
2080
1F00
ENDCHAR
STARTCHAR 03B9
ENCODING 953
SWIDTH 600 0
DWIDTH 15 0
BBX 11 12 2 0
BITMAP
FC00
0400
0400
0400
0400
0400
0400
0400
0400
0400
0400
03E0
ENDCHAR
STARTCHAR 03BA
ENCODING 954
SWIDTH 600 0
DWIDTH 15 0
BBX 11 12 3 0
BITMAP
8060
8180
8600
8C00
9800
9400
A600
C200
C100
8080
8040
8060
ENDCHAR
STARTCHAR 03BB
ENCODING 955
SWIDTH 600 0
DWIDTH 15 0
BBX 11 18 2 0
BITMAP
F000
1800
0800
0400
0400
0600
0600
0600
0900
0900
1180
1080
2080
2040
6040
4040
C020
8020
ENDCHAR
STARTCHAR 03BC
ENCODING 956
SWIDTH 600 0
DWIDTH 15 0
BBX 11 17 2 -5
BITMAP
C040
C040
C040
C040
C040
C040
C040
C040
C040
C0C0
C140
BE60
8000
8000
8000
8000
8000
ENDCHAR
STARTCHAR 03BD
ENCODING 957
SWIDTH 600 0
DWIDTH 15 0
BBX 11 12 2 0
BITMAP
8020
4020
4020
2040
2040
10C0
1080
0880
0900
0B00
0600
0400
ENDCHAR
STARTCHAR 03BE
ENCODING 958
SWIDTH 600 0
DWIDTH 15 0
BBX 10 22 3 -5
BITMAP
FFC0
1000
2000
2000
6000
2000
2000
1800
0F00
3000
4000
4000
8000
8000
C000
4000
6000
1E00
01C0
0040
0040
0080
ENDCHAR
STARTCHAR 03BF
ENCODING 959
SWIDTH 600 0
DWIDTH 15 0
BBX 11 12 2 0
BITMAP
1F00
60C0
4040
8020
8020
8020
8020
8020
8020
4040
60C0
1F00
ENDCHAR
STARTCHAR 03C0
ENCODING 960
SWIDTH 600 0
DWIDTH 15 0
BBX 13 12 1 0
BITMAP
FFF8
2020
3020
2060
2060
2040
2040
2040
2040
2040
2040
2030
ENDCHAR
STARTCHAR 03C1
ENCODING 961
SWIDTH 600 0
DWIDTH 15 0
BBX 10 16 3 -4
BITMAP
3F00
6080
C0C0
8040
8040
8040
8040
8040
8040
8080
C180
BF00
8000
8000
8000
8000
ENDCHAR
STARTCHAR 03C2
ENCODING 962
SWIDTH 600 0
DWIDTH 15 0
BBX 10 16 3 -4
BITMAP
3F80
60C0
C000
8000
8000
8000
8000
8000
8000
6000
3800
0700
0080
0080
0080
0100
ENDCHAR
STARTCHAR 03C3
ENCODING 963
SWIDTH 600 0
DWIDTH 15 0
BBX 12 12 2 0
BITMAP
1FF0
6180
4040
8040
8020
8020
8020
8020
8060
C040
6080
3F00
ENDCHAR
STARTCHAR 03C4
ENCODING 964
SWIDTH 600 0
DWIDTH 15 0
BBX 11 12 2 0
BITMAP
FFE0
0400
0400
0400
0400
0400
0400
0400
0400
0400
0400
0780
ENDCHAR
STARTCHAR 03C5
ENCODING 965
SWIDTH 600 0
DWIDTH 15 0
BBX 11 12 2 0
BITMAP
8040
8040
8020
8020
8020
8020
8020
8020
8060
4040
6080
3F00
ENDCHAR
STARTCHAR 03C6
ENCODING 966
SWIDTH 600 0
DWIDTH 15 0
BBX 13 19 1 -4
BITMAP
0200
0200
0200
1FC0
2220
4230
4210
C218
C218
C218
C218
4210
4230
2260
1FC0
0200
0200
0200
0200
ENDCHAR
STARTCHAR 03C7
ENCODING 967
SWIDTH 600 0
DWIDTH 15 0
BBX 12 17 2 -5
BITMAP
8060
4040
6080
2080
1100
1B00
0A00
0400
0400
0A00
1900
1100
2080
6040
4040
C020
8030
ENDCHAR
STARTCHAR 03C8
ENCODING 968
SWIDTH 600 0
DWIDTH 15 0
BBX 11 19 2 -4
BITMAP
0400
0400
0400
8460
8420
8420
8420
8420
8420
8420
8420
8420
C460
44C0
3F80
0400
0400
0400
0400
ENDCHAR
STARTCHAR 03C9
ENCODING 969
SWIDTH 600 0
DWIDTH 15 0
BBX 13 12 1 0
BITMAP
2020
6030
4010
4018
8008
8208
8208
8208
8208
C218
4510
3DE0
ENDCHAR
STARTCHAR 03CA
ENCODING 970
SWIDTH 600 0
DWIDTH 15 0
BBX 11 17 2 0
BITMAP
3180
3180
0000
0000
0000
FC00
0400
0400
0400
0400
0400
0400
0400
0400
0400
0400
03E0
ENDCHAR
STARTCHAR 03CB
ENCODING 971
SWIDTH 600 0
DWIDTH 15 0
BBX 11 17 2 0
BITMAP
3180
3180
0000
0000
0000
8040
8040
8020
8020
8020
8020
8020
8020
8060
4040
6080
3F00
ENDCHAR
STARTCHAR 03CC
ENCODING 972
SWIDTH 600 0
DWIDTH 15 0
BBX 11 19 2 1
BITMAP
0200
0200
0600
0400
0400
0000
0000
1F00
60C0
4040
8020
8020
8020
8020
8020
8020
4040
60C0
1F00
ENDCHAR
STARTCHAR 03CD
ENCODING 973
SWIDTH 600 0
DWIDTH 15 0
BBX 11 19 2 1
BITMAP
0200
0200
0600
0400
0400
0000
0000
8040
8040
8020
8020
8020
8020
8020
8020
8060
4040
6080
3F00
ENDCHAR
STARTCHAR 03CE
ENCODING 974
SWIDTH 600 0
DWIDTH 15 0
BBX 13 19 1 1
BITMAP
0100
0100
0300
0200
0200
0000
0000
2020
6030
4010
4018
8008
8208
8208
8208
8208
C218
4510
3DE0
ENDCHAR
STARTCHAR 03D0
ENCODING 976
SWIDTH 600 0
DWIDTH 15 0
BBX 10 18 3 0
BITMAP
3E00
4100
8180
8080
8080
8180
8100
8600
9C00
E380
80C0
8040
8040
8040
8040
C040
6080
3F00
ENDCHAR
STARTCHAR 03D1
ENCODING 977
SWIDTH 600 0
DWIDTH 15 0
BBX 11 18 2 0
BITMAP
3F00
6080
40C0
C040
8040
C020
4020
2020
1EE0
0120
0020
4020
4020
4060
4040
4040
2080
1F00
ENDCHAR
STARTCHAR 03D5
ENCODING 981
SWIDTH 600 0
DWIDTH 15 0
BBX 13 19 1 -4
BITMAP
0200
0200
0200
1FC0
2220
4230
4210
C218
C218
C218
C218
4210
4230
2260
1FC0
0200
0200
0200
0200
ENDCHAR
STARTCHAR 03D7
ENCODING 983
SWIDTH 600 0
DWIDTH 15 0
BBX 11 17 3 -5
BITMAP
8060
8180
8600
8C00
9800
9400
A600
C200
C100
8080
8040
8060
0020
0040
00C0
0180
0100
ENDCHAR
STARTCHAR 03D9
ENCODING 985
SWIDTH 600 0
DWIDTH 15 0
BBX 11 16 2 -4
BITMAP
3F00
60C0
4040
8020
8020
8020
8020
8020
8020
4040
60C0
3F80
0400
0400
0400
0400
ENDCHAR
STARTCHAR 03DB
ENCODING 987
SWIDTH 600 0
DWIDTH 15 0
BBX 10 16 3 -4
BITMAP
1FC0
6000
C000
8000
8000
8000
8000
8000
8000
6000
3800
0700
0080
0080
0080
0100
ENDCHAR
STARTCHAR 03DD
ENCODING 989
SWIDTH 600 0
DWIDTH 15 0
BBX 9 16 4 -4
BITMAP
FF80
8000
8000
8000
8000
8000
8000
FF00
8000
8000
8000
8000
8000
8000
8000
8000
ENDCHAR
STARTCHAR 03E1
ENCODING 993
SWIDTH 600 0
DWIDTH 15 0
BBX 11 21 2 -4
BITMAP
4000
3000
1800
0400
0600
0200
0100
0180
0680
1880
6040
8040
01C0
0640
1820
2020
0020
0020
0020
0060
0040
ENDCHAR
STARTCHAR 0400
ENCODING 1024
SWIDTH 600 0
DWIDTH 15 0
BBX 10 21 3 0
BITMAP
1000
0800
0400
0000
0000
FFC0
8000
8000
8000
8000
8000
8000
FF80
8000
8000
8000
8000
8000
8000
8000
FFC0
ENDCHAR
STARTCHAR 0401
ENCODING 1025
SWIDTH 600 0
DWIDTH 15 0
BBX 10 20 3 0
BITMAP
1100
1100
0000
0000
FFC0
8000
8000
8000
8000
8000
8000
FF80
8000
8000
8000
8000
8000
8000
8000
FFC0
ENDCHAR
STARTCHAR 0402
ENCODING 1026
SWIDTH 600 0
DWIDTH 15 0
BBX 14 16 0 0
BITMAP
FFF0
0400
0400
0400
0400
0400
07E0
0418
040C
0404
0404
0404
0404
0404
040C
0478
ENDCHAR
STARTCHAR 0403
ENCODING 1027
SWIDTH 600 0
DWIDTH 15 0
BBX 9 21 4 0
BITMAP
0400
0800
1000
0000
0000
FF80
8000
8000
8000
8000
8000
8000
8000
8000
8000
8000
8000
8000
8000
8000
8000
ENDCHAR
STARTCHAR 0404
ENCODING 1028
SWIDTH 600 0
DWIDTH 15 0
BBX 11 17 2 0
BITMAP
0700
1CC0
2020
4000
4000
8000
8000
8000
FF80
8000
8000
8000
8000
4000
6000
3060
1FC0
ENDCHAR
STARTCHAR 0405
ENCODING 1029
SWIDTH 600 0
DWIDTH 15 0
BBX 11 17 2 0
BITMAP
0F00
31C0
6040
4000
4000
4000
2000
1800
0700
0180
0040
0020
0020
0020
8020
6040
3F80
ENDCHAR
STARTCHAR 0406
ENCODING 1030
SWIDTH 600 0
DWIDTH 15 0
BBX 9 16 3 0
BITMAP
FF80
0800
0800
0800
0800
0800
0800
0800
0800
0800
0800
0800
0800
0800
0800
FF80
ENDCHAR
STARTCHAR 0407
ENCODING 1031
SWIDTH 600 0
DWIDTH 15 0
BBX 9 20 3 0
BITMAP
2200
2200
0000
0000
FF80
0800
0800
0800
0800
0800
0800
0800
0800
0800
0800
0800
0800
0800
0800
FF80
ENDCHAR
STARTCHAR 0408
ENCODING 1032
SWIDTH 600 0
DWIDTH 15 0
BBX 10 17 2 0
BITMAP
3FC0
0040
0040
0040
0040
0040
0040
0040
0040
0040
0040
0040
0040
0040
C0C0
6080
3F00
ENDCHAR
STARTCHAR 0409
ENCODING 1033
SWIDTH 600 0
DWIDTH 15 0
BBX 14 16 0 0
BITMAP
1F80
1180
1180
1180
1180
1180
1180
11F0
118C
1184
3184
2184
2184
2184
2188
C1F0
ENDCHAR
STARTCHAR 040A
ENCODING 1034
SWIDTH 600 0
DWIDTH 15 0
BBX 13 16 1 0
BITMAP
8200
8200
8200
8200
8200
8200
8200
FFE0
8218
8208
8208
8208
8208
8208
8210
83E0
ENDCHAR
STARTCHAR 040B
ENCODING 1035
SWIDTH 600 0
DWIDTH 15 0
BBX 14 16 0 0
BITMAP
FFF0
0400
0400
0400
0400
0400
07E0
0418
040C
0404
0404
0404
0404
0404
0404
0404
ENDCHAR
STARTCHAR 040C
ENCODING 1036
SWIDTH 600 0
DWIDTH 15 0
BBX 11 21 3 0
BITMAP
0200
0400
0800
0000
0060
80C0
8180
8100
8200
8200
8400
8400
FC00
8400
8200
8300
8100
8080
80C0
8040
8020
ENDCHAR
STARTCHAR 040D
ENCODING 1037
SWIDTH 600 0
DWIDTH 15 0
BBX 11 21 2 0
BITMAP
1000
0800
0400
0000
0000
8060
80E0
80A0
8120
8120
8220
8220
8420
8C20
8820
9820
9020
A020
A020
C020
C020
ENDCHAR
STARTCHAR 040E
ENCODING 1038
SWIDTH 600 0
DWIDTH 15 0
BBX 11 21 2 0
BITMAP
2080
3180
1F00
0000
0000
8020
C020
4040
4040
20C0
2080
1080
1100
1900
0B00
0A00
0600
0400
0400
0800
7800
ENDCHAR
STARTCHAR 040F
ENCODING 1039
SWIDTH 600 0
DWIDTH 15 0
BBX 11 21 2 -5
BITMAP
8020
8020
8020
8020
8020
8020
8020
8020
8020
8020
8020
8020
8020
8020
8020
FFE0
0400
0400
0400
0400
0400
ENDCHAR
STARTCHAR 0410
ENCODING 1040
SWIDTH 600 0
DWIDTH 15 0
BBX 13 16 1 0
BITMAP
0200
0500
0500
0500
0880
0880
18C0
1040
1040
3FE0
2020
2020
6030
4010
4010
8018
ENDCHAR
STARTCHAR 0411
ENCODING 1041
SWIDTH 600 0
DWIDTH 15 0
BBX 10 16 3 0
BITMAP
FF80
8000
8000
8000
8000
8000
8000
FF00
80C0
8040
8040
8040
8040
8040
8180
FF00
ENDCHAR
STARTCHAR 0412
ENCODING 1042
SWIDTH 600 0
DWIDTH 15 0
BBX 10 16 3 0
BITMAP
FF00
8180
8080
8080
8080
8080
8300
FF00
8080
8040
8040
8040
8040
8040
8180
FE00
ENDCHAR
STARTCHAR 0413
ENCODING 1043
SWIDTH 600 0
DWIDTH 15 0
BBX 9 16 4 0
BITMAP
FF80
8000
8000
8000
8000
8000
8000
8000
8000
8000
8000
8000
8000
8000
8000
8000
ENDCHAR
STARTCHAR 0414
ENCODING 1044
SWIDTH 600 0
DWIDTH 15 0
BBX 13 21 1 -5
BITMAP
0FF0
0830
0830
0830
1030
1030
1030
1030
1030
1030
2030
2030
2030
6030
4030
FFF8
8008
8008
8008
8008
8008
ENDCHAR
STARTCHAR 0415
ENCODING 1045
SWIDTH 600 0
DWIDTH 15 0
BBX 10 16 3 0
BITMAP
FFC0
8000
8000
8000
8000
8000
8000
FF80
8000
8000
8000
8000
8000
8000
8000
FFC0
ENDCHAR
STARTCHAR 0416
ENCODING 1046
SWIDTH 600 0
DWIDTH 15 0
BBX 15 17 0 0
BITMAP
C006
610C
2108
3118
1110
1110
1930
0920
0FE0
1110
1110
3118
2108
2108
4104
4104
C106
ENDCHAR
STARTCHAR 0417
ENCODING 1047
SWIDTH 600 0
DWIDTH 15 0
BBX 11 17 2 0
BITMAP
0E00
7180
4040
0040
0040
0040
0040
0180
1F80
00C0
0020
0020
0020
0020
8060
C0C0
3F80
ENDCHAR
STARTCHAR 0418
ENCODING 1048
SWIDTH 600 0
DWIDTH 15 0
BBX 11 16 2 0
BITMAP
8060
80E0
80A0
8120
8120
8220
8220
8420
8C20
8820
9820
9020
A020
A020
C020
C020
ENDCHAR
STARTCHAR 0419
ENCODING 1049
SWIDTH 600 0
DWIDTH 15 0
BBX 11 21 2 0
BITMAP
2080
3180
1F00
0000
0000
8060
80E0
80A0
8120
8120
8220
8220
8420
8C20
8820
9820
9020
A020
A020
C020
C020
ENDCHAR
STARTCHAR 041A
ENCODING 1050
SWIDTH 600 0
DWIDTH 15 0
BBX 11 17 3 0
BITMAP
0060
80C0
8180
8100
8200
8200
8400
8400
FC00
8400
8200
8300
8100
8080
80C0
8040
8020
ENDCHAR
STARTCHAR 041B
ENCODING 1051
SWIDTH 600 0
DWIDTH 15 0
BBX 13 16 0 0
BITMAP
07F8
0408
0408
0408
0408
0C08
0808
0808
0808
0808
1808
1008
1008
1008
3008
E008
ENDCHAR
STARTCHAR 041C
ENCODING 1052
SWIDTH 600 0
DWIDTH 15 0
BBX 11 16 2 0
BITMAP
C060
C060
A0A0
A0A0
A0A0
9120
9120
9B20
8A20
8A20
8420
8420
8020
8020
8020
8020
ENDCHAR
STARTCHAR 041D
ENCODING 1053
SWIDTH 600 0
DWIDTH 15 0
BBX 11 16 2 0
BITMAP
8020
8020
8020
8020
8020
8020
8020
FFE0
8020
8020
8020
8020
8020
8020
8020
8020
ENDCHAR
STARTCHAR 041E
ENCODING 1054
SWIDTH 600 0
DWIDTH 15 0
BBX 13 17 1 0
BITMAP
0700
18C0
3060
6030
4010
4010
C010
C018
C018
C018
C018
4010
4010
6030
2020
3040
0F80
ENDCHAR
STARTCHAR 041F
ENCODING 1055
SWIDTH 600 0
DWIDTH 15 0
BBX 11 16 2 0
BITMAP
FFE0
8020
8020
8020
8020
8020
8020
8020
8020
8020
8020
8020
8020
8020
8020
8020
ENDCHAR
STARTCHAR 0420
ENCODING 1056
SWIDTH 600 0
DWIDTH 15 0
BBX 10 16 3 0
BITMAP
FF80
80C0
8040
8040
8040
8040
80C0
8180
FE00
8000
8000
8000
8000
8000
8000
8000
ENDCHAR
STARTCHAR 0421
ENCODING 1057
SWIDTH 600 0
DWIDTH 15 0
BBX 11 17 2 0
BITMAP
0780
18C0
2020
4000
4000
8000
8000
8000
8000
8000
8000
8000
C000
4000
6000
3060
0FC0
ENDCHAR
STARTCHAR 0422
ENCODING 1058
SWIDTH 600 0
DWIDTH 15 0
BBX 13 16 1 0
BITMAP
FFF8
0200
0200
0200
0200
0200
0200
0200
0200
0200
0200
0200
0200
0200
0200
0200
ENDCHAR
STARTCHAR 0423
ENCODING 1059
SWIDTH 600 0
DWIDTH 15 0
BBX 11 16 2 0
BITMAP
8020
C020
4040
4040
20C0
2080
1080
1100
1900
0B00
0A00
0600
0400
0400
0800
7800
ENDCHAR
STARTCHAR 0424
ENCODING 1060
SWIDTH 600 0
DWIDTH 15 0
BBX 13 17 1 0
BITMAP
0200
0200
0200
1FC0
6230
4210
8208
8208
8208
8208
8208
C218
4210
3260
0F80
0200
0200
ENDCHAR
STARTCHAR 0425
ENCODING 1061
SWIDTH 600 0
DWIDTH 15 0
BBX 11 16 2 0
BITMAP
4040
60C0
2080
1100
1100
0A00
0A00
0400
0A00
0A00
1100
3100
2080
60C0
4040
8020
ENDCHAR
STARTCHAR 0426
ENCODING 1062
SWIDTH 600 0
DWIDTH 15 0
BBX 13 21 2 -5
BITMAP
8020
8020
8020
8020
8020
8020
8020
8020
8020
8020
8020
8020
8020
8020
8020
FFF8
0010
0010
0010
0010
0010
ENDCHAR
STARTCHAR 0427
ENCODING 1063
SWIDTH 600 0
DWIDTH 15 0
BBX 11 16 2 0
BITMAP
8060
8060
8060
8060
8060
8060
4060
3FE0
0060
0060
0060
0060
0060
0060
0060
0060
ENDCHAR
STARTCHAR 0428
ENCODING 1064
SWIDTH 600 0
DWIDTH 15 0
BBX 13 16 1 0
BITMAP
8208
8208
8208
8208
8208
8208
8208
8208
8208
8208
8208
8208
8208
8208
8208
FFF8
ENDCHAR
STARTCHAR 0429
ENCODING 1065
SWIDTH 600 0
DWIDTH 15 0
BBX 14 21 1 -5
BITMAP
8610
8610
8610
8610
8610
8610
8610
8610
8610
8610
8610
8610
8610
8610
8610
FFFC
000C
0008
0008
0008
0008
ENDCHAR
STARTCHAR 042A
ENCODING 1066
SWIDTH 600 0
DWIDTH 15 0
BBX 14 16 0 0
BITMAP
FE00
0200
0200
0200
0200
0200
0200
03F0
020C
0204
0204
0204
0204
0204
0218
03F0
ENDCHAR
STARTCHAR 042B
ENCODING 1067
SWIDTH 600 0
DWIDTH 15 0
BBX 11 16 2 0
BITMAP
8020
8020
8020
8020
8020
8020
8020
FC20
8620
8220
8120
8120
8320
8220
8620
F820
ENDCHAR
STARTCHAR 042C
ENCODING 1068
SWIDTH 600 0
DWIDTH 15 0
BBX 10 16 3 0
BITMAP
8000
8000
8000
8000
8000
8000
8000
FF00
80C0
8040
8040
8040
8040
8040
8180
FF00
ENDCHAR
STARTCHAR 042D
ENCODING 1069
SWIDTH 600 0
DWIDTH 15 0
BBX 11 17 2 0
BITMAP
1C00
6300
8080
0040
0040
0020
0020
0020
3FE0
0020
0020
0020
0060
0040
00C0
C180
7F00
ENDCHAR
STARTCHAR 042E
ENCODING 1070
SWIDTH 600 0
DWIDTH 15 0
BBX 13 17 1 0
BITMAP
01C0
8360
8430
8410
8C10
8818
8808
8808
F808
8808
8808
8818
8818
8410
8410
8620
83E0
ENDCHAR
STARTCHAR 042F
ENCODING 1071
SWIDTH 600 0
DWIDTH 15 0
BBX 11 16 1 0
BITMAP
3FE0
2020
4020
4020
4020
4020
2020
1FE0
0420
0C20
0820
1020
3020
2020
4020
C020
ENDCHAR
STARTCHAR 0430
ENCODING 1072
SWIDTH 600 0
DWIDTH 15 0
BBX 11 12 2 0
BITMAP
1F80
60C0
0040
0060
0060
0FE0
3060
4060
8060
8060
40A0
3F20
ENDCHAR
STARTCHAR 0431
ENCODING 1073
SWIDTH 600 0
DWIDTH 15 0
BBX 11 18 2 0
BITMAP
01C0
0F00
3000
2000
4000
4000
C600
B980
C040
C060
8020
8020
8020
8020
4020
4040
20C0
1F80
ENDCHAR
STARTCHAR 0432
ENCODING 1074
SWIDTH 600 0
DWIDTH 15 0
BBX 10 12 3 0
BITMAP
FF00
8080
8040
8040
8080
FF00
8180
8040
8040
8040
80C0
FF00
ENDCHAR
STARTCHAR 0433
ENCODING 1075
SWIDTH 600 0
DWIDTH 15 0
BBX 9 12 4 0
BITMAP
FF80
8000
8000
8000
8000
8000
8000
8000
8000
8000
8000
8000
ENDCHAR
STARTCHAR 0434
ENCODING 1076
SWIDTH 600 0
DWIDTH 15 0
BBX 13 16 1 -4
BITMAP
1FE0
1020
1020
1020
1020
1020
1020
2020
2020
2020
6020
FFF8
C018
8018
4010
4010
ENDCHAR
STARTCHAR 0435
ENCODING 1077
SWIDTH 600 0
DWIDTH 15 0
BBX 11 12 2 0
BITMAP
1F80
2040
4020
C020
8020
FFE0
8000
8000
C000
4000
2020
1FC0
ENDCHAR
STARTCHAR 0436
ENCODING 1078
SWIDTH 600 0
DWIDTH 15 0
BBX 15 12 0 0
BITMAP
E10E
2108
1110
1110
1110
0FE0
1110
1110
2108
2108
4104
C106
ENDCHAR
STARTCHAR 0437
ENCODING 1079
SWIDTH 600 0
DWIDTH 15 0
BBX 10 12 2 0
BITMAP
7F00
C080
0040
00C0
0080
1F00
0180
0040
0040
0040
80C0
7F80
ENDCHAR
STARTCHAR 0438
ENCODING 1080
SWIDTH 600 0
DWIDTH 15 0
BBX 9 12 3 0
BITMAP
8080
8180
8280
8280
8480
8880
8880
9080
A080
A080
C080
8080
ENDCHAR
STARTCHAR 0439
ENCODING 1081
SWIDTH 600 0
DWIDTH 15 0
BBX 9 18 3 0
BITMAP
4100
4100
2200
1C00
0000
0000
8080
8180
8280
8280
8480
8880
8880
9080
A080
A080
C080
8080
ENDCHAR
STARTCHAR 043A
ENCODING 1082
SWIDTH 600 0
DWIDTH 15 0
BBX 10 12 3 0
BITMAP
80C0
8180
8100
8200
8200
FC00
8600
8200
8100
8080
80C0
8040
ENDCHAR
STARTCHAR 043B
ENCODING 1083
SWIDTH 600 0
DWIDTH 15 0
BBX 11 12 1 0
BITMAP
1FE0
1020
1020
1020
1020
1020
1020
1020
2020
2020
2020
C020
ENDCHAR
STARTCHAR 043C
ENCODING 1084
SWIDTH 600 0
DWIDTH 15 0
BBX 11 12 2 0
BITMAP
C060
C060
C060
A0A0
A0A0
9120
9120
8A20
8A20
8A20
8420
8020
ENDCHAR
STARTCHAR 043D
ENCODING 1085
SWIDTH 600 0
DWIDTH 15 0
BBX 9 12 3 0
BITMAP
8080
8080
8080
8080
8080
FF80
8080
8080
8080
8080
8080
8080
ENDCHAR
STARTCHAR 043E
ENCODING 1086
SWIDTH 600 0
DWIDTH 15 0
BBX 11 12 2 0
BITMAP
1F00
60C0
4040
8020
8020
8020
8020
8020
8020
4040
60C0
1F00
ENDCHAR
STARTCHAR 043F
ENCODING 1087
SWIDTH 600 0
DWIDTH 15 0
BBX 9 12 3 0
BITMAP
FF80
8080
8080
8080
8080
8080
8080
8080
8080
8080
8080
8080
ENDCHAR
STARTCHAR 0440
ENCODING 1088
SWIDTH 600 0
DWIDTH 15 0
BBX 10 17 3 -5
BITMAP
BF00
C080
80C0
8040
8040
8040
8040
8040
8040
8080
C180
BF00
8000
8000
8000
8000
8000
ENDCHAR
STARTCHAR 0441
ENCODING 1089
SWIDTH 600 0
DWIDTH 15 0
BBX 11 12 2 0
BITMAP
1FC0
3060
6000
4000
C000
8000
8000
8000
4000
4000
3020
1FC0
ENDCHAR
STARTCHAR 0442
ENCODING 1090
SWIDTH 600 0
DWIDTH 15 0
BBX 11 12 2 0
BITMAP
FFE0
0400
0400
0400
0400
0400
0400
0400
0400
0400
0400
0400
ENDCHAR
STARTCHAR 0443
ENCODING 1091
SWIDTH 600 0
DWIDTH 15 0
BBX 11 17 2 -5
BITMAP
8020
8020
4040
4040
2040
2080
1080
1100
0900
0B00
0600
0600
0400
0400
0800
1800
F000
ENDCHAR
STARTCHAR 0444
ENCODING 1092
SWIDTH 600 0
DWIDTH 15 0
BBX 13 23 1 -5
BITMAP
0200
0200
0200
0200
0200
0200
3FE0
4210
4218
8208
8208
8208
8208
8208
8208
C210
4210
3FE0
0200
0200
0200
0200
0200
ENDCHAR
STARTCHAR 0445
ENCODING 1093
SWIDTH 600 0
DWIDTH 15 0
BBX 11 12 2 0
BITMAP
4040
2080
3080
1100
0A00
0400
0E00
1A00
1100
2080
4040
C060
ENDCHAR
STARTCHAR 0446
ENCODING 1094
SWIDTH 600 0
DWIDTH 15 0
BBX 11 16 3 -4
BITMAP
8080
8080
8080
8080
8080
8080
8080
8080
8080
8080
8080
FFE0
0020
0020
0020
0020
ENDCHAR
STARTCHAR 0447
ENCODING 1095
SWIDTH 600 0
DWIDTH 15 0
BBX 9 12 3 0
BITMAP
8080
8080
8080
8080
8080
C080
7F80
0080
0080
0080
0080
0080
ENDCHAR
STARTCHAR 0448
ENCODING 1096
SWIDTH 600 0
DWIDTH 15 0
BBX 11 12 2 0
BITMAP
8420
8420
8420
8420
8420
8420
8420
8420
8420
8420
8420
FFE0
ENDCHAR
STARTCHAR 0449
ENCODING 1097
SWIDTH 600 0
DWIDTH 15 0
BBX 13 16 2 -4
BITMAP
8420
8420
8420
8420
8420
8420
8420
8420
8420
8420
8420
FFF8
0008
0008
0008
0008
ENDCHAR
STARTCHAR 044A
ENCODING 1098
SWIDTH 600 0
DWIDTH 15 0
BBX 13 12 1 0
BITMAP
FC00
0400
0400
0400
0400
07E0
0410
0418
0418
0410
0430
07E0
ENDCHAR
STARTCHAR 044B
ENCODING 1099
SWIDTH 600 0
DWIDTH 15 0
BBX 11 12 2 0
BITMAP
8020
8020
8020
8020
8020
FC20
8220
8120
8120
8120
8220
FC20
ENDCHAR
STARTCHAR 044C
ENCODING 1100
SWIDTH 600 0
DWIDTH 15 0
BBX 8 12 4 0
BITMAP
80
80
80
80
80
FE
81
81
81
81
83
FE
ENDCHAR
STARTCHAR 044D
ENCODING 1101
SWIDTH 600 0
DWIDTH 15 0
BBX 11 12 2 0
BITMAP
7F00
C080
0040
0040
0020
1FE0
0020
0020
0040
0040
8080
7F00
ENDCHAR
STARTCHAR 044E
ENCODING 1102
SWIDTH 600 0
DWIDTH 15 0
BBX 13 12 1 0
BITMAP
83E0
8630
8410
8818
8808
F808
8808
8808
8818
8410
8430
83E0
ENDCHAR
STARTCHAR 044F
ENCODING 1103
SWIDTH 600 0
DWIDTH 15 0
BBX 10 12 2 0
BITMAP
3FC0
C040
8040
8040
8040
6040
3FC0
1040
3040
2040
4040
8040
ENDCHAR
STARTCHAR 0450
ENCODING 1104
SWIDTH 600 0
DWIDTH 15 0
BBX 11 19 2 0
BITMAP
1000
1800
0C00
0400
0000
0000
0000
1F80
2040
4020
C020
8020
FFE0
8000
8000
C000
4000
2020
1FC0
ENDCHAR
STARTCHAR 0451
ENCODING 1105
SWIDTH 600 0
DWIDTH 15 0
BBX 11 17 2 0
BITMAP
3180
3180
0000
0000
0000
1F80
2040
4020
C020
8020
FFE0
8000
8000
C000
4000
2020
1FC0
ENDCHAR
STARTCHAR 0452
ENCODING 1106
SWIDTH 600 0
DWIDTH 15 0
BBX 12 24 1 -6
BITMAP
2000
2000
2000
FF00
2000
2000
2380
2CE0
3020
2030
2010
2010
2010
2010
2010
2010
2010
2010
0010
0010
0030
0020
0040
0380
ENDCHAR
STARTCHAR 0453
ENCODING 1107
SWIDTH 600 0
DWIDTH 15 0
BBX 9 19 4 0
BITMAP
0200
0600
0C00
0800
0000
0000
0000
FF80
8000
8000
8000
8000
8000
8000
8000
8000
8000
8000
8000
ENDCHAR
STARTCHAR 0454
ENCODING 1108
SWIDTH 600 0
DWIDTH 15 0
BBX 11 12 2 0
BITMAP
1FC0
3060
4000
4000
C000
FF80
8000
8000
4000
4000
2020
1FC0
ENDCHAR
STARTCHAR 0455
ENCODING 1109
SWIDTH 600 0
DWIDTH 15 0
BBX 11 12 2 0
BITMAP
3F80
4040
4000
4000
6000
1E00
0180
0060
0020
0020
C040
3F80
ENDCHAR
STARTCHAR 0456
ENCODING 1110
SWIDTH 600 0
DWIDTH 15 0
BBX 8 17 2 0
BITMAP
07
07
00
00
00
FF
03
03
03
03
03
03
03
03
03
03
03
ENDCHAR
STARTCHAR 0457
ENCODING 1111
SWIDTH 600 0
DWIDTH 15 0
BBX 10 17 2 0
BITMAP
18C0
18C0
0000
0000
0000
FF00
0300
0300
0300
0300
0300
0300
0300
0300
0300
0300
0300
ENDCHAR
STARTCHAR 0458
ENCODING 1112
SWIDTH 600 0
DWIDTH 15 0
BBX 8 23 2 -6
BITMAP
07
07
00
00
00
FF
03
03
03
03
03
03
03
03
03
03
03
03
03
02
02
84
78
ENDCHAR
STARTCHAR 0459
ENCODING 1113
SWIDTH 600 0
DWIDTH 15 0
BBX 13 12 0 0
BITMAP
1F80
1180
1180
1180
1180
11F0
1188
1188
3188
2188
2198
C1F0
ENDCHAR
STARTCHAR 045A
ENCODING 1114
SWIDTH 600 0
DWIDTH 15 0
BBX 11 12 2 0
BITMAP
8400
8400
8400
8400
8400
FFC0
8420
8420
8420
8420
8460
87C0
ENDCHAR
STARTCHAR 045B
ENCODING 1115
SWIDTH 600 0
DWIDTH 15 0
BBX 12 18 1 0
BITMAP
2000
2000
2000
FF00
2000
2000
2380
2C60
3020
2010
2010
2010
2010
2010
2010
2010
2010
2010
ENDCHAR
STARTCHAR 045C
ENCODING 1116
SWIDTH 600 0
DWIDTH 15 0
BBX 10 19 3 0
BITMAP
0100
0300
0600
0400
0000
0000
0000
80C0
8180
8100
8200
8200
FC00
8600
8200
8100
8080
80C0
8040
ENDCHAR
STARTCHAR 045D
ENCODING 1117
SWIDTH 600 0
DWIDTH 15 0
BBX 9 19 3 0
BITMAP
2000
3000
1800
0800
0000
0000
0000
8080
8180
8280
8280
8480
8880
8880
9080
A080
A080
C080
8080
ENDCHAR
STARTCHAR 045E
ENCODING 1118
SWIDTH 600 0
DWIDTH 15 0
BBX 11 23 2 -5
BITMAP
2080
2080
1100
0E00
0000
0000
8020
8020
4040
4040
2040
2080
1080
1100
0900
0B00
0600
0600
0400
0400
0800
1800
F000
ENDCHAR
STARTCHAR 045F
ENCODING 1119
SWIDTH 600 0
DWIDTH 15 0
BBX 9 16 3 -4
BITMAP
8080
8080
8080
8080
8080
8080
8080
8080
8080
8080
8080
FF80
0800
0800
0800
0800
ENDCHAR
STARTCHAR 0462
ENCODING 1122
SWIDTH 600 0
DWIDTH 15 0
BBX 12 18 1 0
BITMAP
1800
1800
1800
1800
FFC0
1800
1800
1800
1800
1FC0
1830
1810
1810
1810
1810
1810
1820
1FC0
ENDCHAR
STARTCHAR 0463
ENCODING 1123
SWIDTH 600 0
DWIDTH 15 0
BBX 12 15 1 0
BITMAP
0800
0800
0800
FFC0
0800
0800
0800
0800
0FE0
0810
0810
0810
0810
0830
0FE0
ENDCHAR
STARTCHAR 0472
ENCODING 1138
SWIDTH 600 0
DWIDTH 15 0
BBX 13 17 1 0
BITMAP
0700
18C0
2020
6030
4010
4010
C010
C018
FFF8
C018
C018
4010
4010
4010
2020
3060
0F80
ENDCHAR
STARTCHAR 0473
ENCODING 1139
SWIDTH 600 0
DWIDTH 15 0
BBX 11 12 2 0
BITMAP
3F80
60C0
C040
8020
8020
FFE0
8020
8020
8020
C060
60C0
3F80
ENDCHAR
STARTCHAR 0474
ENCODING 1140
SWIDTH 600 0
DWIDTH 15 0
BBX 13 17 2 0
BITMAP
0018
8030
8060
C040
4040
40C0
6080
2080
2080
3100
1100
1100
1300
0A00
0A00
0A00
0400
ENDCHAR
STARTCHAR 0475
ENCODING 1141
SWIDTH 600 0
DWIDTH 15 0
BBX 11 12 2 0
BITMAP
C060
4040
4080
2080
2080
2100
1100
1100
1200
0A00
0A00
0400
ENDCHAR
STARTCHAR 0490
ENCODING 1168
SWIDTH 600 0
DWIDTH 15 0
BBX 9 21 4 0
BITMAP
0080
0080
0080
0080
0080
FF80
8000
8000
8000
8000
8000
8000
8000
8000
8000
8000
8000
8000
8000
8000
8000
ENDCHAR
STARTCHAR 0491
ENCODING 1169
SWIDTH 600 0
DWIDTH 15 0
BBX 7 16 5 0
BITMAP
02
02
02
02
FE
80
80
80
80
80
80
80
80
80
80
80
ENDCHAR
STARTCHAR 0492
ENCODING 1170
SWIDTH 600 0
DWIDTH 15 0
BBX 11 16 2 0
BITMAP
3FE0
2000
2000
2000
2000
2000
2000
FE00
2000
2000
2000
2000
2000
2000
2000
2000
ENDCHAR
STARTCHAR 0493
ENCODING 1171
SWIDTH 600 0
DWIDTH 15 0
BBX 10 12 3 0
BITMAP
7FC0
4000
4000
4000
4000
4000
FC00
4000
4000
4000
4000
4000
ENDCHAR
STARTCHAR 0496
ENCODING 1174
SWIDTH 600 0
DWIDTH 15 0
BBX 15 22 0 -5
BITMAP
C006
610C
2108
3118
1110
1110
1930
0920
0FE0
1110
1110
3118
2108
2108
4104
4104
C106
0002
0002
0002
0002
0002
ENDCHAR
STARTCHAR 0497
ENCODING 1175
SWIDTH 600 0
DWIDTH 15 0
BBX 15 16 0 -4
BITMAP
E10E
2108
1110
1110
1110
0FE0
1110
1110
2108
2108
4104
C106
0002
0002
0002
0002
ENDCHAR
STARTCHAR 0498
ENCODING 1176
SWIDTH 600 0
DWIDTH 15 0
BBX 11 22 2 -5
BITMAP
0E00
7180
4040
0040
0040
0040
0040
0180
1F00
00C0
0020
0020
0020
0020
8020
C0C0
3F80
0400
0400
0400
0400
0400
ENDCHAR
STARTCHAR 0499
ENCODING 1177
SWIDTH 600 0
DWIDTH 15 0
BBX 10 16 2 -4
BITMAP
7F00
C080
0040
00C0
0080
1F00
0180
0040
0040
0040
80C0
7F80
0400
0400
0400
0400
ENDCHAR
STARTCHAR 049A
ENCODING 1178
SWIDTH 600 0
DWIDTH 15 0
BBX 11 22 3 -5
BITMAP
0060
80C0
8180
8100
8200
8200
8400
8400
FC00
8400
8200
8300
8100
8080
80C0
8040
8020
0020
0020
0020
0020
0020
ENDCHAR
STARTCHAR 049B
ENCODING 1179
SWIDTH 600 0
DWIDTH 15 0
BBX 11 16 3 -4
BITMAP
80C0
8180
8100
8200
8200
FC00
8600
8200
8100
8080
80C0
8060
0020
0020
0020
0020
ENDCHAR
STARTCHAR 04A0
ENCODING 1184
SWIDTH 600 0
DWIDTH 15 0
BBX 15 17 0 0
BITMAP
0006
FE08
0210
0210
0220
0220
0240
0240
03C0
0240
0220
0230
0210
0208
0208
0204
0206
ENDCHAR
STARTCHAR 04A1
ENCODING 1185
SWIDTH 600 0
DWIDTH 15 0
BBX 13 12 1 0
BITMAP
FC18
0C20
0C20
0C40
0C40
0F80
0C40
0C60
0C20
0C10
0C10
0C08
ENDCHAR
STARTCHAR 04A2
ENCODING 1186
SWIDTH 600 0
DWIDTH 15 0
BBX 13 21 2 -5
BITMAP
8020
8020
8020
8020
8020
8020
8020
FFE0
8020
8020
8020
8020
8020
8020
8020
8038
0010
0010
0010
0010
0010
ENDCHAR
STARTCHAR 04A3
ENCODING 1187
SWIDTH 600 0
DWIDTH 15 0
BBX 11 16 3 -4
BITMAP
8080
8080
8080
8080
8080
FF80
8080
8080
8080
8080
8080
80E0
0020
0020
0020
0020
ENDCHAR
STARTCHAR 04AA
ENCODING 1194
SWIDTH 600 0
DWIDTH 15 0
BBX 11 22 2 -5
BITMAP
0780
18C0
2020
4000
4000
8000
8000
8000
8000
8000
8000
8000
C000
4000
6000
3060
0FC0
0200
0200
0200
0200
0200
ENDCHAR
STARTCHAR 04AB
ENCODING 1195
SWIDTH 600 0
DWIDTH 15 0
BBX 11 16 2 -4
BITMAP
1FC0
3060
6000
4000
C000
8000
8000
8000
4000
4000
3020
1FC0
0200
0200
0200
0200
ENDCHAR
STARTCHAR 04AE
ENCODING 1198
SWIDTH 600 0
DWIDTH 15 0
BBX 11 16 2 0
BITMAP
8020
C020
4040
60C0
2080
1100
1100
0A00
0A00
0400
0400
0400
0400
0400
0400
0400
ENDCHAR
STARTCHAR 04AF
ENCODING 1199
SWIDTH 600 0
DWIDTH 15 0
BBX 11 17 2 -5
BITMAP
8020
8020
4040
4040
2080
2080
3080
1100
1100
0A00
0A00
0400
0400
0400
0400
0400
0400
ENDCHAR
STARTCHAR 04B0
ENCODING 1200
SWIDTH 600 0
DWIDTH 15 0
BBX 11 16 2 0
BITMAP
8020
C020
4040
60C0
2080
1100
1100
0A00
0A00
7FC0
0400
0400
0400
0400
0400
0400
ENDCHAR
STARTCHAR 04B1
ENCODING 1201
SWIDTH 600 0
DWIDTH 15 0
BBX 11 17 2 -5
BITMAP
8020
8020
4040
4040
2080
2080
1080
1100
1100
0A00
0A00
7FC0
0400
0400
0400
0400
0400
ENDCHAR
STARTCHAR 04B2
ENCODING 1202
SWIDTH 600 0
DWIDTH 15 0
BBX 12 20 2 -5
BITMAP
4040
60C0
2080
1100
1100
0A00
0A00
0400
0A00
0A00
1100
3100
2080
60C0
4040
8030
0010
0010
0010
0010
ENDCHAR
STARTCHAR 04B3
ENCODING 1203
SWIDTH 600 0
DWIDTH 15 0
BBX 12 16 2 -4
BITMAP
4040
2080
3080
1100
0A00
0400
0E00
1A00
1100
2080
4040
C070
0010
0010
0010
0010
ENDCHAR
STARTCHAR 04B6
ENCODING 1206
SWIDTH 600 0
DWIDTH 15 0
BBX 12 21 2 -5
BITMAP
8060
8060
8060
8060
8060
8060
4060
3FE0
0060
0060
0060
0060
0060
0060
0060
0070
0010
0010
0010
0010
0010
ENDCHAR
STARTCHAR 04B7
ENCODING 1207
SWIDTH 600 0
DWIDTH 15 0
BBX 10 16 3 -4
BITMAP
8080
8080
8080
8080
8080
C080
7F80
0080
0080
0080
0080
00C0
0040
0040
0040
0040
ENDCHAR
STARTCHAR 04BA
ENCODING 1210
SWIDTH 600 0
DWIDTH 15 0
BBX 10 16 3 0
BITMAP
8000
8000
8000
8000
8000
8000
FE00
8180
8080
8040
8040
8040
8040
8040
8040
8040
ENDCHAR
STARTCHAR 04BB
ENCODING 1211
SWIDTH 600 0
DWIDTH 15 0
BBX 10 18 3 0
BITMAP
8000
8000
8000
8000
8000
8000
9F00
A080
C0C0
8040
8040
8040
8040
8040
8040
8040
8040
8040
ENDCHAR
STARTCHAR 04C0
ENCODING 1216
SWIDTH 600 0
DWIDTH 15 0
BBX 9 16 3 0
BITMAP
FF80
0800
0800
0800
0800
0800
0800
0800
0800
0800
0800
0800
0800
0800
0800
FF80
ENDCHAR
STARTCHAR 04C1
ENCODING 1217
SWIDTH 600 0
DWIDTH 15 0
BBX 15 21 0 0
BITMAP
0820
0C60
07C0
0000
C006
610C
2108
3118
1110
1110
1930
0920
0FE0
1110
1110
3118
2108
2108
4104
4104
C106
ENDCHAR
STARTCHAR 04C2
ENCODING 1218
SWIDTH 600 0
DWIDTH 15 0
BBX 15 18 0 0
BITMAP
0820
0820
0440
0380
0000
0000
E10E
2108
1110
1110
1110
0FE0
1110
1110
2108
2108
4104
C106
ENDCHAR
STARTCHAR 04CF
ENCODING 1231
SWIDTH 600 0
DWIDTH 15 0
BBX 11 18 2 0
BITMAP
FC00
0400
0400
0400
0400
0400
0400
0400
0400
0400
0400
0400
0400
0400
0400
0400
0400
03E0
ENDCHAR
STARTCHAR 04D0
ENCODING 1232
SWIDTH 600 0
DWIDTH 15 0
BBX 13 21 1 0
BITMAP
1040
18C0
0F80
0000
0000
0200
0500
0500
0500
0880
0880
18C0
1040
1040
3FE0
2020
2020
6030
4010
4010
8018
ENDCHAR
STARTCHAR 04D1
ENCODING 1233
SWIDTH 600 0
DWIDTH 15 0
BBX 11 18 2 0
BITMAP
1040
1040
0880
0700
0000
0000
1F80
60C0
0040
0060
0060
0FE0
3060
4060
8060
8060
40A0
3F20
ENDCHAR
STARTCHAR 04D4
ENCODING 1236
SWIDTH 600 0
DWIDTH 15 0
BBX 15 16 0 0
BITMAP
01FC
0380
0280
0280
0480
0480
0880
08F8
1080
1080
3F80
2080
2080
4080
4080
80FE
ENDCHAR
STARTCHAR 04D5
ENCODING 1237
SWIDTH 600 0
DWIDTH 15 0
BBX 15 12 0 0
BITMAP
3E78
4284
0182
0102
0102
1FFE
2100
4100
C100
C180
4280
7C7C
ENDCHAR
STARTCHAR 04D6
ENCODING 1238
SWIDTH 600 0
DWIDTH 15 0
BBX 10 21 3 0
BITMAP
2080
3180
1F00
0000
0000
FFC0
8000
8000
8000
8000
8000
8000
FF80
8000
8000
8000
8000
8000
8000
8000
FFC0
ENDCHAR
STARTCHAR 04D7
ENCODING 1239
SWIDTH 600 0
DWIDTH 15 0
BBX 11 18 2 0
BITMAP
2080
2080
1100
0E00
0000
0000
1F80
2040
4020
C020
8020
FFE0
8000
8000
C000
4000
2020
1FC0
ENDCHAR
STARTCHAR 04D8
ENCODING 1240
SWIDTH 600 0
DWIDTH 15 0
BBX 12 17 2 0
BITMAP
0E00
3180
0040
0060
0020
0020
0020
0030
0030
FFF0
8020
8020
8020
C020
4040
2080
1F00
ENDCHAR
STARTCHAR 04D9
ENCODING 1241
SWIDTH 600 0
DWIDTH 15 0
BBX 11 12 2 0
BITMAP
3F00
40C0
0040
0020
0020
0020
FFE0
8020
8020
4040
60C0
3F80
ENDCHAR
STARTCHAR 04E2
ENCODING 1250
SWIDTH 600 0
DWIDTH 15 0
BBX 11 19 2 0
BITMAP
1F00
0000
0000
8060
80E0
80A0
8120
8120
8220
8220
8420
8C20
8820
9820
9020
A020
A020
C020
C020
ENDCHAR
STARTCHAR 04E3
ENCODING 1251
SWIDTH 600 0
DWIDTH 15 0
BBX 9 16 3 0
BITMAP
7F00
0000
0000
0000
8080
8180
8280
8280
8480
8880
8880
9080
A080
A080
C080
8080
ENDCHAR
STARTCHAR 04E6
ENCODING 1254
SWIDTH 600 0
DWIDTH 15 0
BBX 13 20 1 0
BITMAP
0880
0880
0000
0700
18C0
3060
6030
4010
4010
C010
C018
C018
C018
C018
4010
4010
6030
2020
3040
0F80
ENDCHAR
STARTCHAR 04E7
ENCODING 1255
SWIDTH 600 0
DWIDTH 15 0
BBX 11 17 2 0
BITMAP
3180
3180
0000
0000
0000
1F00
60C0
4040
8020
8020
8020
8020
8020
8020
4040
60C0
1F00
ENDCHAR
STARTCHAR 04E8
ENCODING 1256
SWIDTH 600 0
DWIDTH 15 0
BBX 13 17 1 0
BITMAP
0700
18C0
2020
6030
4010
4010
C010
C018
FFF8
C018
C018
4010
4010
4010
2020
3060
0F80
ENDCHAR
STARTCHAR 04E9
ENCODING 1257
SWIDTH 600 0
DWIDTH 15 0
BBX 11 12 2 0
BITMAP
3F80
60C0
C040
8020
8020
FFE0
8020
8020
8020
C060
60C0
3F80
ENDCHAR
STARTCHAR 04EE
ENCODING 1262
SWIDTH 600 0
DWIDTH 15 0
BBX 11 19 2 0
BITMAP
1F00
0000
0000
8020
C020
4040
4040
20C0
2080
1080
1100
1900
0B00
0A00
0600
0400
0400
0800
7800
ENDCHAR
STARTCHAR 04EF
ENCODING 1263
SWIDTH 600 0
DWIDTH 15 0
BBX 11 21 2 -5
BITMAP
3F80
0000
0000
0000
8020
8020
4040
4040
2040
2080
1080
1100
0900
0B00
0600
0600
0400
0400
0800
1800
F000
ENDCHAR
STARTCHAR 04F2
ENCODING 1266
SWIDTH 600 0
DWIDTH 15 0
BBX 11 22 2 0
BITMAP
0400
0C80
0900
1100
0000
0000
8020
C020
4040
4040
20C0
2080
1080
1100
1900
0B00
0A00
0600
0400
0400
0800
7800
ENDCHAR
STARTCHAR 04F3
ENCODING 1267
SWIDTH 600 0
DWIDTH 15 0
BBX 11 24 2 -5
BITMAP
0400
0480
0880
0900
1100
0000
0000
8020
8020
4040
4040
2040
2080
1080
1100
0900
0B00
0600
0600
0400
0400
0800
1800
F000
ENDCHAR
STARTCHAR 1D43
ENCODING 7491
SWIDTH 600 0
DWIDTH 15 0
BBX 7 8 4 10
BITMAP
7C
02
02
1E
62
82
C6
7A
ENDCHAR
STARTCHAR 1D47
ENCODING 7495
SWIDTH 600 0
DWIDTH 15 0
BBX 7 12 5 10
BITMAP
80
80
80
80
FC
84
82
82
82
84
84
78
ENDCHAR
STARTCHAR 1D48
ENCODING 7496
SWIDTH 600 0
DWIDTH 15 0
BBX 7 12 4 10
BITMAP
02
02
02
02
7E
82
82
82
82
82
86
7A
ENDCHAR
STARTCHAR 1D49
ENCODING 7497
SWIDTH 600 0
DWIDTH 15 0
BBX 7 8 4 10
BITMAP
7C
C2
82
FE
80
80
40
3E
ENDCHAR
STARTCHAR 1D4D
ENCODING 7501
SWIDTH 600 0
DWIDTH 15 0
BBX 8 12 4 6
BITMAP
7F
44
84
44
6C
50
80
7E
81
81
C2
3C
ENDCHAR
STARTCHAR 1D4F
ENCODING 7503
SWIDTH 600 0
DWIDTH 15 0
BBX 7 12 5 10
BITMAP
80
80
80
80
86
88
90
B0
C8
84
86
82
ENDCHAR
STARTCHAR 1D50
ENCODING 7504
SWIDTH 600 0
DWIDTH 15 0
BBX 11 8 2 10
BITMAP
B9C0
C620
8420
8420
8420
8420
8420
8420
ENDCHAR
STARTCHAR 1D52
ENCODING 7506
SWIDTH 600 0
DWIDTH 15 0
BBX 7 8 4 10
BITMAP
7C
C6
82
82
82
82
C6
7C
ENDCHAR
STARTCHAR 1D56
ENCODING 7510
SWIDTH 600 0
DWIDTH 15 0
BBX 7 11 5 7
BITMAP
FC
84
82
82
82
84
84
F8
80
80
80
ENDCHAR
STARTCHAR 1D57
ENCODING 7511
SWIDTH 600 0
DWIDTH 15 0
BBX 7 11 4 10
BITMAP
20
20
20
FE
20
20
20
20
20
10
1E
ENDCHAR
STARTCHAR 1D58
ENCODING 7512
SWIDTH 600 0
DWIDTH 15 0
BBX 7 8 4 10
BITMAP
82
82
82
82
82
82
C6
7A
ENDCHAR
STARTCHAR 1D5B
ENCODING 7515
SWIDTH 600 0
DWIDTH 15 0
BBX 7 8 4 10
BITMAP
82
84
44
44
28
28
28
10
ENDCHAR
STARTCHAR 1D9C
ENCODING 7580
SWIDTH 600 0
DWIDTH 15 0
BBX 6 8 5 10
BITMAP
7C
C0
80
80
80
80
C0
3C
ENDCHAR
STARTCHAR 1DA0
ENCODING 7584
SWIDTH 600 0
DWIDTH 15 0
BBX 7 12 5 10
BITMAP
1E
30
20
20
FE
20
20
20
20
20
20
20
ENDCHAR
STARTCHAR 1DBB
ENCODING 7611
SWIDTH 600 0
DWIDTH 15 0
BBX 7 8 4 10
BITMAP
FE
04
08
10
20
40
C0
FE
ENDCHAR
STARTCHAR 1E06
ENCODING 7686
SWIDTH 600 0
DWIDTH 15 0
BBX 10 20 3 -4
BITMAP
FF00
8180
8080
8080
8080
8080
8300
FF00
8080
8040
8040
8040
8040
8040
8180
FE00
0000
0000
0000
7F00
ENDCHAR
STARTCHAR 1E07
ENCODING 7687
SWIDTH 600 0
DWIDTH 15 0
BBX 10 22 3 -4
BITMAP
8000
8000
8000
8000
8000
8000
BF00
C080
80C0
8040
8040
8040
8040
8040
8040
8080
C180
BF00
0000
0000
0000
7F00
ENDCHAR
STARTCHAR 1E0C
ENCODING 7692
SWIDTH 600 0
DWIDTH 15 0
BBX 12 21 2 -5
BITMAP
FF00
C0C0
C040
C020
C020
C020
C030
C030
C030
C030
C020
C020
C060
C0C0
C180
FE00
0000
0000
0000
0E00
0E00
ENDCHAR
STARTCHAR 1E0D
ENCODING 7693
SWIDTH 600 0
DWIDTH 15 0
BBX 10 23 2 -5
BITMAP
0040
0040
0040
0040
0040
0040
3F40
60C0
4040
8040
8040
8040
8040
8040
8040
C040
60C0
3F40
0000
0000
0000
0E00
0E00
ENDCHAR
STARTCHAR 1E0E
ENCODING 7694
SWIDTH 600 0
DWIDTH 15 0
BBX 12 20 2 -4
BITMAP
FF00
C0C0
C040
C020
C020
C020
C030
C030
C030
C030
C020
C020
C060
C0C0
C180
FE00
0000
0000
0000
3F80
ENDCHAR
STARTCHAR 1E0F
ENCODING 7695
SWIDTH 600 0
DWIDTH 15 0
BBX 10 22 2 -4
BITMAP
0040
0040
0040
0040
0040
0040
3F40
60C0
4040
8040
8040
8040
8040
8040
8040
C040
60C0
3F40
0000
0000
0000
3F80
ENDCHAR
STARTCHAR 1E10
ENCODING 7696
SWIDTH 600 0
DWIDTH 15 0
BBX 12 21 2 -5
BITMAP
FF00
C0C0
C040
C020
C020
C020
C030
C030
C030
C030
C020
C020
C060
C0C0
C180
FE00
0400
0800
0600
0200
0E00
ENDCHAR
STARTCHAR 1E11
ENCODING 7697
SWIDTH 600 0
DWIDTH 15 0
BBX 10 23 2 -5
BITMAP
0040
0040
0040
0040
0040
0040
3F40
60C0
4040
8040
8040
8040
8040
8040
8040
C040
60C0
3F40
0400
0800
0600
0200
0E00
ENDCHAR
STARTCHAR 1E16
ENCODING 7702
SWIDTH 600 0
DWIDTH 15 0
BBX 10 23 3 1
BITMAP
0200
0400
0000
0000
1F00
0000
0000
FFC0
8000
8000
8000
8000
8000
8000
FF80
8000
8000
8000
8000
8000
8000
8000
FFC0
ENDCHAR
STARTCHAR 1E17
ENCODING 7703
SWIDTH 600 0
DWIDTH 15 0
BBX 11 20 2 1
BITMAP
0300
0C00
0000
0000
3F80
0000
0000
0000
1F80
2040
4020
C020
8020
FFE0
8000
8000
C000
4000
2020
1FC0
ENDCHAR
STARTCHAR 1E20
ENCODING 7712
SWIDTH 600 0
DWIDTH 15 0
BBX 12 19 1 0
BITMAP
07C0
0000
0380
0C60
3010
2000
6000
4000
4000
4000
C000
C1F0
4010
4010
4010
6010
2010
1830
0FE0
ENDCHAR
STARTCHAR 1E21
ENCODING 7713
SWIDTH 600 0
DWIDTH 15 0
BBX 12 22 2 -6
BITMAP
3F80
0000
0000
0000
1FF0
2080
4080
4040
4040
40C0
2080
3F00
4000
4000
6000
3FE0
4030
8010
8010
C020
60C0
1F00
ENDCHAR
STARTCHAR 1E24
ENCODING 7716
SWIDTH 600 0
DWIDTH 15 0
BBX 11 21 2 -5
BITMAP
8020
8020
8020
8020
8020
8020
8020
FFE0
8020
8020
8020
8020
8020
8020
8020
8020
0000
0000
0000
0E00
0E00
ENDCHAR
STARTCHAR 1E25
ENCODING 7717
SWIDTH 600 0
DWIDTH 15 0
BBX 10 23 3 -5
BITMAP
8000
8000
8000
8000
8000
8000
9F00
A080
C0C0
8040
8040
8040
8040
8040
8040
8040
8040
8040
0000
0000
0000
1C00
1C00
ENDCHAR
STARTCHAR 1E26
ENCODING 7718
SWIDTH 600 0
DWIDTH 15 0
BBX 11 20 2 0
BITMAP
1100
1100
0000
0000
8020
8020
8020
8020
8020
8020
8020
FFE0
8020
8020
8020
8020
8020
8020
8020
8020
ENDCHAR
STARTCHAR 1E27
ENCODING 7719
SWIDTH 600 0
DWIDTH 15 0
BBX 12 22 1 0
BITMAP
8800
8800
0000
0000
2000
2000
2000
2000
2000
2000
27C0
2820
3030
2010
2010
2010
2010
2010
2010
2010
2010
2010
ENDCHAR
STARTCHAR 1E28
ENCODING 7720
SWIDTH 600 0
DWIDTH 15 0
BBX 12 21 1 -5
BITMAP
4010
4010
4010
4010
4010
4010
4010
7FF0
4010
4010
4010
4010
4010
4010
4010
4010
4000
8000
6000
2000
E000
ENDCHAR
STARTCHAR 1E29
ENCODING 7721
SWIDTH 600 0
DWIDTH 15 0
BBX 11 23 2 -5
BITMAP
4000
4000
4000
4000
4000
4000
4F80
5040
6060
4020
4020
4020
4020
4020
4020
4020
4020
4020
4000
8000
6000
2000
E000
ENDCHAR
STARTCHAR 1E2A
ENCODING 7722
SWIDTH 600 0
DWIDTH 15 0
BBX 11 22 2 -6
BITMAP
8020
8020
8020
8020
8020
8020
8020
FFE0
8020
8020
8020
8020
8020
8020
8020
8020
0000
0000
2080
2080
1100
0E00
ENDCHAR
STARTCHAR 1E2B
ENCODING 7723
SWIDTH 600 0
DWIDTH 15 0
BBX 10 24 3 -6
BITMAP
8000
8000
8000
8000
8000
8000
9F00
A080
C0C0
8040
8040
8040
8040
8040
8040
8040
8040
8040
0000
0000
4100
4100
2200
1C00
ENDCHAR
STARTCHAR 1E32
ENCODING 7730
SWIDTH 600 0
DWIDTH 15 0
BBX 11 21 3 -5
BITMAP
80C0
8180
8100
8200
8400
8800
9C00
B400
E200
C200
8100
8180
8080
8040
8040
8020
0000
0000
0000
0E00
0E00
ENDCHAR
STARTCHAR 1E33
ENCODING 7731
SWIDTH 600 0
DWIDTH 15 0
BBX 11 23 3 -5
BITMAP
8000
8000
8000
8000
8000
8000
80C0
8180
8300
8600
8C00
9C00
A200
C300
8100
8080
8040
8020
0000
0000
0000
0E00
0E00
ENDCHAR
STARTCHAR 1E34
ENCODING 7732
SWIDTH 600 0
DWIDTH 15 0
BBX 11 20 3 -4
BITMAP
80C0
8180
8100
8200
8400
8800
9C00
B400
E200
C200
8100
8180
8080
8040
8040
8020
0000
0000
0000
3F80
ENDCHAR
STARTCHAR 1E35
ENCODING 7733
SWIDTH 600 0
DWIDTH 15 0
BBX 11 22 3 -4
BITMAP
8000
8000
8000
8000
8000
8000
80C0
8180
8300
8600
8C00
9C00
A200
C300
8100
8080
8040
8020
0000
0000
0000
3F80
ENDCHAR
STARTCHAR 1E36
ENCODING 7734
SWIDTH 600 0
DWIDTH 15 0
BBX 9 21 4 -5
BITMAP
8000
8000
8000
8000
8000
8000
8000
8000
8000
8000
8000
8000
8000
8000
8000
FF80
0000
0000
0000
1C00
1C00
ENDCHAR
STARTCHAR 1E37
ENCODING 7735
SWIDTH 600 0
DWIDTH 15 0
BBX 11 23 2 -5
BITMAP
FC00
0400
0400
0400
0400
0400
0400
0400
0400
0400
0400
0400
0400
0400
0400
0400
0400
03E0
0000
0000
0000
0380
0380
ENDCHAR
STARTCHAR 1E38
ENCODING 7736
SWIDTH 600 0
DWIDTH 15 0
BBX 11 24 2 -5
BITMAP
F800
0000
0000
2000
2000
2000
2000
2000
2000
2000
2000
2000
2000
2000
2000
2000
2000
2000
3FE0
0000
0000
0000
0700
0700
ENDCHAR
STARTCHAR 1E39
ENCODING 7737
SWIDTH 600 0
DWIDTH 15 0
BBX 11 26 2 -5
BITMAP
1F00
0000
0000
FC00
0400
0400
0400
0400
0400
0400
0400
0400
0400
0400
0400
0400
0400
0400
0400
0400
03E0
0000
0000
0000
0380
0380
ENDCHAR
STARTCHAR 1E3A
ENCODING 7738
SWIDTH 600 0
DWIDTH 15 0
BBX 9 20 4 -4
BITMAP
8000
8000
8000
8000
8000
8000
8000
8000
8000
8000
8000
8000
8000
8000
8000
FF80
0000
0000
0000
7F00
ENDCHAR
STARTCHAR 1E3B
ENCODING 7739
SWIDTH 600 0
DWIDTH 15 0
BBX 11 22 2 -4
BITMAP
FC00
0400
0400
0400
0400
0400
0400
0400
0400
0400
0400
0400
0400
0400
0400
0400
0400
03E0
0000
0000
0000
0FE0
ENDCHAR
STARTCHAR 1E3E
ENCODING 7742
SWIDTH 600 0
DWIDTH 15 0
BBX 11 21 2 0
BITMAP
0100
0200
0400
0000
0000
C060
C060
A0A0
A0A0
A0A0
9120
9120
9B20
8A20
8A20
8420
8420
8020
8020
8020
8020
ENDCHAR
STARTCHAR 1E3F
ENCODING 7743
SWIDTH 600 0
DWIDTH 15 0
BBX 12 19 2 0
BITMAP
0100
0300
0600
0400
0000
0000
0000
B9E0
C620
8630
8410
8410
8410
8410
8410
8410
8410
8410
8410
ENDCHAR
STARTCHAR 1E40
ENCODING 7744
SWIDTH 600 0
DWIDTH 15 0
BBX 11 20 2 0
BITMAP
0400
0400
0000
0000
C060
C060
A0A0
A0A0
A0A0
9120
9120
9B20
8A20
8A20
8420
8420
8020
8020
8020
8020
ENDCHAR
STARTCHAR 1E41
ENCODING 7745
SWIDTH 600 0
DWIDTH 15 0
BBX 12 17 2 0
BITMAP
0E00
0E00
0000
0000
0000
B9E0
C620
8630
8410
8410
8410
8410
8410
8410
8410
8410
8410
ENDCHAR
STARTCHAR 1E42
ENCODING 7746
SWIDTH 600 0
DWIDTH 15 0
BBX 11 21 2 -5
BITMAP
C060
C060
A0A0
A0A0
A0A0
9120
9120
9B20
8A20
8A20
8420
8420
8020
8020
8020
8020
0000
0000
0000
0E00
0E00
ENDCHAR
STARTCHAR 1E43
ENCODING 7747
SWIDTH 600 0
DWIDTH 15 0
BBX 12 17 2 -5
BITMAP
B9E0
C620
8630
8410
8410
8410
8410
8410
8410
8410
8410
8410
0000
0000
0000
0E00
0E00
ENDCHAR
STARTCHAR 1E44
ENCODING 7748
SWIDTH 600 0
DWIDTH 15 0
BBX 11 20 2 0
BITMAP
0400
0400
0000
0000
C020
A020
A020
9020
9020
8820
8820
8420
8420
8220
8320
8120
80A0
80A0
8060
8060
ENDCHAR
STARTCHAR 1E45
ENCODING 7749
SWIDTH 600 0
DWIDTH 15 0
BBX 10 17 3 0
BITMAP
1C00
1C00
0000
0000
0000
9F00
A080
C0C0
8040
8040
8040
8040
8040
8040
8040
8040
8040
ENDCHAR
STARTCHAR 1E46
ENCODING 7750
SWIDTH 600 0
DWIDTH 15 0
BBX 11 21 2 -5
BITMAP
C020
A020
A020
9020
9020
8820
8820
8420
8420
8220
8320
8120
80A0
80A0
8060
8060
0000
0000
0000
0E00
0E00
ENDCHAR
STARTCHAR 1E47
ENCODING 7751
SWIDTH 600 0
DWIDTH 15 0
BBX 10 17 3 -5
BITMAP
9F00
A080
C0C0
8040
8040
8040
8040
8040
8040
8040
8040
8040
0000
0000
0000
1C00
1C00
ENDCHAR
STARTCHAR 1E48
ENCODING 7752
SWIDTH 600 0
DWIDTH 15 0
BBX 11 20 2 -4
BITMAP
C020
A020
A020
9020
9020
8820
8820
8420
8420
8220
8320
8120
80A0
80A0
8060
8060
0000
0000
0000
3F80
ENDCHAR
STARTCHAR 1E49
ENCODING 7753
SWIDTH 600 0
DWIDTH 15 0
BBX 10 16 3 -4
BITMAP
9F00
A080
C0C0
8040
8040
8040
8040
8040
8040
8040
8040
8040
0000
0000
0000
7F00
ENDCHAR
STARTCHAR 1E52
ENCODING 7762
SWIDTH 600 0
DWIDTH 15 0
BBX 13 23 1 1
BITMAP
0100
0200
0000
0000
0F80
0000
0700
18C0
3060
6030
4010
4010
C010
C018
C018
C018
C018
4010
4010
6030
2020
3040
0F80
ENDCHAR
STARTCHAR 1E53
ENCODING 7763
SWIDTH 600 0
DWIDTH 15 0
BBX 11 20 2 1
BITMAP
0300
0C00
0000
0000
3F80
0000
0000
0000
1F00
60C0
4040
8020
8020
8020
8020
8020
8020
4040
60C0
1F00
ENDCHAR
STARTCHAR 1E58
ENCODING 7768
SWIDTH 600 0
DWIDTH 15 0
BBX 10 20 3 0
BITMAP
0800
0800
0000
0000
FF80
8080
8040
8040
8040
8040
8080
FF00
8400
8600
8200
8300
8100
8080
8080
8040
ENDCHAR
STARTCHAR 1E59
ENCODING 7769
SWIDTH 600 0
DWIDTH 15 0
BBX 9 17 4 0
BITMAP
1C00
1C00
0000
0000
0000
8F80
B000
A000
C000
8000
8000
8000
8000
8000
8000
8000
8000
ENDCHAR
STARTCHAR 1E5A
ENCODING 7770
SWIDTH 600 0
DWIDTH 15 0
BBX 10 21 3 -5
BITMAP
FF80
8080
8040
8040
8040
8040
8080
FF00
8400
8600
8200
8300
8100
8080
8080
8040
0000
0000
0000
0E00
0E00
ENDCHAR
STARTCHAR 1E5B
ENCODING 7771
SWIDTH 600 0
DWIDTH 15 0
BBX 10 17 3 -5
BITMAP
47C0
5800
5000
6000
4000
4000
4000
4000
4000
4000
4000
4000
0000
0000
0000
E000
E000
ENDCHAR
STARTCHAR 1E5C
ENCODING 7772
SWIDTH 600 0
DWIDTH 15 0
BBX 10 24 3 -5
BITMAP
3E00
0000
0000
FF80
8080
8040
8040
8040
8040
8080
FF00
8400
8600
8200
8300
8100
8080
8080
8040
0000
0000
0000
0E00
0E00
ENDCHAR
STARTCHAR 1E5D
ENCODING 7773
SWIDTH 600 0
DWIDTH 15 0
BBX 10 21 3 -5
BITMAP
3F80
0000
0000
0000
47C0
5800
5000
6000
4000
4000
4000
4000
4000
4000
4000
4000
0000
0000
0000
E000
E000
ENDCHAR
STARTCHAR 1E5E
ENCODING 7774
SWIDTH 600 0
DWIDTH 15 0
BBX 10 20 3 -4
BITMAP
FF80
8080
8040
8040
8040
8040
8080
FF00
8400
8600
8200
8300
8100
8080
8080
8040
0000
0000
0000
3F80
ENDCHAR
STARTCHAR 1E5F
ENCODING 7775
SWIDTH 600 0
DWIDTH 15 0
BBX 12 16 1 -4
BITMAP
11F0
1600
1400
1800
1000
1000
1000
1000
1000
1000
1000
1000
0000
0000
0000
FE00
ENDCHAR
STARTCHAR 1E60
ENCODING 7776
SWIDTH 600 0
DWIDTH 15 0
BBX 11 20 2 0
BITMAP
0400
0400
0000
0F00
31C0
6040
4000
4000
4000
2000
1800
0700
0180
0040
0020
0020
0020
8020
6040
3F80
ENDCHAR
STARTCHAR 1E61
ENCODING 7777
SWIDTH 600 0
DWIDTH 15 0
BBX 11 17 2 0
BITMAP
0E00
0E00
0000
0000
0000
3F80
4040
4000
4000
6000
1E00
0180
0060
0020
0020
C040
3F80
ENDCHAR
STARTCHAR 1E62
ENCODING 7778
SWIDTH 600 0
DWIDTH 15 0
BBX 11 22 2 -5
BITMAP
0F00
31C0
6040
4000
4000
4000
2000
1800
0700
0180
0040
0020
0020
0020
8020
6040
3F80
0000
0000
0000
0E00
0E00
ENDCHAR
STARTCHAR 1E63
ENCODING 7779
SWIDTH 600 0
DWIDTH 15 0
BBX 11 17 2 -5
BITMAP
3F80
4040
4000
4000
6000
1E00
0180
0060
0020
0020
C040
3F80
0000
0000
0000
0E00
0E00
ENDCHAR
STARTCHAR 1E6C
ENCODING 7788
SWIDTH 600 0
DWIDTH 15 0
BBX 13 21 1 -5
BITMAP
FFF8
0200
0200
0200
0200
0200
0200
0200
0200
0200
0200
0200
0200
0200
0200
0200
0000
0000
0000
0700
0700
ENDCHAR
STARTCHAR 1E6D
ENCODING 7789
SWIDTH 600 0
DWIDTH 15 0
BBX 12 21 2 -5
BITMAP
0800
0800
0800
0800
FFE0
0800
0800
0800
0800
0800
0800
0800
0800
0800
0C00
07F0
0000
0000
0000
0380
0380
ENDCHAR
STARTCHAR 1E6E
ENCODING 7790
SWIDTH 600 0
DWIDTH 15 0
BBX 13 20 1 -4
BITMAP
FFF8
0200
0200
0200
0200
0200
0200
0200
0200
0200
0200
0200
0200
0200
0200
0200
0000
0000
0000
1FC0
ENDCHAR
STARTCHAR 1E6F
ENCODING 7791
SWIDTH 600 0
DWIDTH 15 0
BBX 12 20 2 -4
BITMAP
0800
0800
0800
0800
FFE0
0800
0800
0800
0800
0800
0800
0800
0800
0800
0C00
07F0
0000
0000
0000
0FE0
ENDCHAR
STARTCHAR 1E7E
ENCODING 7806
SWIDTH 600 0
DWIDTH 15 0
BBX 11 21 2 -5
BITMAP
8020
8020
C060
4040
4040
60C0
2080
2080
3080
1100
1100
1100
0A00
0A00
0A00
0400
0000
0000
0000
0E00
0E00
ENDCHAR
STARTCHAR 1E7F
ENCODING 7807
SWIDTH 600 0
DWIDTH 15 0
BBX 11 17 2 -5
BITMAP
8020
8020
4040
4040
2080
2080
3180
1100
1100
0A00
0A00
0400
0000
0000
0000
0E00
0E00
ENDCHAR
STARTCHAR 1E80
ENCODING 7808
SWIDTH 600 0
DWIDTH 15 0
BBX 15 21 0 0
BITMAP
0400
0200
0100
0000
C002
4006
4004
4004
4004
4104
4284
628C
2288
22C8
2448
2448
2448
2C28
1830
1830
1830
ENDCHAR
STARTCHAR 1E81
ENCODING 7809
SWIDTH 600 0
DWIDTH 15 0
BBX 15 19 0 0
BITMAP
0400
0600
0300
0100
0000
0000
0000
C106
4284
4284
4284
6284
2448
2448
2448
3448
1830
1830
1830
ENDCHAR
STARTCHAR 1E82
ENCODING 7810
SWIDTH 600 0
DWIDTH 15 0
BBX 15 21 0 0
BITMAP
0040
0080
0100
0000
C002
4006
4004
4004
4004
4104
4284
628C
2288
22C8
2448
2448
2448
2C28
1830
1830
1830
ENDCHAR
STARTCHAR 1E83
ENCODING 7811
SWIDTH 600 0
DWIDTH 15 0
BBX 15 19 0 0
BITMAP
0040
00C0
0180
0100
0000
0000
0000
C106
4284
4284
4284
6284
2448
2448
2448
3448
1830
1830
1830
ENDCHAR
STARTCHAR 1E84
ENCODING 7812
SWIDTH 600 0
DWIDTH 15 0
BBX 15 20 0 0
BITMAP
0440
0440
0000
C002
4006
4004
4004
4004
4104
4284
628C
2288
22C8
2448
2448
2448
2C28
1830
1830
1830
ENDCHAR
STARTCHAR 1E85
ENCODING 7813
SWIDTH 600 0
DWIDTH 15 0
BBX 15 17 0 0
BITMAP
0C60
0C60
0000
0000
0000
C106
4284
4284
4284
6284
2448
2448
2448
3448
1830
1830
1830
ENDCHAR
STARTCHAR 1E8E
ENCODING 7822
SWIDTH 600 0
DWIDTH 15 0
BBX 11 20 2 0
BITMAP
0400
0400
0000
0000
8020
C020
4040
60C0
2080
1100
1100
0A00
0A00
0400
0400
0400
0400
0400
0400
0400
ENDCHAR
STARTCHAR 1E8F
ENCODING 7823
SWIDTH 600 0
DWIDTH 15 0
BBX 11 22 2 -5
BITMAP
0E00
0E00
0000
0000
0000
8020
8020
4040
4040
2040
2080
1080
1100
0900
0B00
0600
0600
0400
0400
0800
1800
F000
ENDCHAR
STARTCHAR 1E90
ENCODING 7824
SWIDTH 600 0
DWIDTH 15 0
BBX 11 21 2 0
BITMAP
0E00
1B00
3180
0000
7FE0
0020
0040
00C0
0080
0100
0300
0200
0400
0C00
0800
1000
3000
2000
4000
8000
FFE0
ENDCHAR
STARTCHAR 1E91
ENCODING 7825
SWIDTH 600 0
DWIDTH 15 0
BBX 11 18 2 0
BITMAP
0E00
1B00
1100
2080
0000
0000
7FE0
0040
0080
0100
0200
0400
0C00
1800
3000
6000
4000
FFE0
ENDCHAR
STARTCHAR 1E92
ENCODING 7826
SWIDTH 600 0
DWIDTH 15 0
BBX 11 22 2 -5
BITMAP
7FE0
0020
0040
00C0
0080
0100
0300
0200
0400
0C00
0800
1000
3000
2000
4000
8000
FFE0
0000
0000
0000
0E00
0E00
ENDCHAR
STARTCHAR 1E93
ENCODING 7827
SWIDTH 600 0
DWIDTH 15 0
BBX 11 17 2 -5
BITMAP
7FE0
0040
0080
0100
0200
0400
0C00
1800
3000
6000
4000
FFE0
0000
0000
0000
0E00
0E00
ENDCHAR
STARTCHAR 1E94
ENCODING 7828
SWIDTH 600 0
DWIDTH 15 0
BBX 11 21 2 -4
BITMAP
7FE0
0020
0040
00C0
0080
0100
0300
0200
0400
0C00
0800
1000
3000
2000
4000
8000
FFE0
0000
0000
0000
3F80
ENDCHAR
STARTCHAR 1E95
ENCODING 7829
SWIDTH 600 0
DWIDTH 15 0
BBX 11 16 2 -4
BITMAP
7FE0
0040
0080
0100
0200
0400
0C00
1800
3000
6000
4000
FFE0
0000
0000
0000
3F80
ENDCHAR
STARTCHAR 1E96
ENCODING 7830
SWIDTH 600 0
DWIDTH 15 0
BBX 10 22 3 -4
BITMAP
8000
8000
8000
8000
8000
8000
9F00
A080
C0C0
8040
8040
8040
8040
8040
8040
8040
8040
8040
0000
0000
0000
7F00
ENDCHAR
STARTCHAR 1E97
ENCODING 7831
SWIDTH 600 0
DWIDTH 15 0
BBX 12 20 2 0
BITMAP
6300
6300
0000
0000
0800
0800
0800
0800
FFE0
0800
0800
0800
0800
0800
0800
0800
0800
0800
0C00
07F0
ENDCHAR
STARTCHAR 1E9E
ENCODING 7838
SWIDTH 600 0
DWIDTH 15 0
BBX 12 17 2 0
BITMAP
0F00
3180
6040
4060
C040
8080
8100
8200
8380
80E0
8020
8010
8010
8010
8010
8820
87C0
ENDCHAR
STARTCHAR 1EA0
ENCODING 7840
SWIDTH 600 0
DWIDTH 15 0
BBX 13 21 1 -5
BITMAP
0200
0500
0500
0500
0880
0880
18C0
1040
1040
3FE0
2020
2020
6030
4010
4010
8018
0000
0000
0000
0700
0700
ENDCHAR
STARTCHAR 1EA1
ENCODING 7841
SWIDTH 600 0
DWIDTH 15 0
BBX 11 17 2 -5
BITMAP
1F80
60C0
0040
0060
0060
0FE0
3060
4060
8060
8060
40A0
3F20
0000
0000
0000
0E00
0E00
ENDCHAR
STARTCHAR 1EA2
ENCODING 7842
SWIDTH 600 0
DWIDTH 15 0
BBX 13 22 1 0
BITMAP
0400
0300
0100
0300
0000
0000
0200
0500
0500
0500
0880
0880
18C0
1040
1040
3FE0
2020
2020
6030
4010
4010
8018
ENDCHAR
STARTCHAR 1EA3
ENCODING 7843
SWIDTH 600 0
DWIDTH 15 0
BBX 11 19 2 0
BITMAP
0400
0300
0100
0100
0200
0000
0000
1F80
60C0
0040
0060
0060
0FE0
3060
4060
8060
8060
40A0
3F20
ENDCHAR
STARTCHAR 1EA4
ENCODING 7844
SWIDTH 600 0
DWIDTH 15 0
BBX 13 22 1 0
BITMAP
0030
0060
0740
0880
0000
0000
0200
0500
0500
0500
0880
0880
18C0
1040
1040
3FE0
2020
2020
6030
4010
4010
8018
ENDCHAR
STARTCHAR 1EA5
ENCODING 7845
SWIDTH 600 0
DWIDTH 15 0
BBX 12 19 2 0
BITMAP
0030
0020
0740
0880
0000
0000
0000
1F80
60C0
0040
0060
0060
0FE0
3060
4060
8060
8060
40A0
3F20
ENDCHAR
STARTCHAR 1EA6
ENCODING 7846
SWIDTH 600 0
DWIDTH 15 0
BBX 13 22 1 0
BITMAP
2000
1000
0700
0880
0000
0000
0200
0500
0500
0500
0880
0880
18C0
1040
1040
3FE0
2020
2020
6030
4010
4010
8018
ENDCHAR
STARTCHAR 1EA7
ENCODING 7847
SWIDTH 600 0
DWIDTH 15 0
BBX 11 19 2 0
BITMAP
4000
2000
1700
0880
0000
0000
0000
1F80
60C0
0040
0060
0060
0FE0
3060
4060
8060
8060
40A0
3F20
ENDCHAR
STARTCHAR 1EA8
ENCODING 7848
SWIDTH 600 0
DWIDTH 15 0
BBX 13 22 1 0
BITMAP
0060
0020
0740
0880
0000
0000
0200
0500
0500
0500
0880
0880
18C0
1040
1040
3FE0
2020
2020
6030
4010
4010
8018
ENDCHAR
STARTCHAR 1EA9
ENCODING 7849
SWIDTH 600 0
DWIDTH 15 0
BBX 11 19 2 0
BITMAP
0060
0020
0760
0880
0000
0000
0000
1F80
60C0
0040
0060
0060
0FE0
3060
4060
8060
8060
40A0
3F20
ENDCHAR
STARTCHAR 1EAA
ENCODING 7850
SWIDTH 600 0
DWIDTH 15 0
BBX 13 23 1 0
BITMAP
1E40
1180
0000
0700
0880
0000
0000
0200
0500
0500
0500
0880
0880
18C0
1040
1040
3FE0
2020
2020
6030
4010
4010
8018
ENDCHAR
STARTCHAR 1EAB
ENCODING 7851
SWIDTH 600 0
DWIDTH 15 0
BBX 11 20 2 0
BITMAP
0840
17C0
0000
0700
0880
0000
0000
0000
1F80
60C0
0040
0060
0060
0FE0
3060
4060
8060
8060
40A0
3F20
ENDCHAR
STARTCHAR 1EAC
ENCODING 7852
SWIDTH 600 0
DWIDTH 15 0
BBX 13 26 1 -5
BITMAP
0700
0D80
18C0
0000
0000
0200
0500
0500
0500
0880
0880
18C0
1040
1040
3FE0
2020
2020
6030
4010
4010
8018
0000
0000
0000
0700
0700
ENDCHAR
STARTCHAR 1EAD
ENCODING 7853
SWIDTH 600 0
DWIDTH 15 0
BBX 11 23 2 -5
BITMAP
0700
0D80
0880
1040
0000
0000
1F80
60C0
0040
0060
0060
0FE0
3060
4060
8060
8060
40A0
3F20
0000
0000
0000
0E00
0E00
ENDCHAR
STARTCHAR 1EAE
ENCODING 7854
SWIDTH 600 0
DWIDTH 15 0
BBX 13 23 1 0
BITMAP
0080
0100
1240
1080
0F80
0000
0000
0200
0500
0500
0500
0880
0880
18C0
1040
1040
3FE0
2020
2020
6030
4010
4010
8018
ENDCHAR
STARTCHAR 1EAF
ENCODING 7855
SWIDTH 600 0
DWIDTH 15 0
BBX 11 20 2 0
BITMAP
0100
0100
1240
1040
0880
0700
0000
0000
1F80
60C0
0040
0060
0060
0FE0
3060
4060
8060
8060
40A0
3F20
ENDCHAR
STARTCHAR 1EB0
ENCODING 7856
SWIDTH 600 0
DWIDTH 15 0
BBX 13 23 1 0
BITMAP
0800
0400
1240
1080
0F80
0000
0000
0200
0500
0500
0500
0880
0880
18C0
1040
1040
3FE0
2020
2020
6030
4010
4010
8018
ENDCHAR
STARTCHAR 1EB1
ENCODING 7857
SWIDTH 600 0
DWIDTH 15 0
BBX 11 20 2 0
BITMAP
0400
0400
1240
1040
0880
0700
0000
0000
1F80
60C0
0040
0060
0060
0FE0
3060
4060
8060
8060
40A0
3F20
ENDCHAR
STARTCHAR 1EB2
ENCODING 7858
SWIDTH 600 0
DWIDTH 15 0
BBX 13 23 1 0
BITMAP
0300
0100
1240
1080
0F80
0000
0000
0200
0500
0500
0500
0880
0880
18C0
1040
1040
3FE0
2020
2020
6030
4010
4010
8018
ENDCHAR
STARTCHAR 1EB3
ENCODING 7859
SWIDTH 600 0
DWIDTH 15 0
BBX 11 21 2 0
BITMAP
0400
0300
0100
1340
1040
0880
0700
0000
0000
1F80
60C0
0040
0060
0060
0FE0
3060
4060
8060
8060
40A0
3F20
ENDCHAR
STARTCHAR 1EB4
ENCODING 7860
SWIDTH 600 0
DWIDTH 15 0
BBX 13 23 1 0
BITMAP
1E40
1180
0000
1040
0F80
0000
0000
0200
0500
0500
0500
0880
0880
18C0
1040
1040
3FE0
2020
2020
6030
4010
4010
8018
ENDCHAR
STARTCHAR 1EB5
ENCODING 7861
SWIDTH 600 0
DWIDTH 15 0
BBX 11 20 2 0
BITMAP
0840
17C0
0000
1040
0880
0700
0000
0000
1F80
60C0
0040
0060
0060
0FE0
3060
4060
8060
8060
40A0
3F20
ENDCHAR
STARTCHAR 1EB6
ENCODING 7862
SWIDTH 600 0
DWIDTH 15 0
BBX 13 26 1 -5
BITMAP
1040
1080
0F80
0000
0000
0200
0500
0500
0500
0880
0880
18C0
1040
1040
3FE0
2020
2020
6030
4010
4010
8018
0000
0000
0000
0700
0700
ENDCHAR
STARTCHAR 1EB7
ENCODING 7863
SWIDTH 600 0
DWIDTH 15 0
BBX 11 23 2 -5
BITMAP
1040
1040
0880
0700
0000
0000
1F80
60C0
0040
0060
0060
0FE0
3060
4060
8060
8060
40A0
3F20
0000
0000
0000
0E00
0E00
ENDCHAR
STARTCHAR 1EB8
ENCODING 7864
SWIDTH 600 0
DWIDTH 15 0
BBX 10 21 3 -5
BITMAP
FFC0
8000
8000
8000
8000
8000
8000
FF80
8000
8000
8000
8000
8000
8000
8000
FFC0
0000
0000
0000
0E00
0E00
ENDCHAR
STARTCHAR 1EB9
ENCODING 7865
SWIDTH 600 0
DWIDTH 15 0
BBX 11 17 2 -5
BITMAP
1F80
2040
4020
C020
8020
FFE0
8000
8000
C000
4000
2020
1FC0
0000
0000
0000
0E00
0E00
ENDCHAR
STARTCHAR 1EBA
ENCODING 7866
SWIDTH 600 0
DWIDTH 15 0
BBX 10 22 3 0
BITMAP
0800
0600
0200
0600
0000
0000
FFC0
8000
8000
8000
8000
8000
8000
FF80
8000
8000
8000
8000
8000
8000
8000
FFC0
ENDCHAR
STARTCHAR 1EBB
ENCODING 7867
SWIDTH 600 0
DWIDTH 15 0
BBX 11 19 2 0
BITMAP
0800
0600
0200
0200
0400
0000
0000
1F80
2040
4020
C020
8020
FFE0
8000
8000
C000
4000
2020
1FC0
ENDCHAR
STARTCHAR 1EBC
ENCODING 7868
SWIDTH 600 0
DWIDTH 15 0
BBX 10 21 3 0
BITMAP
3840
2480
4380
0000
0000
FFC0
8000
8000
8000
8000
8000
8000
FF80
8000
8000
8000
8000
8000
8000
8000
FFC0
ENDCHAR
STARTCHAR 1EBD
ENCODING 7869
SWIDTH 600 0
DWIDTH 15 0
BBX 11 18 2 0
BITMAP
1040
2480
4680
0100
0000
0000
1F80
2040
4020
C020
8020
FFE0
8000
8000
C000
4000
2020
1FC0
ENDCHAR
STARTCHAR 1EBE
ENCODING 7870
SWIDTH 600 0
DWIDTH 15 0
BBX 11 22 3 0
BITMAP
0060
00C0
0E80
1100
0000
0000
FFC0
8000
8000
8000
8000
8000
8000
FF80
8000
8000
8000
8000
8000
8000
8000
FFC0
ENDCHAR
STARTCHAR 1EBF
ENCODING 7871
SWIDTH 600 0
DWIDTH 15 0
BBX 11 19 2 0
BITMAP
0060
0040
0E80
1100
0000
0000
0000
1F80
2040
4020
C020
8020
FFE0
8000
8000
C000
4000
2020
1FC0
ENDCHAR
STARTCHAR 1EC0
ENCODING 7872
SWIDTH 600 0
DWIDTH 15 0
BBX 10 22 3 0
BITMAP
4000
2000
0E00
1100
0000
0000
FFC0
8000
8000
8000
8000
8000
8000
FF80
8000
8000
8000
8000
8000
8000
8000
FFC0
ENDCHAR
STARTCHAR 1EC1
ENCODING 7873
SWIDTH 600 0
DWIDTH 15 0
BBX 11 19 2 0
BITMAP
8000
4000
2E00
1100
0000
0000
0000
1F80
2040
4020
C020
8020
FFE0
8000
8000
C000
4000
2020
1FC0
ENDCHAR
STARTCHAR 1EC2
ENCODING 7874
SWIDTH 600 0
DWIDTH 15 0
BBX 10 22 3 0
BITMAP
00C0
0040
0E80
1100
0000
0000
FFC0
8000
8000
8000
8000
8000
8000
FF80
8000
8000
8000
8000
8000
8000
8000
FFC0
ENDCHAR
STARTCHAR 1EC3
ENCODING 7875
SWIDTH 600 0
DWIDTH 15 0
BBX 11 19 2 0
BITMAP
00C0
0040
0EC0
1100
0000
0000
0000
1F80
2040
4020
C020
8020
FFE0
8000
8000
C000
4000
2020
1FC0
ENDCHAR
STARTCHAR 1EC4
ENCODING 7876
SWIDTH 600 0
DWIDTH 15 0
BBX 10 23 3 0
BITMAP
3C80
2300
0000
0E00
1100
0000
0000
FFC0
8000
8000
8000
8000
8000
8000
FF80
8000
8000
8000
8000
8000
8000
8000
FFC0
ENDCHAR
STARTCHAR 1EC5
ENCODING 7877
SWIDTH 600 0
DWIDTH 15 0
BBX 11 20 2 0
BITMAP
1080
2F80
0000
0E00
1100
0000
0000
0000
1F80
2040
4020
C020
8020
FFE0
8000
8000
C000
4000
2020
1FC0
ENDCHAR
STARTCHAR 1EC6
ENCODING 7878
SWIDTH 600 0
DWIDTH 15 0
BBX 10 26 3 -5
BITMAP
0E00
1B00
3180
0000
0000
FFC0
8000
8000
8000
8000
8000
8000
FF80
8000
8000
8000
8000
8000
8000
8000
FFC0
0000
0000
0000
0E00
0E00
ENDCHAR
STARTCHAR 1EC7
ENCODING 7879
SWIDTH 600 0
DWIDTH 15 0
BBX 11 23 2 -5
BITMAP
0E00
1B00
1100
2080
0000
0000
1F80
2040
4020
C020
8020
FFE0
8000
8000
C000
4000
2020
1FC0
0000
0000
0000
0E00
0E00
ENDCHAR
STARTCHAR 1EC8
ENCODING 7880
SWIDTH 600 0
DWIDTH 15 0
BBX 9 22 3 0
BITMAP
1000
0C00
0400
0C00
0000
0000
FF80
0800
0800
0800
0800
0800
0800
0800
0800
0800
0800
0800
0800
0800
0800
FF80
ENDCHAR
STARTCHAR 1EC9
ENCODING 7881
SWIDTH 600 0
DWIDTH 15 0
BBX 8 19 2 0
BITMAP
04
03
01
01
02
00
00
FF
03
03
03
03
03
03
03
03
03
03
03
ENDCHAR
STARTCHAR 1ECA
ENCODING 7882
SWIDTH 600 0
DWIDTH 15 0
BBX 9 21 3 -5
BITMAP
FF80
0800
0800
0800
0800
0800
0800
0800
0800
0800
0800
0800
0800
0800
0800
FF80
0000
0000
0000
1C00
1C00
ENDCHAR
STARTCHAR 1ECB
ENCODING 7883
SWIDTH 600 0
DWIDTH 15 0
BBX 8 22 2 -5
BITMAP
07
07
00
00
00
FF
03
03
03
03
03
03
03
03
03
03
03
00
00
00
07
07
ENDCHAR
STARTCHAR 1ECC
ENCODING 7884
SWIDTH 600 0
DWIDTH 15 0
BBX 13 22 1 -5
BITMAP
0700
18C0
3060
6030
4010
4010
C010
C018
C018
C018
C018
4010
4010
6030
2020
3040
0F80
0000
0000
0000
0700
0700
ENDCHAR
STARTCHAR 1ECD
ENCODING 7885
SWIDTH 600 0
DWIDTH 15 0
BBX 11 17 2 -5
BITMAP
1F00
60C0
4040
8020
8020
8020
8020
8020
8020
4040
60C0
3F80
0000
0000
0000
0E00
0E00
ENDCHAR
STARTCHAR 1ECE
ENCODING 7886
SWIDTH 600 0
DWIDTH 15 0
BBX 13 22 1 0
BITMAP
0400
0300
0100
0300
0000
0700
18C0
3060
6030
4010
4010
C010
C018
C018
C018
C018
4010
4010
6030
2020
3040
0F80
ENDCHAR
STARTCHAR 1ECF
ENCODING 7887
SWIDTH 600 0
DWIDTH 15 0
BBX 11 19 2 0
BITMAP
0800
0600
0200
0200
0400
0000
0000
1F00
60C0
4040
8020
8020
8020
8020
8020
8020
4040
60C0
1F00
ENDCHAR
STARTCHAR 1ED0
ENCODING 7888
SWIDTH 600 0
DWIDTH 15 0
BBX 13 22 1 0
BITMAP
0030
0060
0740
0880
0000
0700
18C0
3060
6030
4010
4010
C010
C018
C018
C018
C018
4010
4010
6030
2020
3040
0F80
ENDCHAR
STARTCHAR 1ED1
ENCODING 7889
SWIDTH 600 0
DWIDTH 15 0
BBX 11 19 2 0
BITMAP
0060
0040
0E80
1100
0000
0000
0000
1F00
60C0
4040
8020
8020
8020
8020
8020
8020
4040
60C0
1F00
ENDCHAR
STARTCHAR 1ED2
ENCODING 7890
SWIDTH 600 0
DWIDTH 15 0
BBX 13 22 1 0
BITMAP
2000
1000
0700
0880
0000
0700
18C0
3060
6030
4010
4010
C010
C018
C018
C018
C018
4010
4010
6030
2020
3040
0F80
ENDCHAR
STARTCHAR 1ED3
ENCODING 7891
SWIDTH 600 0
DWIDTH 15 0
BBX 11 19 2 0
BITMAP
8000
4000
2E00
1100
0000
0000
0000
1F00
60C0
4040
8020
8020
8020
8020
8020
8020
4040
60C0
1F00
ENDCHAR
STARTCHAR 1ED4
ENCODING 7892
SWIDTH 600 0
DWIDTH 15 0
BBX 13 22 1 0
BITMAP
0060
0020
0740
0880
0000
0700
18C0
3060
6030
4010
4010
C010
C018
C018
C018
C018
4010
4010
6030
2020
3040
0F80
ENDCHAR
STARTCHAR 1ED5
ENCODING 7893
SWIDTH 600 0
DWIDTH 15 0
BBX 11 19 2 0
BITMAP
00C0
0040
0EC0
1100
0000
0000
0000
1F00
60C0
4040
8020
8020
8020
8020
8020
8020
4040
60C0
1F00
ENDCHAR
STARTCHAR 1ED6
ENCODING 7894
SWIDTH 600 0
DWIDTH 15 0
BBX 13 23 1 0
BITMAP
1E40
1180
0000
0700
0880
0000
0700
18C0
3060
6030
4010
4010
C010
C018
C018
C018
C018
4010
4010
6030
2020
3040
0F80
ENDCHAR
STARTCHAR 1ED7
ENCODING 7895
SWIDTH 600 0
DWIDTH 15 0
BBX 11 20 2 0
BITMAP
1080
2F80
0000
0E00
1100
0000
0000
0000
1F00
60C0
4040
8020
8020
8020
8020
8020
8020
4040
60C0
1F00
ENDCHAR
STARTCHAR 1ED8
ENCODING 7896
SWIDTH 600 0
DWIDTH 15 0
BBX 13 26 1 -5
BITMAP
0700
0D80
18C0
0000
0700
18C0
3060
6030
4010
4010
C010
C018
C018
C018
C018
4010
4010
6030
2020
3040
0F80
0000
0000
0000
0700
0700
ENDCHAR
STARTCHAR 1ED9
ENCODING 7897
SWIDTH 600 0
DWIDTH 15 0
BBX 11 23 2 -5
BITMAP
0E00
1B00
1100
2080
0000
0000
1F00
60C0
4040
8020
8020
8020
8020
8020
8020
4040
60C0
3F80
0000
0000
0000
0E00
0E00
ENDCHAR
STARTCHAR 1EDA
ENCODING 7898
SWIDTH 600 0
DWIDTH 15 0
BBX 13 21 1 0
BITMAP
0080
0110
0218
0010
0730
18C0
3060
6030
4010
4010
C010
C018
C018
C018
C018
4010
4010
6030
2020
3040
0F80
ENDCHAR
STARTCHAR 1EDB
ENCODING 7899
SWIDTH 600 0
DWIDTH 15 0
BBX 11 19 2 0
BITMAP
0100
0300
0600
0420
0020
0020
0020
1FC0
60C0
4040
8020
8020
8020
8020
8020
8020
4040
60C0
1F00
ENDCHAR
STARTCHAR 1EDC
ENCODING 7900
SWIDTH 600 0
DWIDTH 15 0
BBX 13 21 1 0
BITMAP
0800
0410
0218
0010
0730
18C0
3060
6030
4010
4010
C010
C018
C018
C018
C018
4010
4010
6030
2020
3040
0F80
ENDCHAR
STARTCHAR 1EDD
ENCODING 7901
SWIDTH 600 0
DWIDTH 15 0
BBX 11 19 2 0
BITMAP
1000
1800
0C00
0420
0020
0020
0020
1FC0
60C0
4040
8020
8020
8020
8020
8020
8020
4040
60C0
1F00
ENDCHAR
STARTCHAR 1EDE
ENCODING 7902
SWIDTH 600 0
DWIDTH 15 0
BBX 13 22 1 0
BITMAP
0400
0300
0110
0318
0010
0730
18C0
3060
6030
4010
4010
C010
C018
C018
C018
C018
4010
4010
6030
2020
3040
0F80
ENDCHAR
STARTCHAR 1EDF
ENCODING 7903
SWIDTH 600 0
DWIDTH 15 0
BBX 11 19 2 0
BITMAP
0800
0600
0200
0220
0420
0020
0020
1FC0
60C0
4040
8020
8020
8020
8020
8020
8020
4040
60C0
1F00
ENDCHAR
STARTCHAR 1EE0
ENCODING 7904
SWIDTH 600 0
DWIDTH 15 0
BBX 13 21 1 0
BITMAP
1C20
1250
21D8
0010
0730
18C0
3060
6030
4010
4010
C010
C018
C018
C018
C018
4010
4010
6030
2020
3040
0F80
ENDCHAR
STARTCHAR 1EE1
ENCODING 7905
SWIDTH 600 0
DWIDTH 15 0
BBX 11 18 2 0
BITMAP
1040
2480
46A0
0120
0020
0020
1FC0
60C0
4040
8020
8020
8020
8020
8020
8020
4040
60C0
1F00
ENDCHAR
STARTCHAR 1EE2
ENCODING 7906
SWIDTH 600 0
DWIDTH 15 0
BBX 13 25 1 -5
BITMAP
0010
0018
0010
0730
18C0
3060
6030
4010
4010
C010
C018
C018
C018
C018
4010
4010
6030
2020
3040
0F80
0000
0000
0000
0700
0700
ENDCHAR
STARTCHAR 1EE3
ENCODING 7907
SWIDTH 600 0
DWIDTH 15 0
BBX 11 21 2 -5
BITMAP
0020
0020
0020
0020
1FC0
60C0
4040
8020
8020
8020
8020
8020
8020
4040
60C0
3F80
0000
0000
0000
0E00
0E00
ENDCHAR
STARTCHAR 1EE4
ENCODING 7908
SWIDTH 600 0
DWIDTH 15 0
BBX 11 21 2 -5
BITMAP
8020
8020
8020
8020
8020
8020
8020
8020
8020
8020
8020
8020
4040
4040
60C0
3F80
0000
0000
0000
0E00
0E00
ENDCHAR
STARTCHAR 1EE5
ENCODING 7909
SWIDTH 600 0
DWIDTH 15 0
BBX 10 17 2 -5
BITMAP
8040
8040
8040
8040
8040
8040
8040
8040
8040
C0C0
4140
3E40
0000
0000
0000
0E00
0E00
ENDCHAR
STARTCHAR 1EE6
ENCODING 7910
SWIDTH 600 0
DWIDTH 15 0
BBX 11 22 2 0
BITMAP
0800
0600
0200
0600
0000
0000
8020
8020
8020
8020
8020
8020
8020
8020
8020
8020
8020
8020
4040
4040
60C0
3F00
ENDCHAR
STARTCHAR 1EE7
ENCODING 7911
SWIDTH 600 0
DWIDTH 15 0
BBX 10 19 2 0
BITMAP
0800
0600
0200
0200
0400
0000
0000
8040
8040
8040
8040
8040
8040
8040
8040
8040
C0C0
4140
3E40
ENDCHAR
STARTCHAR 1EE8
ENCODING 7912
SWIDTH 600 0
DWIDTH 15 0
BBX 13 21 2 0
BITMAP
0100
0208
0408
0008
0030
8020
8020
8020
8020
8020
8020
8020
8020
8020
8020
8020
8020
4040
4040
60C0
3F00
ENDCHAR
STARTCHAR 1EE9
ENCODING 7913
SWIDTH 600 0
DWIDTH 15 0
BBX 13 19 2 0
BITMAP
0100
0300
0600
0410
0018
0010
0010
8060
8040
8040
8040
8040
8040
8040
8040
8040
C0C0
4140
3E40
ENDCHAR
STARTCHAR 1EEA
ENCODING 7914
SWIDTH 600 0
DWIDTH 15 0
BBX 13 21 2 0
BITMAP
1000
0808
0408
0008
0030
8020
8020
8020
8020
8020
8020
8020
8020
8020
8020
8020
8020
4040
4040
60C0
3F00
ENDCHAR
STARTCHAR 1EEB
ENCODING 7915
SWIDTH 600 0
DWIDTH 15 0
BBX 13 19 2 0
BITMAP
1000
1800
0C00
0410
0018
0010
0010
8060
8040
8040
8040
8040
8040
8040
8040
8040
C0C0
4140
3E40
ENDCHAR
STARTCHAR 1EEC
ENCODING 7916
SWIDTH 600 0
DWIDTH 15 0
BBX 13 22 2 0
BITMAP
0800
0600
0208
0608
0008
0030
8020
8020
8020
8020
8020
8020
8020
8020
8020
8020
8020
8020
4040
4040
60C0
3F00
ENDCHAR
STARTCHAR 1EED
ENCODING 7917
SWIDTH 600 0
DWIDTH 15 0
BBX 13 19 2 0
BITMAP
0800
0600
0200
0210
0418
0010
0010
8060
8040
8040
8040
8040
8040
8040
8040
8040
C0C0
4140
3E40
ENDCHAR
STARTCHAR 1EEE
ENCODING 7918
SWIDTH 600 0
DWIDTH 15 0
BBX 13 21 2 0
BITMAP
3840
2488
4388
0008
0030
8020
8020
8020
8020
8020
8020
8020
8020
8020
8020
8020
8020
4040
4040
60C0
3F00
ENDCHAR
STARTCHAR 1EEF
ENCODING 7919
SWIDTH 600 0
DWIDTH 15 0
BBX 13 18 2 0
BITMAP
1040
2480
4690
0118
0010
0010
8060
8040
8040
8040
8040
8040
8040
8040
8040
C0C0
4140
3E40
ENDCHAR
STARTCHAR 1EF0
ENCODING 7920
SWIDTH 600 0
DWIDTH 15 0
BBX 13 25 2 -4
BITMAP
0008
0008
0008
0030
8020
8020
8020
8020
8020
8020
8020
8020
8020
8020
8020
8020
4040
4040
60C0
3F80
0000
0000
0000
0E00
0E00
ENDCHAR
STARTCHAR 1EF1
ENCODING 7921
SWIDTH 600 0
DWIDTH 15 0
BBX 13 21 2 -5
BITMAP
0010
0018
0010
0010
8060
8040
8040
8040
8040
8040
8040
8040
8040
C0C0
4140
3E40
0000
0000
0000
0E00
0E00
ENDCHAR
STARTCHAR 1EF2
ENCODING 7922
SWIDTH 600 0
DWIDTH 15 0
BBX 11 21 2 0
BITMAP
1000
0800
0400
0000
0000
8020
C020
4040
60C0
2080
1100
1100
0A00
0A00
0400
0400
0400
0400
0400
0400
0400
ENDCHAR
STARTCHAR 1EF3
ENCODING 7923
SWIDTH 600 0
DWIDTH 15 0
BBX 11 24 2 -5
BITMAP
1000
1800
0C00
0400
0000
0000
0000
8020
8020
4040
4040
2040
2080
1080
1100
0900
0B00
0600
0600
0400
0400
0800
1800
F000
ENDCHAR
STARTCHAR 1EF4
ENCODING 7924
SWIDTH 600 0
DWIDTH 15 0
BBX 11 21 2 -5
BITMAP
8020
C020
4040
60C0
2080
1100
1100
0A00
0A00
0400
0400
0400
0400
0400
0400
0400
0000
0000
0000
0E00
0E00
ENDCHAR
STARTCHAR 1EF5
ENCODING 7925
SWIDTH 600 0
DWIDTH 15 0
BBX 11 17 2 -5
BITMAP
8020
8020
4040
4040
2040
2080
1080
1100
0900
0B00
0600
0600
0400
0400
0800
18E0
F0E0
ENDCHAR
STARTCHAR 1EF6
ENCODING 7926
SWIDTH 600 0
DWIDTH 15 0
BBX 11 22 2 0
BITMAP
0800
0600
0200
0600
0000
0000
8020
C020
4040
60C0
2080
1100
1100
0A00
0A00
0400
0400
0400
0400
0400
0400
0400
ENDCHAR
STARTCHAR 1EF7
ENCODING 7927
SWIDTH 600 0
DWIDTH 15 0
BBX 11 24 2 -5
BITMAP
0800
0600
0200
0200
0400
0000
0000
8020
8020
4040
4040
2040
2080
1080
1100
0900
0B00
0600
0600
0400
0400
0800
1800
F000
ENDCHAR
STARTCHAR 1EF8
ENCODING 7928
SWIDTH 600 0
DWIDTH 15 0
BBX 11 21 2 0
BITMAP
3840
2480
4380
0000
0000
8020
C020
4040
60C0
2080
1100
1100
0A00
0A00
0400
0400
0400
0400
0400
0400
0400
ENDCHAR
STARTCHAR 1EF9
ENCODING 7929
SWIDTH 600 0
DWIDTH 15 0
BBX 11 23 2 -5
BITMAP
1040
2480
4680
0100
0000
0000
8020
8020
4040
4040
2040
2080
1080
1100
0900
0B00
0600
0600
0400
0400
0800
1800
F000
ENDCHAR
STARTCHAR 1FBD
ENCODING 8125
SWIDTH 600 0
DWIDTH 15 0
BBX 3 5 6 14
BITMAP
80
60
20
20
40
ENDCHAR
STARTCHAR 1FBE
ENCODING 8126
SWIDTH 600 0
DWIDTH 15 0
BBX 2 10 7 0
BITMAP
80
80
80
80
80
80
80
80
80
C0
ENDCHAR
STARTCHAR 1FBF
ENCODING 8127
SWIDTH 600 0
DWIDTH 15 0
BBX 3 5 6 14
BITMAP
80
60
20
20
40
ENDCHAR
STARTCHAR 1FC0
ENCODING 8128
SWIDTH 600 0
DWIDTH 15 0
BBX 9 4 3 14
BITMAP
2080
4900
8D00
0200
ENDCHAR
STARTCHAR 1FC1
ENCODING 8129
SWIDTH 600 0
DWIDTH 15 0
BBX 7 5 4 15
BITMAP
62
9A
04
44
C6
ENDCHAR
STARTCHAR 1FCD
ENCODING 8141
SWIDTH 600 0
DWIDTH 15 0
BBX 5 5 5 14
BITMAP
10
D0
50
C8
08
ENDCHAR
STARTCHAR 1FCE
ENCODING 8142
SWIDTH 600 0
DWIDTH 15 0
BBX 5 5 5 14
BITMAP
08
C8
50
D0
10
ENDCHAR
STARTCHAR 1FCF
ENCODING 8143
SWIDTH 600 0
DWIDTH 15 0
BBX 7 6 4 14
BITMAP
42
BE
00
38
08
10
ENDCHAR
STARTCHAR 1FDD
ENCODING 8157
SWIDTH 600 0
DWIDTH 15 0
BBX 6 5 4 14
BITMAP
18
C8
88
88
44
ENDCHAR
STARTCHAR 1FDE
ENCODING 8158
SWIDTH 600 0
DWIDTH 15 0
BBX 6 5 4 14
BITMAP
04
EC
88
48
08
ENDCHAR
STARTCHAR 1FDF
ENCODING 8159
SWIDTH 600 0
DWIDTH 15 0
BBX 7 6 4 14
BITMAP
42
BE
00
38
20
10
ENDCHAR
STARTCHAR 1FED
ENCODING 8173
SWIDTH 600 0
DWIDTH 15 0
BBX 7 5 4 14
BITMAP
20
30
92
D6
10
ENDCHAR
STARTCHAR 1FEE
ENCODING 8174
SWIDTH 600 0
DWIDTH 15 0
BBX 7 5 4 15
BITMAP
08
18
D6
D6
20
ENDCHAR
STARTCHAR 1FEF
ENCODING 8175
SWIDTH 600 0
DWIDTH 15 0
BBX 2 5 6 14
BITMAP
80
80
C0
40
40
ENDCHAR
STARTCHAR 1FFD
ENCODING 8189
SWIDTH 600 0
DWIDTH 15 0
BBX 2 5 7 15
BITMAP
40
40
C0
80
80
ENDCHAR
STARTCHAR 1FFE
ENCODING 8190
SWIDTH 600 0
DWIDTH 15 0
BBX 3 5 6 14
BITMAP
20
C0
80
80
40
ENDCHAR
STARTCHAR 2007
ENCODING 8199
SWIDTH 600 0
DWIDTH 15 0
BBX 0 0 0 0
BITMAP
ENDCHAR
STARTCHAR 2010
ENCODING 8208
SWIDTH 600 0
DWIDTH 15 0
BBX 11 1 2 8
BITMAP
FFE0
ENDCHAR
STARTCHAR 2012
ENCODING 8210
SWIDTH 600 0
DWIDTH 15 0
BBX 11 1 2 6
BITMAP
FFE0
ENDCHAR
STARTCHAR 2013
ENCODING 8211
SWIDTH 600 0
DWIDTH 15 0
BBX 11 1 2 6
BITMAP
FFE0
ENDCHAR
STARTCHAR 2014
ENCODING 8212
SWIDTH 600 0
DWIDTH 15 0
BBX 15 1 0 6
BITMAP
FFFE
ENDCHAR
STARTCHAR 2015
ENCODING 8213
SWIDTH 600 0
DWIDTH 15 0
BBX 15 1 0 6
BITMAP
FFFE
ENDCHAR
STARTCHAR 2016
ENCODING 8214
SWIDTH 600 0
DWIDTH 15 0
BBX 7 25 4 -6
BITMAP
82
82
82
82
82
82
82
82
82
82
82
82
82
82
82
82
82
82
82
82
82
82
82
82
82
ENDCHAR
STARTCHAR 2017
ENCODING 8215
SWIDTH 600 0
DWIDTH 15 0
BBX 12 4 2 -6
BITMAP
FFF0
0000
0000
FFF0
ENDCHAR
STARTCHAR 2018
ENCODING 8216
SWIDTH 600 0
DWIDTH 15 0
BBX 3 7 6 11
BITMAP
60
40
80
80
C0
E0
E0
ENDCHAR
STARTCHAR 2019
ENCODING 8217
SWIDTH 600 0
DWIDTH 15 0
BBX 3 7 6 11
BITMAP
E0
E0
60
20
20
40
80
ENDCHAR
STARTCHAR 201A
ENCODING 8218
SWIDTH 600 0
DWIDTH 15 0
BBX 3 7 6 -4
BITMAP
E0
E0
60
20
20
40
80
ENDCHAR
STARTCHAR 201B
ENCODING 8219
SWIDTH 600 0
DWIDTH 15 0
BBX 3 7 6 11
BITMAP
E0
E0
C0
80
80
40
20
ENDCHAR
STARTCHAR 201C
ENCODING 8220
SWIDTH 600 0
DWIDTH 15 0
BBX 9 7 3 11
BITMAP
6180
4100
8200
8200
C300
E380
E380
ENDCHAR
STARTCHAR 201D
ENCODING 8221
SWIDTH 600 0
DWIDTH 15 0
BBX 9 7 3 11
BITMAP
E380
E380
6180
2080
2080
4100
8200
ENDCHAR
STARTCHAR 201E
ENCODING 8222
SWIDTH 600 0
DWIDTH 15 0
BBX 9 7 3 -4
BITMAP
E380
E380
6180
2080
2080
4100
8200
ENDCHAR
STARTCHAR 2020
ENCODING 8224
SWIDTH 600 0
DWIDTH 15 0
BBX 7 20 4 -2
BITMAP
10
10
10
10
FE
10
10
10
10
10
10
10
10
10
10
10
10
10
10
10
ENDCHAR
STARTCHAR 2021
ENCODING 8225
SWIDTH 600 0
DWIDTH 15 0
BBX 7 20 4 -2
BITMAP
10
10
10
10
FE
10
10
10
10
10
10
10
10
10
10
FE
10
10
10
10
ENDCHAR
STARTCHAR 2022
ENCODING 8226
SWIDTH 600 0
DWIDTH 15 0
BBX 7 7 4 3
BITMAP
38
7C
FE
FE
FE
7C
38
ENDCHAR
STARTCHAR 2026
ENCODING 8230
SWIDTH 600 0
DWIDTH 15 0
BBX 13 3 1 0
BITMAP
6230
E738
E738
ENDCHAR
STARTCHAR 202F
ENCODING 8239
SWIDTH 600 0
DWIDTH 15 0
BBX 0 0 0 0
BITMAP
ENDCHAR
STARTCHAR 2030
ENCODING 8240
SWIDTH 600 0
DWIDTH 15 0
BBX 13 16 1 0
BITMAP
7800
4400
8400
8408
4438
78C0
0300
0C00
3000
0000
78F0
4510
8508
8508
4510
78F0
ENDCHAR
STARTCHAR 2032
ENCODING 8242
SWIDTH 600 0
DWIDTH 15 0
BBX 1 5 7 12
BITMAP
80
80
80
80
80
ENDCHAR
STARTCHAR 2033
ENCODING 8243
SWIDTH 600 0
DWIDTH 15 0
BBX 5 5 5 12
BITMAP
88
88
88
88
88
ENDCHAR
STARTCHAR 2035
ENCODING 8245
SWIDTH 600 0
DWIDTH 15 0
BBX 1 5 7 12
BITMAP
80
80
80
80
80
ENDCHAR
STARTCHAR 2039
ENCODING 8249
SWIDTH 600 0
DWIDTH 15 0
BBX 4 9 5 2
BITMAP
10
10
20
40
80
40
60
20
10
ENDCHAR
STARTCHAR 203A
ENCODING 8250
SWIDTH 600 0
DWIDTH 15 0
BBX 4 9 6 2
BITMAP
80
80
40
20
10
30
60
40
80
ENDCHAR
STARTCHAR 203C
ENCODING 8252
SWIDTH 600 0
DWIDTH 15 0
BBX 9 17 3 0
BITMAP
4100
4100
4100
4100
4100
4100
4100
4100
4100
4100
4100
4100
0000
0000
4100
E380
E380
ENDCHAR
STARTCHAR 203D
ENCODING 8253
SWIDTH 600 0
DWIDTH 15 0
BBX 9 17 3 0
BITMAP
3E00
C300
8100
1880
0880
0900
0B00
1200
1400
0800
0800
0000
0000
0000
1800
1C00
1800
ENDCHAR
STARTCHAR 203E
ENCODING 8254
SWIDTH 600 0
DWIDTH 15 0
BBX 11 1 2 14
BITMAP
FFE0
ENDCHAR
STARTCHAR 203F
ENCODING 8255
SWIDTH 600 0
DWIDTH 15 0
BBX 23 4 -4 -6
BITMAP
800002
70001C
0E00E0
01FF00
ENDCHAR
STARTCHAR 2044
ENCODING 8260
SWIDTH 600 0
DWIDTH 15 0
BBX 13 14 1 2
BITMAP
0018
0010
0020
0040
0080
0000
0000
0000
0000
1800
1000
2000
4000
8000
ENDCHAR
STARTCHAR 2047
ENCODING 8263
SWIDTH 600 0
DWIDTH 15 0
BBX 13 17 1 0
BITMAP
78F0
8D18
0408
0408
0408
0C18
0810
1020
3060
2040
2040
2040
0000
0000
3060
70E0
70E0
ENDCHAR
STARTCHAR 2048
ENCODING 8264
SWIDTH 600 0
DWIDTH 15 0
BBX 11 17 1 0
BITMAP
7860
8C60
0460
0440
0420
0C20
0840
1040
3040
2040
2040
2000
0000
0000
3060
7060
7060
ENDCHAR
STARTCHAR 2049
ENCODING 8265
SWIDTH 600 0
DWIDTH 15 0
BBX 11 17 3 0
BITMAP
C3C0
C460
C020
8020
4020
4060
8040
8080
8180
8100
8100
0100
0000
0000
C180
C380
C380
ENDCHAR
STARTCHAR 2070
ENCODING 8304
SWIDTH 600 0
DWIDTH 15 0
BBX 7 11 4 9
BITMAP
38
44
82
82
82
82
82
82
82
44
38
ENDCHAR
STARTCHAR 2071
ENCODING 8305
SWIDTH 600 0
DWIDTH 15 0
BBX 5 12 4 10
BITMAP
08
08
00
00
F8
08
08
08
08
08
08
08
ENDCHAR
STARTCHAR 2074
ENCODING 8308
SWIDTH 600 0
DWIDTH 15 0
BBX 7 9 4 11
BITMAP
10
10
24
44
44
84
7E
04
04
ENDCHAR
STARTCHAR 2075
ENCODING 8309
SWIDTH 600 0
DWIDTH 15 0
BBX 7 10 4 9
BITMAP
7C
40
40
7C
06
02
02
82
C4
38
ENDCHAR
STARTCHAR 2076
ENCODING 8310
SWIDTH 600 0
DWIDTH 15 0
BBX 7 11 4 9
BITMAP
1C
60
40
80
B8
C6
82
82
C2
64
18
ENDCHAR
STARTCHAR 2077
ENCODING 8311
SWIDTH 600 0
DWIDTH 15 0
BBX 7 9 4 10
BITMAP
FE
04
08
08
10
10
10
10
20
ENDCHAR
STARTCHAR 2078
ENCODING 8312
SWIDTH 600 0
DWIDTH 15 0
BBX 7 11 4 9
BITMAP
38
44
82
82
64
78
86
82
82
C4
38
ENDCHAR
STARTCHAR 2079
ENCODING 8313
SWIDTH 600 0
DWIDTH 15 0
BBX 7 11 4 9
BITMAP
30
C4
84
82
82
C6
3A
02
04
08
70
ENDCHAR
STARTCHAR 207D
ENCODING 8317
SWIDTH 600 0
DWIDTH 15 0
BBX 3 13 6 8
BITMAP
20
40
40
40
80
80
80
80
80
40
40
20
20
ENDCHAR
STARTCHAR 207E
ENCODING 8318
SWIDTH 600 0
DWIDTH 15 0
BBX 3 13 6 8
BITMAP
80
40
40
40
20
20
20
20
20
40
40
80
80
ENDCHAR
STARTCHAR 207F
ENCODING 8319
SWIDTH 600 0
DWIDTH 15 0
BBX 6 8 5 10
BITMAP
FC
84
84
84
84
84
84
84
ENDCHAR
STARTCHAR 2080
ENCODING 8320
SWIDTH 600 0
DWIDTH 15 0
BBX 7 11 4 -5
BITMAP
38
44
82
82
82
82
82
82
82
44
38
ENDCHAR
STARTCHAR 2081
ENCODING 8321
SWIDTH 600 0
DWIDTH 15 0
BBX 7 9 5 -4
BITMAP
F0
10
10
10
10
10
10
10
FE
ENDCHAR
STARTCHAR 2082
ENCODING 8322
SWIDTH 600 0
DWIDTH 15 0
BBX 7 10 4 -4
BITMAP
38
CC
84
04
04
04
08
10
60
FE
ENDCHAR
STARTCHAR 2083
ENCODING 8323
SWIDTH 600 0
DWIDTH 15 0
BBX 7 11 4 -5
BITMAP
38
C4
04
04
0C
38
06
02
82
C4
38
ENDCHAR
STARTCHAR 2084
ENCODING 8324
SWIDTH 600 0
DWIDTH 15 0
BBX 7 9 4 -3
BITMAP
10
10
24
44
44
84
7E
04
04
ENDCHAR
STARTCHAR 2085
ENCODING 8325
SWIDTH 600 0
DWIDTH 15 0
BBX 7 10 4 -5
BITMAP
7C
40
40
7C
06
02
02
82
C4
38
ENDCHAR
STARTCHAR 2086
ENCODING 8326
SWIDTH 600 0
DWIDTH 15 0
BBX 7 11 4 -5
BITMAP
1C
60
40
80
B8
C6
82
82
C2
64
18
ENDCHAR
STARTCHAR 2087
ENCODING 8327
SWIDTH 600 0
DWIDTH 15 0
BBX 7 9 4 -4
BITMAP
FE
04
08
08
10
10
10
10
20
ENDCHAR
STARTCHAR 2088
ENCODING 8328
SWIDTH 600 0
DWIDTH 15 0
BBX 7 11 4 -5
BITMAP
38
44
82
82
64
78
86
82
82
C4
38
ENDCHAR
STARTCHAR 2089
ENCODING 8329
SWIDTH 600 0
DWIDTH 15 0
BBX 7 11 4 -5
BITMAP
30
C4
84
82
82
C6
3A
02
04
08
70
ENDCHAR
STARTCHAR 208D
ENCODING 8333
SWIDTH 600 0
DWIDTH 15 0
BBX 3 13 6 -6
BITMAP
20
40
40
40
80
80
80
80
80
40
40
20
20
ENDCHAR
STARTCHAR 208E
ENCODING 8334
SWIDTH 600 0
DWIDTH 15 0
BBX 3 13 6 -6
BITMAP
80
40
40
40
20
20
20
20
20
40
40
80
80
ENDCHAR
STARTCHAR 2094
ENCODING 8340
SWIDTH 600 0
DWIDTH 15 0
BBX 7 8 4 10
BITMAP
FC
06
02
FE
82
82
84
78
ENDCHAR
STARTCHAR 20A1
ENCODING 8353
SWIDTH 600 0
DWIDTH 15 0
BBX 10 22 3 -3
BITMAP
0400
0500
0500
1F80
29C0
4900
C900
8900
8900
8A00
8A00
8A00
8A00
9200
9200
D200
5240
34C0
1F80
1400
1400
2400
ENDCHAR
STARTCHAR 20A3
ENCODING 8355
SWIDTH 600 0
DWIDTH 15 0
BBX 11 16 2 0
BITMAP
3FE0
2000
2000
2000
2000
2000
2000
3FC0
2000
2000
2000
2000
FE00
2000
2000
2000
ENDCHAR
STARTCHAR 20A4
ENCODING 8356
SWIDTH 600 0
DWIDTH 15 0
BBX 11 16 2 0
BITMAP
0FC0
3060
2000
2000
2000
2000
FF80
1000
1000
FF80
1000
1000
1000
3000
6000
FFE0
ENDCHAR
STARTCHAR 20A6
ENCODING 8358
SWIDTH 600 0
DWIDTH 15 0
BBX 12 16 1 0
BITMAP
3020
3020
2820
2820
2420
2420
FFF0
2220
2220
FFF0
2120
2120
20A0
20A0
2060
2060
ENDCHAR
STARTCHAR 20A7
ENCODING 8359
SWIDTH 600 0
DWIDTH 15 0
BBX 14 16 1 0
BITMAP
1F80
1040
1020
1020
FFFC
1020
1020
1060
13C0
1C00
1000
1000
1000
1000
1000
1000
ENDCHAR
STARTCHAR 20A9
ENCODING 8361
SWIDTH 600 0
DWIDTH 15 0
BBX 13 16 1 0
BITMAP
4010
4210
4610
4510
4510
2520
2520
FFF8
2520
28A0
28A0
28A0
28A0
18C0
18C0
18C0
ENDCHAR
STARTCHAR 20AB
ENCODING 8363
SWIDTH 600 0
DWIDTH 15 0
BBX 10 17 3 0
BITMAP
0100
0100
1FC0
0100
0100
1D00
6300
C100
8100
8100
8100
8100
4100
7F00
0000
0000
FF80
ENDCHAR
STARTCHAR 20AC
ENCODING 8364
SWIDTH 600 0
DWIDTH 15 0
BBX 12 16 2 0
BITMAP
07C0
1830
1000
2000
2000
6000
FFC0
4000
4000
FF80
6000
2000
2000
3000
1820
0FC0
ENDCHAR
STARTCHAR 20AE
ENCODING 8366
SWIDTH 600 0
DWIDTH 15 0
BBX 11 16 2 0
BITMAP
FFE0
0400
0400
0400
0440
0580
0600
3C40
4580
0E00
3400
4400
0400
0400
0400
0400
ENDCHAR
STARTCHAR 20B1
ENCODING 8369
SWIDTH 600 0
DWIDTH 15 0
BBX 14 16 1 0
BITMAP
1F80
1040
1020
FFFC
1020
3FFC
5020
1060
13C0
1C00
1000
1000
1000
1000
1000
1000
ENDCHAR
STARTCHAR 20B2
ENCODING 8370
SWIDTH 600 0
DWIDTH 15 0
BBX 11 22 2 -3
BITMAP
0200
0200
0200
0F80
3060
2000
4000
4000
4000
C000
C000
C3E0
C020
4020
4020
4020
2020
3060
0FC0
0200
0200
0200
ENDCHAR
STARTCHAR 20B4
ENCODING 8372
SWIDTH 600 0
DWIDTH 15 0
BBX 11 16 2 0
BITMAP
1F00
2080
00C0
00C0
0080
0180
FFE0
0600
1800
FFE0
2000
6000
4000
6000
2040
1F80
ENDCHAR
STARTCHAR 20B5
ENCODING 8373
SWIDTH 600 0
DWIDTH 15 0
BBX 10 22 3 -3
BITMAP
0400
0400
0400
1F80
24C0
4400
C400
8400
8400
8400
8400
8400
8400
8400
8400
C400
4400
24C0
1F80
0400
0400
0400
ENDCHAR
STARTCHAR 20B8
ENCODING 8376
SWIDTH 600 0
DWIDTH 15 0
BBX 11 16 2 0
BITMAP
FFE0
0000
0000
FFE0
0400
0400
0400
0400
0400
0400
0400
0400
0400
0400
0400
0400
ENDCHAR
STARTCHAR 20B9
ENCODING 8377
SWIDTH 600 0
DWIDTH 15 0
BBX 10 16 3 0
BITMAP
FFC0
0600
0100
0100
FFC0
0100
0100
0600
F800
1000
1800
0C00
0400
0200
0100
0180
ENDCHAR
STARTCHAR 20BA
ENCODING 8378
SWIDTH 600 0
DWIDTH 15 0
BBX 11 16 2 0
BITMAP
1000
1000
1080
1300
1C00
7080
9300
1C00
7000
9020
1020
1020
1020
1040
1180
1E00
ENDCHAR
STARTCHAR 20BD
ENCODING 8381
SWIDTH 600 0
DWIDTH 15 0
BBX 13 16 1 0
BITMAP
1FC0
1030
1018
1008
1008
1008
1010
1030
FFC0
1000
1000
FFE0
1000
1000
1000
1000
ENDCHAR
STARTCHAR 2105
ENCODING 8453
SWIDTH 600 0
DWIDTH 15 0
BBX 13 16 1 0
BITMAP
7800
8018
8010
8020
8040
8080
C000
3800
00E0
0198
1908
1108
2108
4108
8108
00F0
ENDCHAR
STARTCHAR 2113
ENCODING 8467
SWIDTH 600 0
DWIDTH 15 0
BBX 7 18 4 0
BITMAP
1C
22
22
22
62
62
62
64
64
68
78
70
60
E0
20
20
20
1E
ENDCHAR
STARTCHAR 2116
ENCODING 8470
SWIDTH 600 0
DWIDTH 15 0
BBX 15 16 0 0
BITMAP
6180
6118
6124
5122
5122
5122
4922
4924
491C
4500
4500
451C
4500
4300
4300
C300
ENDCHAR
STARTCHAR 2117
ENCODING 8471
SWIDTH 600 0
DWIDTH 15 0
BBX 13 16 1 0
BITMAP
1FC0
2020
4010
4010
8F88
8848
8848
8848
8988
8E08
8808
8808
4810
4010
2020
1FC0
ENDCHAR
STARTCHAR 2120
ENCODING 8480
SWIDTH 600 0
DWIDTH 15 0
BBX 13 8 1 9
BITMAP
7108
8318
8298
6298
3268
0A68
8A48
F008
ENDCHAR
STARTCHAR 2122
ENCODING 8482
SWIDTH 600 0
DWIDTH 15 0
BBX 14 8 0 9
BITMAP
FC84
118C
114C
114C
1134
1134
1124
1004
ENDCHAR
STARTCHAR 2126
ENCODING 8486
SWIDTH 600 0
DWIDTH 15 0
BBX 13 17 1 0
BITMAP
0700
18C0
2020
6030
4010
4010
C018
C018
C018
C018
4010
4010
4010
2020
2020
1040
F8F8
ENDCHAR
STARTCHAR 212E
ENCODING 8494
SWIDTH 600 0
DWIDTH 15 0
BBX 13 17 1 0
BITMAP
0200
1DC0
2020
6030
6030
E038
E038
E038
E038
FFC0
E000
E000
E000
6000
6010
2020
1FC0
ENDCHAR
STARTCHAR 2150
ENCODING 8528
SWIDTH 600 0
DWIDTH 15 0
BBX 13 15 1 1
BITMAP
7018
1010
1020
1040
1080
1000
1000
00F8
0008
1810
1010
2020
4020
8020
0020
ENDCHAR
STARTCHAR 2151
ENCODING 8529
SWIDTH 600 0
DWIDTH 15 0
BBX 13 15 1 1
BITMAP
7018
1010
1020
1040
1080
1000
1000
0070
0088
1908
1088
20F8
4008
8008
00F0
ENDCHAR
STARTCHAR 2152
ENCODING 8530
SWIDTH 600 0
DWIDTH 15 0
BBX 11 16 3 0
BITMAP
6000
E000
2000
2020
20E0
2300
0C00
3000
C000
0000
63C0
E440
2420
2420
2440
23C0
ENDCHAR
STARTCHAR 2153
ENCODING 8531
SWIDTH 600 0
DWIDTH 15 0
BBX 13 15 1 1
BITMAP
7018
1010
1020
1040
1080
1000
1000
0070
0088
1808
1010
2030
4008
8008
00F8
ENDCHAR
STARTCHAR 2154
ENCODING 8532
SWIDTH 600 0
DWIDTH 15 0
BBX 13 16 1 0
BITMAP
3800
4418
0410
0420
0840
1080
2000
7C00
0070
0088
1808
1010
2030
4008
8008
00F8
ENDCHAR
STARTCHAR 2155
ENCODING 8533
SWIDTH 600 0
DWIDTH 15 0
BBX 13 15 1 1
BITMAP
7018
1010
1020
1040
1080
1000
1000
0078
0080
1880
10F0
2088
4008
8008
00F8
ENDCHAR
STARTCHAR 2156
ENCODING 8534
SWIDTH 600 0
DWIDTH 15 0
BBX 13 16 1 0
BITMAP
3800
4418
0410
0420
0840
1080
2000
7C00
0078
0080
1880
10F0
2088
4008
8008
00F8
ENDCHAR
STARTCHAR 2157
ENCODING 8535
SWIDTH 600 0
DWIDTH 15 0
BBX 13 16 1 0
BITMAP
3800
4418
0410
0820
1840
0480
0400
7C00
0078
0080
1880
10F0
2088
4008
8008
00F8
ENDCHAR
STARTCHAR 2158
ENCODING 8536
SWIDTH 600 0
DWIDTH 15 0
BBX 13 16 1 0
BITMAP
1000
1018
2010
2820
4840
FE80
0800
0800
0078
0080
1880
10F0
2088
4008
8008
00F8
ENDCHAR
STARTCHAR 2159
ENCODING 8537
SWIDTH 600 0
DWIDTH 15 0
BBX 14 15 1 1
BITMAP
7018
1010
1020
1040
1080
1000
1000
0038
00C0
1880
10B0
20C8
4084
8088
0078
ENDCHAR
STARTCHAR 215A
ENCODING 8538
SWIDTH 600 0
DWIDTH 15 0
BBX 14 16 1 0
BITMAP
3C00
4018
4010
7820
4440
0480
0400
7C00
0038
00C0
1880
10B0
20C8
4084
8088
0078
ENDCHAR
STARTCHAR 215B
ENCODING 8539
SWIDTH 600 0
DWIDTH 15 0
BBX 13 15 1 1
BITMAP
7018
1010
1020
1040
1080
1000
1000
0070
0088
1888
1048
20F0
4088
8088
00F8
ENDCHAR
STARTCHAR 215C
ENCODING 8540
SWIDTH 600 0
DWIDTH 15 0
BBX 13 16 1 0
BITMAP
3800
4418
0410
0820
1840
0480
0400
7C00
0070
0088
1888
1048
20F0
4088
8088
00F8
ENDCHAR
STARTCHAR 215D
ENCODING 8541
SWIDTH 600 0
DWIDTH 15 0
BBX 13 16 1 0
BITMAP
3C00
4018
4010
7820
4440
0480
0400
7C00
0070
0088
1888
1048
20F0
4088
8088
00F8
ENDCHAR
STARTCHAR 215E
ENCODING 8542
SWIDTH 600 0
DWIDTH 15 0
BBX 13 16 1 0
BITMAP
7C00
0418
0810
0820
1040
1080
1000
1000
0070
0088
1888
1048
20F0
4088
8088
00F8
ENDCHAR
STARTCHAR 2189
ENCODING 8585
SWIDTH 600 0
DWIDTH 15 0
BBX 13 16 1 0
BITMAP
3800
4418
8210
8220
8240
8280
4400
7C00
0070
0088
1808
1010
2030
4008
8008
00F8
ENDCHAR
STARTCHAR 2190
ENCODING 8592
SWIDTH 600 0
DWIDTH 15 0
BBX 13 13 1 0
BITMAP
0200
0400
0800
1000
2000
4000
FFF8
8000
4000
3000
1800
0C00
0600
ENDCHAR
STARTCHAR 2191
ENCODING 8593
SWIDTH 600 0
DWIDTH 15 0
BBX 13 14 1 -1
BITMAP
0200
0700
0A80
1240
2220
4210
8208
0200
0200
0200
0200
0200
0200
0200
ENDCHAR
STARTCHAR 2192
ENCODING 8594
SWIDTH 600 0
DWIDTH 15 0
BBX 13 13 1 0
BITMAP
0200
0100
0080
0040
0020
0010
FFF8
0008
0030
0060
00C0
0180
0300
ENDCHAR
STARTCHAR 2193
ENCODING 8595
SWIDTH 600 0
DWIDTH 15 0
BBX 13 14 1 -1
BITMAP
0200
0200
0200
0200
0200
0200
8208
C218
6230
3260
1AC0
0F80
0700
0200
ENDCHAR
STARTCHAR 2194
ENCODING 8596
SWIDTH 600 0
DWIDTH 15 0
BBX 15 10 0 2
BITMAP
1010
3018
2008
4004
FFFE
8002
4004
2008
1010
0820
ENDCHAR
STARTCHAR 2195
ENCODING 8597
SWIDTH 600 0
DWIDTH 15 0
BBX 11 15 2 -1
BITMAP
0400
0E00
1500
64C0
C460
0400
0400
0400
0400
0400
0400
4440
2480
1700
0E00
ENDCHAR
STARTCHAR 2196
ENCODING 8598
SWIDTH 600 0
DWIDTH 15 0
BBX 10 10 2 1
BITMAP
FFC0
E000
B000
9800
8C00
8600
8300
8180
80C0
0040
ENDCHAR
STARTCHAR 2197
ENCODING 8599
SWIDTH 600 0
DWIDTH 15 0
BBX 9 9 3 1
BITMAP
FF80
0180
0280
0480
0880
1080
2080
4080
8080
ENDCHAR
STARTCHAR 2198
ENCODING 8600
SWIDTH 600 0
DWIDTH 15 0
BBX 9 10 3 2
BITMAP
8080
4080
2080
1080
0880
0480
0280
0180
0080
FF80
ENDCHAR
STARTCHAR 2199
ENCODING 8601
SWIDTH 600 0
DWIDTH 15 0
BBX 9 10 3 1
BITMAP
8080
8100
8200
8400
8800
9000
A000
C000
8000
FF80
ENDCHAR
STARTCHAR 21A8
ENCODING 8616
SWIDTH 600 0
DWIDTH 15 0
BBX 12 17 2 -3
BITMAP
0400
0E00
1500
64C0
C460
0400
0400
0400
0400
0400
0400
4440
2480
1700
0E00
0000
FFF0
ENDCHAR
STARTCHAR 21D0
ENCODING 8656
SWIDTH 600 0
DWIDTH 15 0
BBX 13 13 1 0
BITMAP
0200
0400
0800
1000
3FF8
4000
8000
8000
4000
3FF8
1800
0C00
0600
ENDCHAR
STARTCHAR 21D1
ENCODING 8657
SWIDTH 600 0
DWIDTH 15 0
BBX 13 14 1 -1
BITMAP
0200
0500
0880
18C0
28A0
4890
8888
0880
0880
0880
0880
0880
0880
0880
ENDCHAR
STARTCHAR 21D2
ENCODING 8658
SWIDTH 600 0
DWIDTH 15 0
BBX 13 13 1 0
BITMAP
0200
0100
0080
0040
FFE0
0010
0008
0008
0030
FFE0
00C0
0180
0300
ENDCHAR
STARTCHAR 21D3
ENCODING 8659
SWIDTH 600 0
DWIDTH 15 0
BBX 13 14 1 -1
BITMAP
0880
0880
0880
0880
0880
0880
8888
C898
68B0
38E0
18C0
0D80
0700
0200
ENDCHAR
STARTCHAR 2200
ENCODING 8704
SWIDTH 600 0
DWIDTH 15 0
BBX 13 16 1 0
BITMAP
C018
4010
4010
2020
2020
3FE0
1040
1040
1040
0880
0880
0880
0500
0500
0500
0200
ENDCHAR
STARTCHAR 2202
ENCODING 8706
SWIDTH 600 0
DWIDTH 15 0
BBX 11 17 2 0
BITMAP
0E00
3180
00C0
0040
0040
0060
0020
1F20
20A0
4060
C060
8040
8040
8040
4080
4100
3E00
ENDCHAR
STARTCHAR 2203
ENCODING 8707
SWIDTH 600 0
DWIDTH 15 0
BBX 10 16 2 0
BITMAP
FFC0
0040
0040
0040
0040
0040
0040
7FC0
0040
0040
0040
0040
0040
0040
0040
FFC0
ENDCHAR
STARTCHAR 2206
ENCODING 8710
SWIDTH 600 0
DWIDTH 15 0
BBX 13 16 1 0
BITMAP
0200
0500
0500
0D00
0880
0880
18C0
1040
1040
2020
2020
2020
4010
4010
4010
FFF8
ENDCHAR
STARTCHAR 220F
ENCODING 8719
SWIDTH 600 0
DWIDTH 15 0
BBX 11 19 2 -3
BITMAP
FFE0
8020
8020
8020
8020
8020
8020
8020
8020
8020
8020
8020
8020
8020
8020
8020
8020
8020
8020
ENDCHAR
STARTCHAR 2211
ENCODING 8721
SWIDTH 600 0
DWIDTH 15 0
BBX 12 19 2 -3
BITMAP
FFE0
4000
6000
2000
1000
1800
0800
0400
0200
0300
0200
0400
0800
1800
1000
2000
4000
C000
FFF0
ENDCHAR
STARTCHAR 2212
ENCODING 8722
SWIDTH 600 0
DWIDTH 15 0
BBX 11 1 2 8
BITMAP
FFE0
ENDCHAR
STARTCHAR 2215
ENCODING 8725
SWIDTH 600 0
DWIDTH 15 0
BBX 13 14 1 2
BITMAP
0018
0010
0020
0040
0080
0000
0000
0000
0000
1800
1000
2000
4000
8000
ENDCHAR
STARTCHAR 2219
ENCODING 8729
SWIDTH 600 0
DWIDTH 15 0
BBX 3 3 6 7
BITMAP
E0
E0
E0
ENDCHAR
STARTCHAR 221A
ENCODING 8730
SWIDTH 600 0
DWIDTH 15 0
BBX 12 24 2 -3
BITMAP
0010
0010
0010
0010
0020
0020
0020
0020
0040
0040
0040
0040
E080
2080
1080
1080
1080
0900
0900
0900
0500
0600
0600
0200
ENDCHAR
STARTCHAR 221E
ENCODING 8734
SWIDTH 600 0
DWIDTH 15 0
BBX 15 8 0 4
BITMAP
387C
4C84
8302
8302
8302
C486
7CCC
0038
ENDCHAR
STARTCHAR 221F
ENCODING 8735
SWIDTH 600 0
DWIDTH 15 0
BBX 11 11 2 3
BITMAP
8000
8000
8000
8000
8000
8000
8000
8000
8000
8000
FFE0
ENDCHAR
STARTCHAR 2229
ENCODING 8745
SWIDTH 600 0
DWIDTH 15 0
BBX 9 11 3 3
BITMAP
3E00
6300
8080
8080
8080
8080
8080
8080
8080
8080
8080
ENDCHAR
STARTCHAR 222B
ENCODING 8747
SWIDTH 600 0
DWIDTH 15 0
BBX 6 24 5 -4
BITMAP
0C
10
20
20
20
20
20
20
20
20
20
20
20
10
10
10
10
10
10
10
10
10
20
E0
ENDCHAR
STARTCHAR 2237
ENCODING 8759
SWIDTH 600 0
DWIDTH 15 0
BBX 10 13 3 2
BITMAP
E1C0
E1C0
E1C0
0000
0000
0000
0000
0000
0000
0000
E1C0
E1C0
E1C0
ENDCHAR
STARTCHAR 2248
ENCODING 8776
SWIDTH 600 0
DWIDTH 15 0
BBX 11 9 2 4
BITMAP
3820
4C40
83C0
0000
0000
0000
3820
4C40
83C0
ENDCHAR
STARTCHAR 2260
ENCODING 8800
SWIDTH 600 0
DWIDTH 15 0
BBX 11 13 2 2
BITMAP
0040
0080
0080
0100
FFE0
0200
0400
0400
0800
FFE0
1000
2000
4000
ENDCHAR
STARTCHAR 2261
ENCODING 8801
SWIDTH 600 0
DWIDTH 15 0
BBX 11 11 2 3
BITMAP
FFE0
0000
0000
0000
0000
FFE0
0000
0000
0000
0000
FFE0
ENDCHAR
STARTCHAR 2264
ENCODING 8804
SWIDTH 600 0
DWIDTH 15 0
BBX 11 13 2 0
BITMAP
0060
01C0
0E00
3000
C000
7000
0C00
0380
0060
0000
0000
0000
FFE0
ENDCHAR
STARTCHAR 2265
ENCODING 8805
SWIDTH 600 0
DWIDTH 15 0
BBX 11 13 2 0
BITMAP
C000
7000
0E00
0180
0060
01C0
0600
3800
C000
0000
0000
0000
FFE0
ENDCHAR
STARTCHAR 2302
ENCODING 8962
SWIDTH 600 0
DWIDTH 15 0
BBX 13 17 1 0
BITMAP
0200
0500
0D80
0880
1040
2020
6030
4010
8008
8008
8008
8008
8008
8008
8008
8008
FFF8
ENDCHAR
STARTCHAR 2310
ENCODING 8976
SWIDTH 600 0
DWIDTH 15 0
BBX 11 6 2 3
BITMAP
FFE0
8000
8000
8000
8000
8000
ENDCHAR
STARTCHAR 231C
ENCODING 8988
SWIDTH 600 0
DWIDTH 15 0
BBX 6 17 6 0
BITMAP
FC
80
80
80
80
80
80
80
80
80
80
80
80
80
80
80
80
ENDCHAR
STARTCHAR 231D
ENCODING 8989
SWIDTH 600 0
DWIDTH 15 0
BBX 6 17 3 0
BITMAP
FC
04
04
04
04
04
04
04
04
04
04
04
04
04
04
04
04
ENDCHAR
STARTCHAR 231E
ENCODING 8990
SWIDTH 600 0
DWIDTH 15 0
BBX 6 17 6 -1
BITMAP
80
80
80
80
80
80
80
80
80
80
80
80
80
80
80
80
FC
ENDCHAR
STARTCHAR 231F
ENCODING 8991
SWIDTH 600 0
DWIDTH 15 0
BBX 6 17 3 -1
BITMAP
04
04
04
04
04
04
04
04
04
04
04
04
04
04
04
04
FC
ENDCHAR
STARTCHAR 2320
ENCODING 8992
SWIDTH 600 0
DWIDTH 15 0
BBX 4 30 7 -10
BITMAP
30
40
80
80
80
80
80
80
80
80
80
80
80
80
80
80
80
80
80
80
80
80
80
80
80
80
80
80
80
80
ENDCHAR
STARTCHAR 2321
ENCODING 8993
SWIDTH 600 0
DWIDTH 15 0
BBX 4 29 4 -4
BITMAP
10
10
10
10
10
10
10
10
10
10
10
10
10
10
10
10
10
10
10
10
10
10
10
10
10
10
10
20
E0
ENDCHAR
STARTCHAR 2500
ENCODING 9472
SWIDTH 600 0
DWIDTH 15 0
BBX 17 1 -1 7
BITMAP
FFFF80
ENDCHAR
STARTCHAR 2501
ENCODING 9473
SWIDTH 600 0
DWIDTH 15 0
BBX 17 3 -1 6
BITMAP
FFFF80
FFFF80
FFFF80
ENDCHAR
STARTCHAR 2502
ENCODING 9474
SWIDTH 600 0
DWIDTH 15 0
BBX 1 35 7 -10
BITMAP
80
80
80
80
80
80
80
80
80
80
80
80
80
80
80
80
80
80
80
80
80
80
80
80
80
80
80
80
80
80
80
80
80
80
80
ENDCHAR
STARTCHAR 2503
ENCODING 9475
SWIDTH 600 0
DWIDTH 15 0
BBX 3 35 6 -10
BITMAP
E0
E0
E0
E0
E0
E0
E0
E0
E0
E0
E0
E0
E0
E0
E0
E0
E0
E0
E0
E0
E0
E0
E0
E0
E0
E0
E0
E0
E0
E0
E0
E0
E0
E0
E0
ENDCHAR
STARTCHAR 2504
ENCODING 9476
SWIDTH 600 0
DWIDTH 15 0
BBX 13 1 1 7
BITMAP
E738
ENDCHAR
STARTCHAR 2505
ENCODING 9477
SWIDTH 600 0
DWIDTH 15 0
BBX 13 3 1 6
BITMAP
E738
E738
E738
ENDCHAR
STARTCHAR 2506
ENCODING 9478
SWIDTH 600 0
DWIDTH 15 0
BBX 1 27 7 -6
BITMAP
80
80
80
80
80
80
80
00
00
00
80
80
80
80
80
80
80
00
00
00
80
80
80
80
80
80
80
ENDCHAR
STARTCHAR 2507
ENCODING 9479
SWIDTH 600 0
DWIDTH 15 0
BBX 3 27 6 -6
BITMAP
E0
E0
E0
E0
E0
E0
E0
00
00
00
E0
E0
E0
E0
E0
E0
E0
00
00
00
E0
E0
E0
E0
E0
E0
E0
ENDCHAR
STARTCHAR 2508
ENCODING 9480
SWIDTH 600 0
DWIDTH 15 0
BBX 15 1 0 7
BITMAP
EEEE
ENDCHAR
STARTCHAR 2509
ENCODING 9481
SWIDTH 600 0
DWIDTH 15 0
BBX 15 3 0 6
BITMAP
EEEE
EEEE
EEEE
ENDCHAR
STARTCHAR 250A
ENCODING 9482
SWIDTH 600 0
DWIDTH 15 0
BBX 1 29 7 -7
BITMAP
80
80
80
80
80
80
00
00
80
80
80
80
80
80
00
80
80
80
80
80
80
00
00
80
80
80
80
80
80
ENDCHAR
STARTCHAR 250B
ENCODING 9483
SWIDTH 600 0
DWIDTH 15 0
BBX 3 29 6 -7
BITMAP
E0
E0
E0
E0
E0
E0
00
00
E0
E0
E0
E0
E0
E0
00
E0
E0
E0
E0
E0
E0
00
00
E0
E0
E0
E0
E0
E0
ENDCHAR
STARTCHAR 250C
ENCODING 9484
SWIDTH 600 0
DWIDTH 15 0
BBX 9 18 7 -10
BITMAP
FF80
8000
8000
8000
8000
8000
8000
8000
8000
8000
8000
8000
8000
8000
8000
8000
8000
8000
ENDCHAR
STARTCHAR 250D
ENCODING 9485
SWIDTH 600 0
DWIDTH 15 0
BBX 9 19 7 -10
BITMAP
FF80
FF80
FF80
8000
8000
8000
8000
8000
8000
8000
8000
8000
8000
8000
8000
8000
8000
8000
8000
ENDCHAR
STARTCHAR 250E
ENCODING 9486
SWIDTH 600 0
DWIDTH 15 0
BBX 10 18 6 -10
BITMAP
FFC0
E000
E000
E000
E000
E000
E000
E000
E000
E000
E000
E000
E000
E000
E000
E000
E000
E000
ENDCHAR
STARTCHAR 250F
ENCODING 9487
SWIDTH 600 0
DWIDTH 15 0
BBX 10 19 6 -10
BITMAP
FFC0
FFC0
FFC0
E000
E000
E000
E000
E000
E000
E000
E000
E000
E000
E000
E000
E000
E000
E000
E000
ENDCHAR
STARTCHAR 2510
ENCODING 9488
SWIDTH 600 0
DWIDTH 15 0
BBX 9 18 -1 -10
BITMAP
FF80
0080
0080
0080
0080
0080
0080
0080
0080
0080
0080
0080
0080
0080
0080
0080
0080
0080
ENDCHAR
STARTCHAR 2511
ENCODING 9489
SWIDTH 600 0
DWIDTH 15 0
BBX 9 19 -1 -10
BITMAP
FF80
FF80
FF80
0080
0080
0080
0080
0080
0080
0080
0080
0080
0080
0080
0080
0080
0080
0080
0080
ENDCHAR
STARTCHAR 2512
ENCODING 9490
SWIDTH 600 0
DWIDTH 15 0
BBX 10 18 -1 -10
BITMAP
FFC0
01C0
01C0
01C0
01C0
01C0
01C0
01C0
01C0
01C0
01C0
01C0
01C0
01C0
01C0
01C0
01C0
01C0
ENDCHAR
STARTCHAR 2513
ENCODING 9491
SWIDTH 600 0
DWIDTH 15 0
BBX 10 19 -1 -10
BITMAP
FFC0
FFC0
FFC0
01C0
01C0
01C0
01C0
01C0
01C0
01C0
01C0
01C0
01C0
01C0
01C0
01C0
01C0
01C0
01C0
ENDCHAR
STARTCHAR 2514
ENCODING 9492
SWIDTH 600 0
DWIDTH 15 0
BBX 9 18 7 7
BITMAP
8000
8000
8000
8000
8000
8000
8000
8000
8000
8000
8000
8000
8000
8000
8000
8000
8000
FF80
ENDCHAR
STARTCHAR 2515
ENCODING 9493
SWIDTH 600 0
DWIDTH 15 0
BBX 9 19 7 6
BITMAP
8000
8000
8000
8000
8000
8000
8000
8000
8000
8000
8000
8000
8000
8000
8000
8000
FF80
FF80
FF80
ENDCHAR
STARTCHAR 2516
ENCODING 9494
SWIDTH 600 0
DWIDTH 15 0
BBX 10 18 6 7
BITMAP
E000
E000
E000
E000
E000
E000
E000
E000
E000
E000
E000
E000
E000
E000
E000
E000
E000
FFC0
ENDCHAR
STARTCHAR 2517
ENCODING 9495
SWIDTH 600 0
DWIDTH 15 0
BBX 10 19 6 6
BITMAP
E000
E000
E000
E000
E000
E000
E000
E000
E000
E000
E000
E000
E000
E000
E000
E000
FFC0
FFC0
FFC0
ENDCHAR
STARTCHAR 2518
ENCODING 9496
SWIDTH 600 0
DWIDTH 15 0
BBX 9 18 -1 7
BITMAP
0080
0080
0080
0080
0080
0080
0080
0080
0080
0080
0080
0080
0080
0080
0080
0080
0080
FF80
ENDCHAR
STARTCHAR 2519
ENCODING 9497
SWIDTH 600 0
DWIDTH 15 0
BBX 9 19 -1 6
BITMAP
0080
0080
0080
0080
0080
0080
0080
0080
0080
0080
0080
0080
0080
0080
0080
0080
FF80
FF80
FF80
ENDCHAR
STARTCHAR 251A
ENCODING 9498
SWIDTH 600 0
DWIDTH 15 0
BBX 10 18 -1 7
BITMAP
01C0
01C0
01C0
01C0
01C0
01C0
01C0
01C0
01C0
01C0
01C0
01C0
01C0
01C0
01C0
01C0
01C0
FFC0
ENDCHAR
STARTCHAR 251B
ENCODING 9499
SWIDTH 600 0
DWIDTH 15 0
BBX 10 19 -1 6
BITMAP
01C0
01C0
01C0
01C0
01C0
01C0
01C0
01C0
01C0
01C0
01C0
01C0
01C0
01C0
01C0
01C0
FFC0
FFC0
FFC0
ENDCHAR
STARTCHAR 251C
ENCODING 9500
SWIDTH 600 0
DWIDTH 15 0
BBX 9 35 7 -10
BITMAP
8000
8000
8000
8000
8000
8000
8000
8000
8000
8000
8000
8000
8000
8000
8000
8000
8000
FF80
8000
8000
8000
8000
8000
8000
8000
8000
8000
8000
8000
8000
8000
8000
8000
8000
8000
ENDCHAR
STARTCHAR 251D
ENCODING 9501
SWIDTH 600 0
DWIDTH 15 0
BBX 9 35 7 -10
BITMAP
8000
8000
8000
8000
8000
8000
8000
8000
8000
8000
8000
8000
8000
8000
8000
8000
FF80
FF80
FF80
8000
8000
8000
8000
8000
8000
8000
8000
8000
8000
8000
8000
8000
8000
8000
8000
ENDCHAR
STARTCHAR 251E
ENCODING 9502
SWIDTH 600 0
DWIDTH 15 0
BBX 10 35 6 -10
BITMAP
E000
E000
E000
E000
E000
E000
E000
E000
E000
E000
E000
E000
E000
E000
E000
E000
E000
FFC0
4000
4000
4000
4000
4000
4000
4000
4000
4000
4000
4000
4000
4000
4000
4000
4000
4000
ENDCHAR
STARTCHAR 251F
ENCODING 9503
SWIDTH 600 0
DWIDTH 15 0
BBX 10 35 6 -10
BITMAP
4000
4000
4000
4000
4000
4000
4000
4000
4000
4000
4000
4000
4000
4000
4000
4000
4000
FFC0
E000
E000
E000
E000
E000
E000
E000
E000
E000
E000
E000
E000
E000
E000
E000
E000
E000
ENDCHAR
STARTCHAR 2520
ENCODING 9504
SWIDTH 600 0
DWIDTH 15 0
BBX 10 35 6 -10
BITMAP
E000
E000
E000
E000
E000
E000
E000
E000
E000
E000
E000
E000
E000
E000
E000
E000
E000
FFC0
E000
E000
E000
E000
E000
E000
E000
E000
E000
E000
E000
E000
E000
E000
E000
E000
E000
ENDCHAR
STARTCHAR 2521
ENCODING 9505
SWIDTH 600 0
DWIDTH 15 0
BBX 10 35 6 -10
BITMAP
E000
E000
E000
E000
E000
E000
E000
E000
E000
E000
E000
E000
E000
E000
E000
E000
FFC0
FFC0
FFC0
4000
4000
4000
4000
4000
4000
4000
4000
4000
4000
4000
4000
4000
4000
4000
4000
ENDCHAR
STARTCHAR 2522
ENCODING 9506
SWIDTH 600 0
DWIDTH 15 0
BBX 10 35 6 -10
BITMAP
4000
4000
4000
4000
4000
4000
4000
4000
4000
4000
4000
4000
4000
4000
4000
4000
FFC0
FFC0
FFC0
E000
E000
E000
E000
E000
E000
E000
E000
E000
E000
E000
E000
E000
E000
E000
E000
ENDCHAR
STARTCHAR 2523
ENCODING 9507
SWIDTH 600 0
DWIDTH 15 0
BBX 10 35 6 -10
BITMAP
E000
E000
E000
E000
E000
E000
E000
E000
E000
E000
E000
E000
E000
E000
E000
E000
FFC0
FFC0
FFC0
E000
E000
E000
E000
E000
E000
E000
E000
E000
E000
E000
E000
E000
E000
E000
E000
ENDCHAR
STARTCHAR 2524
ENCODING 9508
SWIDTH 600 0
DWIDTH 15 0
BBX 9 35 -1 -10
BITMAP
0080
0080
0080
0080
0080
0080
0080
0080
0080
0080
0080
0080
0080
0080
0080
0080
0080
FF80
0080
0080
0080
0080
0080
0080
0080
0080
0080
0080
0080
0080
0080
0080
0080
0080
0080
ENDCHAR
STARTCHAR 2525
ENCODING 9509
SWIDTH 600 0
DWIDTH 15 0
BBX 9 35 -1 -10
BITMAP
0080
0080
0080
0080
0080
0080
0080
0080
0080
0080
0080
0080
0080
0080
0080
0080
FF80
FF80
FF80
0080
0080
0080
0080
0080
0080
0080
0080
0080
0080
0080
0080
0080
0080
0080
0080
ENDCHAR
STARTCHAR 2526
ENCODING 9510
SWIDTH 600 0
DWIDTH 15 0
BBX 10 35 -1 -10
BITMAP
01C0
01C0
01C0
01C0
01C0
01C0
01C0
01C0
01C0
01C0
01C0
01C0
01C0
01C0
01C0
01C0
01C0
FFC0
0080
0080
0080
0080
0080
0080
0080
0080
0080
0080
0080
0080
0080
0080
0080
0080
0080
ENDCHAR
STARTCHAR 2527
ENCODING 9511
SWIDTH 600 0
DWIDTH 15 0
BBX 10 35 -1 -10
BITMAP
0080
0080
0080
0080
0080
0080
0080
0080
0080
0080
0080
0080
0080
0080
0080
0080
0080
FFC0
01C0
01C0
01C0
01C0
01C0
01C0
01C0
01C0
01C0
01C0
01C0
01C0
01C0
01C0
01C0
01C0
01C0
ENDCHAR
STARTCHAR 2528
ENCODING 9512
SWIDTH 600 0
DWIDTH 15 0
BBX 10 35 -1 -10
BITMAP
01C0
01C0
01C0
01C0
01C0
01C0
01C0
01C0
01C0
01C0
01C0
01C0
01C0
01C0
01C0
01C0
01C0
FFC0
01C0
01C0
01C0
01C0
01C0
01C0
01C0
01C0
01C0
01C0
01C0
01C0
01C0
01C0
01C0
01C0
01C0
ENDCHAR
STARTCHAR 2529
ENCODING 9513
SWIDTH 600 0
DWIDTH 15 0
BBX 10 35 -1 -10
BITMAP
01C0
01C0
01C0
01C0
01C0
01C0
01C0
01C0
01C0
01C0
01C0
01C0
01C0
01C0
01C0
01C0
FFC0
FFC0
FFC0
0080
0080
0080
0080
0080
0080
0080
0080
0080
0080
0080
0080
0080
0080
0080
0080
ENDCHAR
STARTCHAR 252A
ENCODING 9514
SWIDTH 600 0
DWIDTH 15 0
BBX 10 35 -1 -10
BITMAP
0080
0080
0080
0080
0080
0080
0080
0080
0080
0080
0080
0080
0080
0080
0080
0080
FFC0
FFC0
FFC0
01C0
01C0
01C0
01C0
01C0
01C0
01C0
01C0
01C0
01C0
01C0
01C0
01C0
01C0
01C0
01C0
ENDCHAR
STARTCHAR 252B
ENCODING 9515
SWIDTH 600 0
DWIDTH 15 0
BBX 10 35 -1 -10
BITMAP
01C0
01C0
01C0
01C0
01C0
01C0
01C0
01C0
01C0
01C0
01C0
01C0
01C0
01C0
01C0
01C0
FFC0
FFC0
FFC0
01C0
01C0
01C0
01C0
01C0
01C0
01C0
01C0
01C0
01C0
01C0
01C0
01C0
01C0
01C0
01C0
ENDCHAR
STARTCHAR 252C
ENCODING 9516
SWIDTH 600 0
DWIDTH 15 0
BBX 17 18 -1 -10
BITMAP
FFFF80
008000
008000
008000
008000
008000
008000
008000
008000
008000
008000
008000
008000
008000
008000
008000
008000
008000
ENDCHAR
STARTCHAR 252D
ENCODING 9517
SWIDTH 600 0
DWIDTH 15 0
BBX 17 19 -1 -10
BITMAP
FF8000
FFFF80
FF8000
008000
008000
008000
008000
008000
008000
008000
008000
008000
008000
008000
008000
008000
008000
008000
008000
ENDCHAR
STARTCHAR 252E
ENCODING 9518
SWIDTH 600 0
DWIDTH 15 0
BBX 17 19 -1 -10
BITMAP
00FF80
FFFF80
00FF80
008000
008000
008000
008000
008000
008000
008000
008000
008000
008000
008000
008000
008000
008000
008000
008000
ENDCHAR
STARTCHAR 252F
ENCODING 9519
SWIDTH 600 0
DWIDTH 15 0
BBX 17 19 -1 -10
BITMAP
FFFF80
FFFF80
FFFF80
008000
008000
008000
008000
008000
008000
008000
008000
008000
008000
008000
008000
008000
008000
008000
008000
ENDCHAR
STARTCHAR 2530
ENCODING 9520
SWIDTH 600 0
DWIDTH 15 0
BBX 17 18 -1 -10
BITMAP
FFFF80
01C000
01C000
01C000
01C000
01C000
01C000
01C000
01C000
01C000
01C000
01C000
01C000
01C000
01C000
01C000
01C000
01C000
ENDCHAR
STARTCHAR 2531
ENCODING 9521
SWIDTH 600 0
DWIDTH 15 0
BBX 17 19 -1 -10
BITMAP
FFC000
FFFF80
FFC000
01C000
01C000
01C000
01C000
01C000
01C000
01C000
01C000
01C000
01C000
01C000
01C000
01C000
01C000
01C000
01C000
ENDCHAR
STARTCHAR 2532
ENCODING 9522
SWIDTH 600 0
DWIDTH 15 0
BBX 17 19 -1 -10
BITMAP
01FF80
FFFF80
01FF80
01C000
01C000
01C000
01C000
01C000
01C000
01C000
01C000
01C000
01C000
01C000
01C000
01C000
01C000
01C000
01C000
ENDCHAR
STARTCHAR 2533
ENCODING 9523
SWIDTH 600 0
DWIDTH 15 0
BBX 17 19 -1 -10
BITMAP
FFFF80
FFFF80
FFFF80
01C000
01C000
01C000
01C000
01C000
01C000
01C000
01C000
01C000
01C000
01C000
01C000
01C000
01C000
01C000
01C000
ENDCHAR
STARTCHAR 2534
ENCODING 9524
SWIDTH 600 0
DWIDTH 15 0
BBX 17 18 -1 7
BITMAP
008000
008000
008000
008000
008000
008000
008000
008000
008000
008000
008000
008000
008000
008000
008000
008000
008000
FFFF80
ENDCHAR
STARTCHAR 2535
ENCODING 9525
SWIDTH 600 0
DWIDTH 15 0
BBX 17 19 -1 6
BITMAP
008000
008000
008000
008000
008000
008000
008000
008000
008000
008000
008000
008000
008000
008000
008000
008000
FF8000
FFFF80
FF8000
ENDCHAR
STARTCHAR 2536
ENCODING 9526
SWIDTH 600 0
DWIDTH 15 0
BBX 17 19 -1 6
BITMAP
008000
008000
008000
008000
008000
008000
008000
008000
008000
008000
008000
008000
008000
008000
008000
008000
00FF80
FFFF80
00FF80
ENDCHAR
STARTCHAR 2537
ENCODING 9527
SWIDTH 600 0
DWIDTH 15 0
BBX 17 19 -1 6
BITMAP
008000
008000
008000
008000
008000
008000
008000
008000
008000
008000
008000
008000
008000
008000
008000
008000
FFFF80
FFFF80
FFFF80
ENDCHAR
STARTCHAR 2538
ENCODING 9528
SWIDTH 600 0
DWIDTH 15 0
BBX 17 18 -1 7
BITMAP
01C000
01C000
01C000
01C000
01C000
01C000
01C000
01C000
01C000
01C000
01C000
01C000
01C000
01C000
01C000
01C000
01C000
FFFF80
ENDCHAR
STARTCHAR 2539
ENCODING 9529
SWIDTH 600 0
DWIDTH 15 0
BBX 17 19 -1 6
BITMAP
01C000
01C000
01C000
01C000
01C000
01C000
01C000
01C000
01C000
01C000
01C000
01C000
01C000
01C000
01C000
01C000
FFC000
FFFF80
FFC000
ENDCHAR
STARTCHAR 253A
ENCODING 9530
SWIDTH 600 0
DWIDTH 15 0
BBX 17 19 -1 6
BITMAP
01C000
01C000
01C000
01C000
01C000
01C000
01C000
01C000
01C000
01C000
01C000
01C000
01C000
01C000
01C000
01C000
01FF80
FFFF80
01FF80
ENDCHAR
STARTCHAR 253B
ENCODING 9531
SWIDTH 600 0
DWIDTH 15 0
BBX 17 19 -1 6
BITMAP
01C000
01C000
01C000
01C000
01C000
01C000
01C000
01C000
01C000
01C000
01C000
01C000
01C000
01C000
01C000
01C000
FFFF80
FFFF80
FFFF80
ENDCHAR
STARTCHAR 253C
ENCODING 9532
SWIDTH 600 0
DWIDTH 15 0
BBX 17 35 -1 -10
BITMAP
008000
008000
008000
008000
008000
008000
008000
008000
008000
008000
008000
008000
008000
008000
008000
008000
008000
FFFF80
008000
008000
008000
008000
008000
008000
008000
008000
008000
008000
008000
008000
008000
008000
008000
008000
008000
ENDCHAR
STARTCHAR 253D
ENCODING 9533
SWIDTH 600 0
DWIDTH 15 0
BBX 17 35 -1 -10
BITMAP
008000
008000
008000
008000
008000
008000
008000
008000
008000
008000
008000
008000
008000
008000
008000
008000
FF8000
FFFF80
FF8000
008000
008000
008000
008000
008000
008000
008000
008000
008000
008000
008000
008000
008000
008000
008000
008000
ENDCHAR
STARTCHAR 253E
ENCODING 9534
SWIDTH 600 0
DWIDTH 15 0
BBX 17 35 -1 -10
BITMAP
008000
008000
008000
008000
008000
008000
008000
008000
008000
008000
008000
008000
008000
008000
008000
008000
00FF80
FFFF80
00FF80
008000
008000
008000
008000
008000
008000
008000
008000
008000
008000
008000
008000
008000
008000
008000
008000
ENDCHAR
STARTCHAR 253F
ENCODING 9535
SWIDTH 600 0
DWIDTH 15 0
BBX 17 35 -1 -10
BITMAP
008000
008000
008000
008000
008000
008000
008000
008000
008000
008000
008000
008000
008000
008000
008000
008000
FFFF80
FFFF80
FFFF80
008000
008000
008000
008000
008000
008000
008000
008000
008000
008000
008000
008000
008000
008000
008000
008000
ENDCHAR
STARTCHAR 2540
ENCODING 9536
SWIDTH 600 0
DWIDTH 15 0
BBX 17 35 -1 -10
BITMAP
01C000
01C000
01C000
01C000
01C000
01C000
01C000
01C000
01C000
01C000
01C000
01C000
01C000
01C000
01C000
01C000
01C000
FFFF80
008000
008000
008000
008000
008000
008000
008000
008000
008000
008000
008000
008000
008000
008000
008000
008000
008000
ENDCHAR
STARTCHAR 2541
ENCODING 9537
SWIDTH 600 0
DWIDTH 15 0
BBX 17 35 -1 -10
BITMAP
008000
008000
008000
008000
008000
008000
008000
008000
008000
008000
008000
008000
008000
008000
008000
008000
008000
FFFF80
01C000
01C000
01C000
01C000
01C000
01C000
01C000
01C000
01C000
01C000
01C000
01C000
01C000
01C000
01C000
01C000
01C000
ENDCHAR
STARTCHAR 2542
ENCODING 9538
SWIDTH 600 0
DWIDTH 15 0
BBX 17 35 -1 -10
BITMAP
01C000
01C000
01C000
01C000
01C000
01C000
01C000
01C000
01C000
01C000
01C000
01C000
01C000
01C000
01C000
01C000
01C000
FFFF80
01C000
01C000
01C000
01C000
01C000
01C000
01C000
01C000
01C000
01C000
01C000
01C000
01C000
01C000
01C000
01C000
01C000
ENDCHAR
STARTCHAR 2543
ENCODING 9539
SWIDTH 600 0
DWIDTH 15 0
BBX 17 35 -1 -10
BITMAP
01C000
01C000
01C000
01C000
01C000
01C000
01C000
01C000
01C000
01C000
01C000
01C000
01C000
01C000
01C000
01C000
FFC000
FFFF80
FFC000
008000
008000
008000
008000
008000
008000
008000
008000
008000
008000
008000
008000
008000
008000
008000
008000
ENDCHAR
STARTCHAR 2544
ENCODING 9540
SWIDTH 600 0
DWIDTH 15 0
BBX 17 35 -1 -10
BITMAP
01C000
01C000
01C000
01C000
01C000
01C000
01C000
01C000
01C000
01C000
01C000
01C000
01C000
01C000
01C000
01C000
01FF80
FFFF80
01FF80
008000
008000
008000
008000
008000
008000
008000
008000
008000
008000
008000
008000
008000
008000
008000
008000
ENDCHAR
STARTCHAR 2545
ENCODING 9541
SWIDTH 600 0
DWIDTH 15 0
BBX 17 35 -1 -10
BITMAP
008000
008000
008000
008000
008000
008000
008000
008000
008000
008000
008000
008000
008000
008000
008000
008000
FFC000
FFFF80
FFC000
01C000
01C000
01C000
01C000
01C000
01C000
01C000
01C000
01C000
01C000
01C000
01C000
01C000
01C000
01C000
01C000
ENDCHAR
STARTCHAR 2546
ENCODING 9542
SWIDTH 600 0
DWIDTH 15 0
BBX 17 35 -1 -10
BITMAP
008000
008000
008000
008000
008000
008000
008000
008000
008000
008000
008000
008000
008000
008000
008000
008000
01FF80
FFFF80
01FF80
01C000
01C000
01C000
01C000
01C000
01C000
01C000
01C000
01C000
01C000
01C000
01C000
01C000
01C000
01C000
01C000
ENDCHAR
STARTCHAR 2547
ENCODING 9543
SWIDTH 600 0
DWIDTH 15 0
BBX 17 35 -1 -10
BITMAP
01C000
01C000
01C000
01C000
01C000
01C000
01C000
01C000
01C000
01C000
01C000
01C000
01C000
01C000
01C000
01C000
FFFF80
FFFF80
FFFF80
008000
008000
008000
008000
008000
008000
008000
008000
008000
008000
008000
008000
008000
008000
008000
008000
ENDCHAR
STARTCHAR 2548
ENCODING 9544
SWIDTH 600 0
DWIDTH 15 0
BBX 17 35 -1 -10
BITMAP
008000
008000
008000
008000
008000
008000
008000
008000
008000
008000
008000
008000
008000
008000
008000
008000
FFFF80
FFFF80
FFFF80
01C000
01C000
01C000
01C000
01C000
01C000
01C000
01C000
01C000
01C000
01C000
01C000
01C000
01C000
01C000
01C000
ENDCHAR
STARTCHAR 2549
ENCODING 9545
SWIDTH 600 0
DWIDTH 15 0
BBX 17 35 -1 -10
BITMAP
01C000
01C000
01C000
01C000
01C000
01C000
01C000
01C000
01C000
01C000
01C000
01C000
01C000
01C000
01C000
01C000
FFC000
FFFF80
FFC000
01C000
01C000
01C000
01C000
01C000
01C000
01C000
01C000
01C000
01C000
01C000
01C000
01C000
01C000
01C000
01C000
ENDCHAR
STARTCHAR 254A
ENCODING 9546
SWIDTH 600 0
DWIDTH 15 0
BBX 17 35 -1 -10
BITMAP
01C000
01C000
01C000
01C000
01C000
01C000
01C000
01C000
01C000
01C000
01C000
01C000
01C000
01C000
01C000
01C000
01FF80
FFFF80
01FF80
01C000
01C000
01C000
01C000
01C000
01C000
01C000
01C000
01C000
01C000
01C000
01C000
01C000
01C000
01C000
01C000
ENDCHAR
STARTCHAR 254B
ENCODING 9547
SWIDTH 600 0
DWIDTH 15 0
BBX 17 35 -1 -10
BITMAP
01C000
01C000
01C000
01C000
01C000
01C000
01C000
01C000
01C000
01C000
01C000
01C000
01C000
01C000
01C000
01C000
FFFF80
FFFF80
FFFF80
01C000
01C000
01C000
01C000
01C000
01C000
01C000
01C000
01C000
01C000
01C000
01C000
01C000
01C000
01C000
01C000
ENDCHAR
STARTCHAR 254C
ENCODING 9548
SWIDTH 600 0
DWIDTH 15 0
BBX 11 1 2 7
BITMAP
F1E0
ENDCHAR
STARTCHAR 254D
ENCODING 9549
SWIDTH 600 0
DWIDTH 15 0
BBX 11 3 2 6
BITMAP
F1E0
F1E0
F1E0
ENDCHAR
STARTCHAR 254E
ENCODING 9550
SWIDTH 600 0
DWIDTH 15 0
BBX 1 23 7 -4
BITMAP
80
80
80
80
80
80
80
80
00
00
00
00
00
00
00
80
80
80
80
80
80
80
80
ENDCHAR
STARTCHAR 254F
ENCODING 9551
SWIDTH 600 0
DWIDTH 15 0
BBX 3 23 6 -4
BITMAP
E0
E0
E0
E0
E0
E0
E0
E0
00
00
00
00
00
00
00
E0
E0
E0
E0
E0
E0
E0
E0
ENDCHAR
STARTCHAR 2550
ENCODING 9552
SWIDTH 600 0
DWIDTH 15 0
BBX 17 3 -1 6
BITMAP
FFFF80
000000
FFFF80
ENDCHAR
STARTCHAR 2551
ENCODING 9553
SWIDTH 600 0
DWIDTH 15 0
BBX 3 35 6 -10
BITMAP
A0
A0
A0
A0
A0
A0
A0
A0
A0
A0
A0
A0
A0
A0
A0
A0
A0
A0
A0
A0
A0
A0
A0
A0
A0
A0
A0
A0
A0
A0
A0
A0
A0
A0
A0
ENDCHAR
STARTCHAR 2552
ENCODING 9554
SWIDTH 600 0
DWIDTH 15 0
BBX 9 19 7 -10
BITMAP
FF80
8000
FF80
8000
8000
8000
8000
8000
8000
8000
8000
8000
8000
8000
8000
8000
8000
8000
8000
ENDCHAR
STARTCHAR 2553
ENCODING 9555
SWIDTH 600 0
DWIDTH 15 0
BBX 10 18 6 -10
BITMAP
FFC0
A000
A000
A000
A000
A000
A000
A000
A000
A000
A000
A000
A000
A000
A000
A000
A000
A000
ENDCHAR
STARTCHAR 2554
ENCODING 9556
SWIDTH 600 0
DWIDTH 15 0
BBX 10 19 6 -10
BITMAP
FFC0
8000
BFC0
A000
A000
A000
A000
A000
A000
A000
A000
A000
A000
A000
A000
A000
A000
A000
A000
ENDCHAR
STARTCHAR 2555
ENCODING 9557
SWIDTH 600 0
DWIDTH 15 0
BBX 9 19 -1 -10
BITMAP
FF80
0080
FF80
0080
0080
0080
0080
0080
0080
0080
0080
0080
0080
0080
0080
0080
0080
0080
0080
ENDCHAR
STARTCHAR 2556
ENCODING 9558
SWIDTH 600 0
DWIDTH 15 0
BBX 10 18 -1 -10
BITMAP
FFC0
0140
0140
0140
0140
0140
0140
0140
0140
0140
0140
0140
0140
0140
0140
0140
0140
0140
ENDCHAR
STARTCHAR 2557
ENCODING 9559
SWIDTH 600 0
DWIDTH 15 0
BBX 10 19 -1 -10
BITMAP
FFC0
0040
FF40
0140
0140
0140
0140
0140
0140
0140
0140
0140
0140
0140
0140
0140
0140
0140
0140
ENDCHAR
STARTCHAR 2558
ENCODING 9560
SWIDTH 600 0
DWIDTH 15 0
BBX 9 19 7 6
BITMAP
8000
8000
8000
8000
8000
8000
8000
8000
8000
8000
8000
8000
8000
8000
8000
8000
FF80
8000
FF80
ENDCHAR
STARTCHAR 2559
ENCODING 9561
SWIDTH 600 0
DWIDTH 15 0
BBX 10 18 6 7
BITMAP
A000
A000
A000
A000
A000
A000
A000
A000
A000
A000
A000
A000
A000
A000
A000
A000
A000
FFC0
ENDCHAR
STARTCHAR 255A
ENCODING 9562
SWIDTH 600 0
DWIDTH 15 0
BBX 10 19 6 6
BITMAP
A000
A000
A000
A000
A000
A000
A000
A000
A000
A000
A000
A000
A000
A000
A000
A000
BFC0
8000
FFC0
ENDCHAR
STARTCHAR 255B
ENCODING 9563
SWIDTH 600 0
DWIDTH 15 0
BBX 9 19 -1 6
BITMAP
0080
0080
0080
0080
0080
0080
0080
0080
0080
0080
0080
0080
0080
0080
0080
0080
FF80
0080
FF80
ENDCHAR
STARTCHAR 255C
ENCODING 9564
SWIDTH 600 0
DWIDTH 15 0
BBX 10 18 -1 7
BITMAP
0140
0140
0140
0140
0140
0140
0140
0140
0140
0140
0140
0140
0140
0140
0140
0140
0140
FFC0
ENDCHAR
STARTCHAR 255D
ENCODING 9565
SWIDTH 600 0
DWIDTH 15 0
BBX 10 19 -1 6
BITMAP
0140
0140
0140
0140
0140
0140
0140
0140
0140
0140
0140
0140
0140
0140
0140
0140
FF40
0040
FFC0
ENDCHAR
STARTCHAR 255E
ENCODING 9566
SWIDTH 600 0
DWIDTH 15 0
BBX 9 35 7 -10
BITMAP
8000
8000
8000
8000
8000
8000
8000
8000
8000
8000
8000
8000
8000
8000
8000
8000
FF80
8000
FF80
8000
8000
8000
8000
8000
8000
8000
8000
8000
8000
8000
8000
8000
8000
8000
8000
ENDCHAR
STARTCHAR 255F
ENCODING 9567
SWIDTH 600 0
DWIDTH 15 0
BBX 10 35 6 -10
BITMAP
A000
A000
A000
A000
A000
A000
A000
A000
A000
A000
A000
A000
A000
A000
A000
A000
A000
BFC0
A000
A000
A000
A000
A000
A000
A000
A000
A000
A000
A000
A000
A000
A000
A000
A000
A000
ENDCHAR
STARTCHAR 2560
ENCODING 9568
SWIDTH 600 0
DWIDTH 15 0
BBX 10 35 6 -10
BITMAP
A000
A000
A000
A000
A000
A000
A000
A000
A000
A000
A000
A000
A000
A000
A000
A000
BFC0
8000
BFC0
A000
A000
A000
A000
A000
A000
A000
A000
A000
A000
A000
A000
A000
A000
A000
A000
ENDCHAR
STARTCHAR 2561
ENCODING 9569
SWIDTH 600 0
DWIDTH 15 0
BBX 9 35 -1 -10
BITMAP
0080
0080
0080
0080
0080
0080
0080
0080
0080
0080
0080
0080
0080
0080
0080
0080
FF80
0080
FF80
0080
0080
0080
0080
0080
0080
0080
0080
0080
0080
0080
0080
0080
0080
0080
0080
ENDCHAR
STARTCHAR 2562
ENCODING 9570
SWIDTH 600 0
DWIDTH 15 0
BBX 10 35 -1 -10
BITMAP
0140
0140
0140
0140
0140
0140
0140
0140
0140
0140
0140
0140
0140
0140
0140
0140
0140
FF40
0140
0140
0140
0140
0140
0140
0140
0140
0140
0140
0140
0140
0140
0140
0140
0140
0140
ENDCHAR
STARTCHAR 2563
ENCODING 9571
SWIDTH 600 0
DWIDTH 15 0
BBX 10 35 -1 -10
BITMAP
0140
0140
0140
0140
0140
0140
0140
0140
0140
0140
0140
0140
0140
0140
0140
0140
FF40
0040
FF40
0140
0140
0140
0140
0140
0140
0140
0140
0140
0140
0140
0140
0140
0140
0140
0140
ENDCHAR
STARTCHAR 2564
ENCODING 9572
SWIDTH 600 0
DWIDTH 15 0
BBX 17 19 -1 -10
BITMAP
FFFF80
000000
FFFF80
008000
008000
008000
008000
008000
008000
008000
008000
008000
008000
008000
008000
008000
008000
008000
008000
ENDCHAR
STARTCHAR 2565
ENCODING 9573
SWIDTH 600 0
DWIDTH 15 0
BBX 17 18 -1 -10
BITMAP
FFFF80
014000
014000
014000
014000
014000
014000
014000
014000
014000
014000
014000
014000
014000
014000
014000
014000
014000
ENDCHAR
STARTCHAR 2566
ENCODING 9574
SWIDTH 600 0
DWIDTH 15 0
BBX 17 19 -1 -10
BITMAP
FFFF80
000000
FF7F80
014000
014000
014000
014000
014000
014000
014000
014000
014000
014000
014000
014000
014000
014000
014000
014000
ENDCHAR
STARTCHAR 2567
ENCODING 9575
SWIDTH 600 0
DWIDTH 15 0
BBX 17 19 -1 6
BITMAP
008000
008000
008000
008000
008000
008000
008000
008000
008000
008000
008000
008000
008000
008000
008000
008000
FFFF80
000000
FFFF80
ENDCHAR
STARTCHAR 2568
ENCODING 9576
SWIDTH 600 0
DWIDTH 15 0
BBX 17 18 -1 7
BITMAP
014000
014000
014000
014000
014000
014000
014000
014000
014000
014000
014000
014000
014000
014000
014000
014000
014000
FFFF80
ENDCHAR
STARTCHAR 2569
ENCODING 9577
SWIDTH 600 0
DWIDTH 15 0
BBX 17 19 -1 6
BITMAP
014000
014000
014000
014000
014000
014000
014000
014000
014000
014000
014000
014000
014000
014000
014000
014000
FF7F80
000000
FFFF80
ENDCHAR
STARTCHAR 256A
ENCODING 9578
SWIDTH 600 0
DWIDTH 15 0
BBX 17 35 -1 -10
BITMAP
008000
008000
008000
008000
008000
008000
008000
008000
008000
008000
008000
008000
008000
008000
008000
008000
FFFF80
008000
FFFF80
008000
008000
008000
008000
008000
008000
008000
008000
008000
008000
008000
008000
008000
008000
008000
008000
ENDCHAR
STARTCHAR 256B
ENCODING 9579
SWIDTH 600 0
DWIDTH 15 0
BBX 17 35 -1 -10
BITMAP
014000
014000
014000
014000
014000
014000
014000
014000
014000
014000
014000
014000
014000
014000
014000
014000
014000
FFFF80
014000
014000
014000
014000
014000
014000
014000
014000
014000
014000
014000
014000
014000
014000
014000
014000
014000
ENDCHAR
STARTCHAR 256C
ENCODING 9580
SWIDTH 600 0
DWIDTH 15 0
BBX 17 35 -1 -10
BITMAP
014000
014000
014000
014000
014000
014000
014000
014000
014000
014000
014000
014000
014000
014000
014000
014000
FF7F80
000000
FF7F80
014000
014000
014000
014000
014000
014000
014000
014000
014000
014000
014000
014000
014000
014000
014000
014000
ENDCHAR
STARTCHAR 256D
ENCODING 9581
SWIDTH 600 0
DWIDTH 15 0
BBX 9 18 7 -10
BITMAP
0780
1C00
3000
6000
4000
C000
8000
8000
8000
8000
8000
8000
8000
8000
8000
8000
8000
8000
ENDCHAR
STARTCHAR 256E
ENCODING 9582
SWIDTH 600 0
DWIDTH 15 0
BBX 9 18 -1 -10
BITMAP
F000
1C00
0600
0300
0100
0180
0080
0080
0080
0080
0080
0080
0080
0080
0080
0080
0080
0080
ENDCHAR
STARTCHAR 256F
ENCODING 9583
SWIDTH 600 0
DWIDTH 15 0
BBX 9 18 -1 7
BITMAP
0080
0080
0080
0080
0080
0080
0080
0080
0080
0080
0080
0080
0180
0100
0300
0600
1C00
F000
ENDCHAR
STARTCHAR 2570
ENCODING 9584
SWIDTH 600 0
DWIDTH 15 0
BBX 9 18 7 7
BITMAP
8000
8000
8000
8000
8000
8000
8000
8000
8000
8000
8000
8000
C000
4000
6000
3000
1C00
0780
ENDCHAR
STARTCHAR 2571
ENCODING 9585
SWIDTH 600 0
DWIDTH 15 0
BBX 15 30 0 -7
BITMAP
0002
0002
0006
0004
000C
0008
0018
0010
0030
0020
0060
0040
00C0
0080
0180
0100
0300
0200
0600
0400
0C00
0800
1800
1000
3000
2000
6000
4000
C000
8000
ENDCHAR
ENDFONT
